<svg width="16" height="16" viewBox="0 0 16 16" fill="none" xmlns="http://www.w3.org/2000/svg">
<path d="M8 0.5C12.1423 0.5 15.5 3.85775 15.5 8C15.5 12.1423 12.1423 15.5 8 15.5C3.85775 15.5 0.5 12.1423 0.5 8C0.5 3.85775 3.85775 0.5 8 0.5ZM8 1.625C6.30925 1.625 4.68774 2.29665 3.49219 3.49219C2.29665 4.68774 1.625 6.30925 1.625 8C1.625 9.69075 2.29665 11.3123 3.49219 12.5078C4.68774 13.7034 6.30925 14.375 8 14.375C9.69075 14.375 11.3123 13.7034 12.5078 12.5078C13.7034 11.3123 14.375 9.69075 14.375 8C14.375 6.30925 13.7034 4.68774 12.5078 3.49219C11.3123 2.29665 9.69075 1.625 8 1.625ZM8 4.25C8.14918 4.25 8.29226 4.30926 8.39775 4.41475C8.50324 4.52024 8.5625 4.66332 8.5625 4.8125V7.4375H11.1875C11.3367 7.4375 11.4798 7.49676 11.5852 7.60225C11.6907 7.70774 11.75 7.85082 11.75 8C11.75 8.14918 11.6907 8.29226 11.5852 8.39775C11.4798 8.50324 11.3367 8.5625 11.1875 8.5625H8.5625V11.1875C8.5625 11.3367 8.50324 11.4798 8.39775 11.5852C8.29226 11.6907 8.14918 11.75 8 11.75C7.85082 11.75 7.70774 11.6907 7.60225 11.5852C7.49676 11.4798 7.4375 11.3367 7.4375 11.1875V8.5625H4.8125C4.66332 8.5625 4.52024 8.50324 4.41475 8.39775C4.30926 8.29226 4.25 8.14918 4.25 8C4.25 7.85082 4.30926 7.70774 4.41475 7.60225C4.52024 7.49676 4.66332 7.4375 4.8125 7.4375H7.4375V4.8125C7.4375 4.66332 7.49676 4.52024 7.60225 4.41475C7.70774 4.30926 7.85082 4.25 8 4.25Z" fill="#222222"/>
</svg>
