<svg width="22" height="24" viewBox="0 0 22 24" fill="none" xmlns="http://www.w3.org/2000/svg">
<path d="M4.02064 23.2783C3.77213 23.1406 3.78455 23.5379 3.78277 15.6715L3.7811 8.35079L2.85532 8.334C2.01935 8.31884 1.90297 8.30665 1.65562 8.20828C1.10608 7.98975 0.671932 7.51462 0.497726 6.94108C0.406946 6.64221 0.4032 6.52583 0.416062 4.40376C0.429472 2.19129 0.430118 2.17826 0.540022 1.90577C0.760897 1.35813 1.23224 0.925348 1.79818 0.750548C2.09953 0.657471 2.21866 0.65625 10.9999 0.65625C19.781 0.65625 19.9002 0.657471 20.2015 0.750548C20.7675 0.925348 21.2388 1.35813 21.4597 1.90577C21.5696 2.17826 21.5702 2.19129 21.5836 4.40376C21.5965 6.52583 21.5928 6.64221 21.502 6.94108C21.3278 7.51462 20.8936 7.98975 20.3441 8.20828C20.0967 8.30665 19.9804 8.31884 19.1444 8.334L18.2186 8.35079V15.6576C18.2186 21.2227 18.2053 22.9936 18.1626 23.0872C18.1318 23.1548 18.0485 23.2402 17.9774 23.277C17.6913 23.4249 17.4861 23.3319 17.2296 22.9382C17.123 22.7745 17.0196 22.6406 16.9999 22.6406C16.9801 22.6406 16.8768 22.7745 16.7701 22.9382C16.6635 23.1018 16.5229 23.26 16.4577 23.2897C16.177 23.4177 15.98 23.3226 15.7296 22.9382C15.623 22.7745 15.5196 22.6406 15.4999 22.6406C15.4801 22.6406 15.3768 22.7745 15.2701 22.9382C14.9121 23.4878 14.5876 23.4878 14.2296 22.9382C14.123 22.7745 14.0196 22.6406 13.9999 22.6406C13.9801 22.6406 13.8768 22.7745 13.7701 22.9382C13.6635 23.1018 13.5229 23.26 13.4577 23.2897C13.177 23.4177 12.98 23.3226 12.7296 22.9382C12.623 22.7745 12.5196 22.6406 12.4999 22.6406C12.4801 22.6406 12.3768 22.7745 12.2701 22.9382C12.1635 23.1018 12.0229 23.26 11.9577 23.2897C11.677 23.4177 11.48 23.3226 11.2296 22.9382C11.123 22.7745 11.0196 22.6406 10.9999 22.6406C10.9801 22.6406 10.8768 22.7745 10.7701 22.9382C10.6635 23.1018 10.5229 23.26 10.4577 23.2897C10.177 23.4177 9.98002 23.3226 9.72958 22.9382C9.62296 22.7745 9.51958 22.6406 9.49986 22.6406C9.48013 22.6406 9.37675 22.7745 9.27013 22.9382C9.1635 23.1018 9.02292 23.26 8.95773 23.2897C8.67698 23.4177 8.48002 23.3226 8.22958 22.9382C8.12296 22.7745 8.01958 22.6406 7.99986 22.6406C7.98013 22.6406 7.87675 22.7745 7.77013 22.9382C7.6635 23.1018 7.52292 23.26 7.45773 23.2897C7.17698 23.4177 6.98002 23.3226 6.72958 22.9382C6.62296 22.7745 6.51958 22.6406 6.49986 22.6406C6.48013 22.6406 6.37675 22.7745 6.27013 22.9382C6.1635 23.1018 6.02292 23.26 5.95773 23.2897C5.67698 23.4177 5.48002 23.3226 5.22958 22.9382C5.12296 22.7745 5.01958 22.6406 4.99986 22.6406C4.98013 22.6406 4.87675 22.7745 4.77013 22.9382C4.51614 23.328 4.293 23.4293 4.02064 23.2783Z" fill="#E7ECF0"/>
<path d="M3.96514 23.1599L3.82812 23.0228V15.664V8.30521L2.87891 8.28932L1.92969 8.27344L1.61453 8.12414C1.17655 7.91666 0.864733 7.61058 0.65121 7.17855L0.476562 6.82517V4.5V2.17483L0.65121 1.82145C0.864733 1.38942 1.17655 1.08334 1.61453 0.875858L1.92969 0.726562H11H20.0703L20.3855 0.875858C20.8235 1.08334 21.1353 1.38942 21.3488 1.82145L21.5234 2.17483V4.5V6.82517L21.3488 7.17855C21.1353 7.61058 20.8235 7.91666 20.3855 8.12414L20.0703 8.27344L19.1211 8.28932L18.1719 8.30521V15.664V23.0228L18.0349 23.1599C17.8821 23.3126 17.6903 23.3389 17.533 23.2288C17.4795 23.1913 17.3458 23.0226 17.2358 22.8538C17.1258 22.685 17.0203 22.5469 17.0014 22.5469C16.9824 22.5469 16.8682 22.6953 16.7475 22.8767C16.3823 23.426 16.135 23.4311 15.7674 22.8969C15.6438 22.7173 15.5235 22.5703 15.5 22.5703C15.4765 22.5703 15.3562 22.7173 15.2326 22.8969C14.865 23.4311 14.6177 23.426 14.2525 22.8767C14.1318 22.6953 14.0182 22.5469 14 22.5469C13.9818 22.5469 13.8682 22.6953 13.7475 22.8767C13.3823 23.426 13.135 23.4311 12.7674 22.8969C12.6438 22.7173 12.5235 22.5703 12.5 22.5703C12.4765 22.5703 12.3562 22.7173 12.2326 22.8969C11.865 23.4311 11.6177 23.426 11.2525 22.8767C11.1318 22.6953 11.0182 22.5469 11 22.5469C10.9818 22.5469 10.8682 22.6953 10.7475 22.8767C10.3823 23.426 10.135 23.4311 9.76744 22.8969C9.64383 22.7173 9.52348 22.5703 9.5 22.5703C9.47652 22.5703 9.35617 22.7173 9.23256 22.8969C8.86495 23.4311 8.6177 23.426 8.25247 22.8767C8.13183 22.6953 8.01822 22.5469 8 22.5469C7.98178 22.5469 7.86817 22.6953 7.74753 22.8767C7.3823 23.426 7.13505 23.4311 6.76744 22.8969C6.64383 22.7173 6.52348 22.5703 6.5 22.5703C6.47652 22.5703 6.35617 22.7173 6.23256 22.8969C5.86495 23.4311 5.6177 23.426 5.25247 22.8767C5.13183 22.6953 5.0176 22.5469 4.99863 22.5469C4.97966 22.5469 4.87416 22.685 4.76419 22.8538C4.65422 23.0226 4.52048 23.1913 4.467 23.2288C4.30974 23.3389 4.11786 23.3126 3.96514 23.1599ZM5.98252 21.7527C6.19815 21.4352 6.32865 21.3281 6.5 21.3281C6.67135 21.3281 6.80185 21.4352 7.01748 21.7527C7.12151 21.9059 7.22614 22.0312 7.25 22.0312C7.27386 22.0312 7.37849 21.9059 7.48252 21.7527C7.69815 21.4352 7.82865 21.3281 8 21.3281C8.17135 21.3281 8.30185 21.4352 8.51748 21.7527C8.62151 21.9059 8.72614 22.0312 8.75 22.0312C8.77386 22.0312 8.87849 21.9059 8.98252 21.7527C9.19815 21.4352 9.32865 21.3281 9.5 21.3281C9.67135 21.3281 9.80185 21.4352 10.0175 21.7527C10.1215 21.9059 10.2261 22.0312 10.25 22.0312C10.2739 22.0312 10.3785 21.9059 10.4825 21.7527C10.6981 21.4352 10.8287 21.3281 11 21.3281C11.1713 21.3281 11.3019 21.4352 11.5175 21.7527C11.6215 21.9059 11.7261 22.0312 11.75 22.0312C11.7739 22.0312 11.8785 21.9059 11.9825 21.7527C12.1981 21.4352 12.3287 21.3281 12.5 21.3281C12.6713 21.3281 12.8019 21.4352 13.0175 21.7527C13.1215 21.9059 13.2261 22.0312 13.25 22.0312C13.2739 22.0312 13.3785 21.9059 13.4825 21.7527C13.6981 21.4352 13.8287 21.3281 14 21.3281C14.1713 21.3281 14.3019 21.4352 14.5175 21.7527C14.6215 21.9059 14.7261 22.0312 14.75 22.0312C14.7739 22.0312 14.8785 21.9059 14.9825 21.7527C15.1981 21.4352 15.3287 21.3281 15.5 21.3281C15.6713 21.3281 15.8019 21.4352 16.0175 21.7527C16.1215 21.9059 16.2261 22.0312 16.25 22.0312C16.2739 22.0312 16.3794 21.9046 16.4845 21.7499C16.7651 21.3366 16.9283 21.2609 17.2461 21.3968C17.324 21.4302 17.3281 21.0496 17.3281 13.7791V6.12622L17.1406 5.95312C16.8808 5.71325 16.8815 5.53613 17.1431 5.29458C17.3284 5.12349 17.3327 5.11245 17.3189 4.84475L17.3047 4.57031H11H4.69531L4.68111 4.84475C4.66725 5.11245 4.67156 5.12349 4.85689 5.29458C5.11854 5.53613 5.11921 5.71325 4.85937 5.95312L4.67187 6.12622V13.7791C4.67187 21.0496 4.67597 21.4302 4.7539 21.3968C5.07165 21.2609 5.23489 21.3366 5.51555 21.7499C5.62064 21.9046 5.72614 22.0312 5.75 22.0312C5.77386 22.0312 5.87849 21.9059 5.98252 21.7527ZM8.84014 20.1599C8.74663 20.0663 8.70312 19.9759 8.70312 19.875C8.70312 19.7741 8.74663 19.6837 8.84014 19.5901L8.97716 19.4531H12.5H16.0228L16.1599 19.5901C16.3441 19.7744 16.3441 19.9756 16.1599 20.1599L16.0228 20.2969H12.5H8.97716L8.84014 20.1599ZM12.149 18.349C11.0416 18.0704 10.1567 17.1656 9.89288 16.042C9.79067 15.6068 9.82477 14.8506 9.96524 14.4375C10.2757 13.5244 11.0106 12.7882 11.9375 12.4615C12.1969 12.37 12.3363 12.354 12.875 12.3535C13.4441 12.3529 13.5424 12.3654 13.8516 12.4778C14.3356 12.6537 14.6698 12.8655 15.0271 13.2229C15.3845 13.5802 15.5963 13.9144 15.7722 14.3984C15.8846 14.7076 15.8971 14.8059 15.8965 15.375C15.896 15.9137 15.88 16.0531 15.7885 16.3125C15.4601 17.2443 14.766 17.9454 13.8516 18.2689C13.4181 18.4222 12.5944 18.461 12.149 18.349ZM6.21514 17.1599C6.12163 17.0663 6.07812 16.9759 6.07812 16.875C6.07812 16.7741 6.12163 16.6837 6.21514 16.5901L6.35216 16.4531H7.25H8.14784L8.28486 16.5901C8.37837 16.6837 8.42188 16.7741 8.42188 16.875C8.42188 16.9759 8.37837 17.0663 8.28486 17.1599L8.14784 17.2969H7.25H6.35216L6.21514 17.1599ZM6.21514 15.6599C6.12163 15.5663 6.07812 15.4759 6.07812 15.375C6.07812 15.2741 6.12163 15.1837 6.21514 15.0901L6.35216 14.9531H7.25H8.14784L8.28486 15.0901C8.37837 15.1837 8.42188 15.2741 8.42188 15.375C8.42188 15.4759 8.37837 15.5663 8.28486 15.6599L8.14784 15.7969H7.25H6.35216L6.21514 15.6599ZM6.21514 14.1599C6.12163 14.0663 6.07812 13.9759 6.07812 13.875C6.07812 13.7741 6.12163 13.6837 6.21514 13.5901L6.35216 13.4531H7.25H8.14784L8.28486 13.5901C8.37837 13.6837 8.42188 13.7741 8.42188 13.875C8.42188 13.9759 8.37837 14.0663 8.28486 14.1599L8.14784 14.2969H7.25H6.35216L6.21514 14.1599ZM6.21514 11.5349C6.12163 11.4413 6.07812 11.3509 6.07812 11.25C6.07812 11.1491 6.12163 11.0587 6.21514 10.9651L6.35216 10.8281H8.75H11.1478L11.2849 10.9651C11.3784 11.0587 11.4219 11.1491 11.4219 11.25C11.4219 11.3509 11.3784 11.4413 11.2849 11.5349L11.1478 11.6719H8.75H6.35216L6.21514 11.5349ZM13.7151 11.5349C13.6216 11.4413 13.5781 11.3509 13.5781 11.25C13.5781 11.1491 13.6216 11.0587 13.7151 10.9651L13.8522 10.8281H14.75H15.6478L15.7849 10.9651C15.8784 11.0587 15.9219 11.1491 15.9219 11.25C15.9219 11.3509 15.8784 11.4413 15.7849 11.5349L15.6478 11.6719H14.75H13.8522L13.7151 11.5349ZM6.21514 10.0349C6.12163 9.94134 6.07812 9.8509 6.07812 9.75C6.07812 9.6491 6.12163 9.55866 6.21514 9.46514L6.35216 9.32812H8.75H11.1478L11.2849 9.46514C11.3784 9.55866 11.4219 9.6491 11.4219 9.75C11.4219 9.8509 11.3784 9.94134 11.2849 10.0349L11.1478 10.1719H8.75H6.35216L6.21514 10.0349ZM13.7151 10.0349C13.6216 9.94134 13.5781 9.8509 13.5781 9.75C13.5781 9.6491 13.6216 9.55866 13.7151 9.46514L13.8522 9.32812H14.75H15.6478L15.7849 9.46514C15.8784 9.55866 15.9219 9.6491 15.9219 9.75C15.9219 9.8509 15.8784 9.94134 15.7849 10.0349L15.6478 10.1719H14.75H13.8522L13.7151 10.0349ZM6.21514 8.53486C6.12163 8.44134 6.07812 8.3509 6.07812 8.25C6.07812 8.1491 6.12163 8.05866 6.21514 7.96514L6.35216 7.82812H8.75H11.1478L11.2849 7.96514C11.3784 8.05866 11.4219 8.1491 11.4219 8.25C11.4219 8.3509 11.3784 8.44134 11.2849 8.53486L11.1478 8.67188H8.75H6.35216L6.21514 8.53486ZM13.7151 8.53486C13.6216 8.44134 13.5781 8.3509 13.5781 8.25C13.5781 8.1491 13.6216 8.05866 13.7151 7.96514L13.8522 7.82812H14.75H15.6478L15.7849 7.96514C15.8784 8.05866 15.9219 8.1491 15.9219 8.25C15.9219 8.3509 15.8784 8.44134 15.7849 8.53486L15.6478 8.67188H14.75H13.8522L13.7151 8.53486ZM5.84014 5.90986C5.74663 5.81634 5.70312 5.7259 5.70312 5.625C5.70312 5.5241 5.74663 5.43366 5.84014 5.34014C5.96605 5.21424 6.00436 5.20312 6.3125 5.20312C6.62064 5.20312 6.65895 5.21424 6.78486 5.34014C6.87837 5.43366 6.92188 5.5241 6.92188 5.625C6.92188 5.7259 6.87837 5.81634 6.78486 5.90986C6.65895 6.03576 6.62064 6.04688 6.3125 6.04688C6.00436 6.04688 5.96605 6.03576 5.84014 5.90986ZM7.71514 5.90986C7.62163 5.81634 7.57812 5.7259 7.57812 5.625C7.57812 5.5241 7.62163 5.43366 7.71514 5.34014C7.84105 5.21424 7.87936 5.20312 8.1875 5.20312C8.49564 5.20312 8.53395 5.21424 8.65986 5.34014C8.75337 5.43366 8.79688 5.5241 8.79688 5.625C8.79688 5.7259 8.75337 5.81634 8.65986 5.90986C8.53395 6.03576 8.49564 6.04688 8.1875 6.04688C7.87936 6.04688 7.84105 6.03576 7.71514 5.90986ZM9.59014 5.90986C9.49663 5.81634 9.45312 5.7259 9.45312 5.625C9.45312 5.5241 9.49663 5.43366 9.59014 5.34014C9.71605 5.21424 9.75436 5.20312 10.0625 5.20312C10.3706 5.20312 10.409 5.21424 10.5349 5.34014C10.6284 5.43366 10.6719 5.5241 10.6719 5.625C10.6719 5.7259 10.6284 5.81634 10.5349 5.90986C10.409 6.03576 10.3706 6.04688 10.0625 6.04688C9.75436 6.04688 9.71605 6.03576 9.59014 5.90986ZM11.4651 5.90986C11.3716 5.81634 11.3281 5.7259 11.3281 5.625C11.3281 5.5241 11.3716 5.43366 11.4651 5.34014C11.591 5.21424 11.6294 5.20312 11.9375 5.20312C12.2456 5.20312 12.284 5.21424 12.4099 5.34014C12.5034 5.43366 12.5469 5.5241 12.5469 5.625C12.5469 5.7259 12.5034 5.81634 12.4099 5.90986C12.284 6.03576 12.2456 6.04688 11.9375 6.04688C11.6294 6.04688 11.591 6.03576 11.4651 5.90986ZM13.3401 5.90986C13.2466 5.81634 13.2031 5.7259 13.2031 5.625C13.2031 5.5241 13.2466 5.43366 13.3401 5.34014C13.466 5.21424 13.5044 5.20312 13.8125 5.20312C14.1206 5.20312 14.159 5.21424 14.2849 5.34014C14.3784 5.43366 14.4219 5.5241 14.4219 5.625C14.4219 5.7259 14.3784 5.81634 14.2849 5.90986C14.159 6.03576 14.1206 6.04688 13.8125 6.04688C13.5044 6.04688 13.466 6.03576 13.3401 5.90986ZM15.2151 5.90986C15.1216 5.81634 15.0781 5.7259 15.0781 5.625C15.0781 5.5241 15.1216 5.43366 15.2151 5.34014C15.341 5.21424 15.3794 5.20312 15.6875 5.20312C15.9956 5.20312 16.034 5.21424 16.1599 5.34014C16.2534 5.43366 16.2969 5.5241 16.2969 5.625C16.2969 5.7259 16.2534 5.81634 16.1599 5.90986C16.034 6.03576 15.9956 6.04688 15.6875 6.04688C15.3794 6.04688 15.341 6.03576 15.2151 5.90986Z" fill="#F6CB37"/>
<path d="M3.96514 23.1599L3.82812 23.0228V15.664V8.30521L2.87891 8.28932L1.92969 8.27344L1.61453 8.12414C1.17655 7.91666 0.864733 7.61058 0.65121 7.17855L0.476562 6.82517V4.5V2.17483L0.65121 1.82145C0.864733 1.38942 1.17655 1.08334 1.61453 0.875858L1.92969 0.726562H11H20.0703L20.3855 0.875858C20.8235 1.08334 21.1353 1.38942 21.3488 1.82145L21.5234 2.17483V4.5V6.82517L21.3488 7.17855C21.1353 7.61058 20.8235 7.91666 20.3855 8.12414L20.0703 8.27344L19.1211 8.28932L18.1719 8.30521V15.664V23.0228L18.0349 23.1599C17.8821 23.3126 17.6903 23.3389 17.533 23.2288C17.4795 23.1913 17.3458 23.0226 17.2358 22.8538C17.1258 22.685 17.0203 22.5469 17.0014 22.5469C16.9824 22.5469 16.8682 22.6953 16.7475 22.8767C16.3823 23.426 16.135 23.4311 15.7674 22.8969C15.6438 22.7173 15.5235 22.5703 15.5 22.5703C15.4765 22.5703 15.3562 22.7173 15.2326 22.8969C14.865 23.4311 14.6177 23.426 14.2525 22.8767C14.1318 22.6953 14.0182 22.5469 14 22.5469C13.9818 22.5469 13.8682 22.6953 13.7475 22.8767C13.3823 23.426 13.135 23.4311 12.7674 22.8969C12.6438 22.7173 12.5235 22.5703 12.5 22.5703C12.4765 22.5703 12.3562 22.7173 12.2326 22.8969C11.865 23.4311 11.6177 23.426 11.2525 22.8767C11.1318 22.6953 11.0182 22.5469 11 22.5469C10.9818 22.5469 10.8682 22.6953 10.7475 22.8767C10.3823 23.426 10.135 23.4311 9.76744 22.8969C9.64383 22.7173 9.52348 22.5703 9.5 22.5703C9.47652 22.5703 9.35617 22.7173 9.23256 22.8969C8.86495 23.4311 8.6177 23.426 8.25247 22.8767C8.13183 22.6953 8.01822 22.5469 8 22.5469C7.98178 22.5469 7.86817 22.6953 7.74753 22.8767C7.3823 23.426 7.13505 23.4311 6.76744 22.8969C6.64383 22.7173 6.52348 22.5703 6.5 22.5703C6.47652 22.5703 6.35617 22.7173 6.23256 22.8969C5.86495 23.4311 5.6177 23.426 5.25247 22.8767C5.13183 22.6953 5.0176 22.5469 4.99863 22.5469C4.97966 22.5469 4.87416 22.685 4.76419 22.8538C4.65422 23.0226 4.52048 23.1913 4.467 23.2288C4.30974 23.3389 4.11786 23.3126 3.96514 23.1599ZM5.98252 21.7527C6.19815 21.4352 6.32865 21.3281 6.5 21.3281C6.67135 21.3281 6.80185 21.4352 7.01748 21.7527C7.12151 21.9059 7.22614 22.0312 7.25 22.0312C7.27386 22.0312 7.37849 21.9059 7.48252 21.7527C7.69815 21.4352 7.82865 21.3281 8 21.3281C8.17135 21.3281 8.30185 21.4352 8.51748 21.7527C8.62151 21.9059 8.72614 22.0312 8.75 22.0312C8.77386 22.0312 8.87849 21.9059 8.98252 21.7527C9.19815 21.4352 9.32865 21.3281 9.5 21.3281C9.67135 21.3281 9.80185 21.4352 10.0175 21.7527C10.1215 21.9059 10.2261 22.0312 10.25 22.0312C10.2739 22.0312 10.3785 21.9059 10.4825 21.7527C10.6981 21.4352 10.8287 21.3281 11 21.3281C11.1713 21.3281 11.3019 21.4352 11.5175 21.7527C11.6215 21.9059 11.7261 22.0312 11.75 22.0312C11.7739 22.0312 11.8785 21.9059 11.9825 21.7527C12.1981 21.4352 12.3287 21.3281 12.5 21.3281C12.6713 21.3281 12.8019 21.4352 13.0175 21.7527C13.1215 21.9059 13.2261 22.0312 13.25 22.0312C13.2739 22.0312 13.3785 21.9059 13.4825 21.7527C13.6981 21.4352 13.8287 21.3281 14 21.3281C14.1713 21.3281 14.3019 21.4352 14.5175 21.7527C14.6215 21.9059 14.7261 22.0312 14.75 22.0312C14.7739 22.0312 14.8785 21.9059 14.9825 21.7527C15.1981 21.4352 15.3287 21.3281 15.5 21.3281C15.6713 21.3281 15.8019 21.4352 16.0175 21.7527C16.1215 21.9059 16.2261 22.0312 16.25 22.0312C16.2739 22.0312 16.3794 21.9046 16.4845 21.7499C16.7651 21.3366 16.9283 21.2609 17.2461 21.3968C17.324 21.4302 17.3281 21.0496 17.3281 13.7791V6.12622L17.1406 5.95312C16.8808 5.71325 16.8815 5.53613 17.1431 5.29458C17.3284 5.12349 17.3327 5.11245 17.3189 4.84475L17.3047 4.57031H11H4.69531L4.68111 4.84475C4.66725 5.11245 4.67156 5.12349 4.85689 5.29458C5.11854 5.53613 5.11921 5.71325 4.85937 5.95312L4.67187 6.12622V13.7791C4.67187 21.0496 4.67597 21.4302 4.7539 21.3968C5.07165 21.2609 5.23489 21.3366 5.51555 21.7499C5.62064 21.9046 5.72614 22.0312 5.75 22.0312C5.77386 22.0312 5.87849 21.9059 5.98252 21.7527ZM8.84014 20.1599C8.74663 20.0663 8.70312 19.9759 8.70312 19.875C8.70312 19.7741 8.74663 19.6837 8.84014 19.5901L8.97716 19.4531H12.5H16.0228L16.1599 19.5901C16.3441 19.7744 16.3441 19.9756 16.1599 20.1599L16.0228 20.2969H12.5H8.97716L8.84014 20.1599ZM12.149 18.349C11.0416 18.0704 10.1567 17.1656 9.89288 16.042C9.79067 15.6068 9.82477 14.8506 9.96524 14.4375C10.2757 13.5244 11.0106 12.7882 11.9375 12.4615C12.1969 12.37 12.3363 12.354 12.875 12.3535C13.4441 12.3529 13.5424 12.3654 13.8516 12.4778C14.3356 12.6537 14.6698 12.8655 15.0271 13.2229C15.3845 13.5802 15.5963 13.9144 15.7722 14.3984C15.8846 14.7076 15.8971 14.8059 15.8965 15.375C15.896 15.9137 15.88 16.0531 15.7885 16.3125C15.4601 17.2443 14.766 17.9454 13.8516 18.2689C13.4181 18.4222 12.5944 18.461 12.149 18.349ZM13.538 17.4861C14.2431 17.2682 14.7741 16.7314 14.9918 16.0166C15.1187 15.6 15.0965 14.968 14.941 14.5657C14.7295 14.0188 14.2309 13.5204 13.6831 13.3086C13.1327 13.0958 12.3651 13.1403 11.8238 13.4164C11.5783 13.5417 11.1145 13.987 10.9663 14.24C10.3584 15.277 10.715 16.6831 11.7379 17.2826C12.2484 17.5817 12.966 17.6628 13.538 17.4861ZM12.418 16.5744C12.1728 16.3254 12.125 16.2505 12.125 16.1154C12.125 15.9478 12.2447 15.7965 12.4294 15.7306C12.5204 15.6982 12.5201 15.6953 12.4159 15.6167C12.214 15.4644 12.1256 15.2747 12.1253 14.993C12.125 14.7566 12.1452 14.7013 12.3125 14.4786C12.4156 14.3414 12.5 14.1953 12.5 14.154C12.5 14.0274 12.7034 13.875 12.8724 13.875C13.0008 13.875 13.0796 13.9268 13.3264 14.1736C13.5781 14.4253 13.625 14.4977 13.625 14.6342C13.625 14.7967 13.4735 15 13.3524 15C13.3219 15 13.2969 15.0316 13.2969 15.0703C13.2969 15.109 13.3172 15.1406 13.3421 15.1406C13.3669 15.1406 13.4407 15.2193 13.5061 15.3156C13.5988 15.452 13.625 15.549 13.625 15.7562C13.625 15.9933 13.6048 16.0487 13.4375 16.2714C13.3344 16.4086 13.25 16.5547 13.25 16.596C13.25 16.7259 13.0467 16.8751 12.872 16.8734C12.7371 16.8721 12.6633 16.8235 12.418 16.5744ZM6.21514 17.1599C6.12163 17.0663 6.07812 16.9759 6.07812 16.875C6.07812 16.7741 6.12163 16.6837 6.21514 16.5901L6.35216 16.4531H7.25H8.14784L8.28486 16.5901C8.37837 16.6837 8.42188 16.7741 8.42188 16.875C8.42188 16.9759 8.37837 17.0663 8.28486 17.1599L8.14784 17.2969H7.25H6.35216L6.21514 17.1599ZM6.21514 15.6599C6.12163 15.5663 6.07812 15.4759 6.07812 15.375C6.07812 15.2741 6.12163 15.1837 6.21514 15.0901L6.35216 14.9531H7.25H8.14784L8.28486 15.0901C8.37837 15.1837 8.42188 15.2741 8.42188 15.375C8.42188 15.4759 8.37837 15.5663 8.28486 15.6599L8.14784 15.7969H7.25H6.35216L6.21514 15.6599ZM6.21514 14.1599C6.12163 14.0663 6.07812 13.9759 6.07812 13.875C6.07812 13.7741 6.12163 13.6837 6.21514 13.5901L6.35216 13.4531H7.25H8.14784L8.28486 13.5901C8.37837 13.6837 8.42188 13.7741 8.42188 13.875C8.42188 13.9759 8.37837 14.0663 8.28486 14.1599L8.14784 14.2969H7.25H6.35216L6.21514 14.1599ZM6.21514 11.5349C6.12163 11.4413 6.07812 11.3509 6.07812 11.25C6.07812 11.1491 6.12163 11.0587 6.21514 10.9651L6.35216 10.8281H8.75H11.1478L11.2849 10.9651C11.3784 11.0587 11.4219 11.1491 11.4219 11.25C11.4219 11.3509 11.3784 11.4413 11.2849 11.5349L11.1478 11.6719H8.75H6.35216L6.21514 11.5349ZM13.7151 11.5349C13.6216 11.4413 13.5781 11.3509 13.5781 11.25C13.5781 11.1491 13.6216 11.0587 13.7151 10.9651L13.8522 10.8281H14.75H15.6478L15.7849 10.9651C15.8784 11.0587 15.9219 11.1491 15.9219 11.25C15.9219 11.3509 15.8784 11.4413 15.7849 11.5349L15.6478 11.6719H14.75H13.8522L13.7151 11.5349ZM6.21514 10.0349C6.12163 9.94134 6.07812 9.8509 6.07812 9.75C6.07812 9.6491 6.12163 9.55866 6.21514 9.46514L6.35216 9.32812H8.75H11.1478L11.2849 9.46514C11.3784 9.55866 11.4219 9.6491 11.4219 9.75C11.4219 9.8509 11.3784 9.94134 11.2849 10.0349L11.1478 10.1719H8.75H6.35216L6.21514 10.0349ZM13.7151 10.0349C13.6216 9.94134 13.5781 9.8509 13.5781 9.75C13.5781 9.6491 13.6216 9.55866 13.7151 9.46514L13.8522 9.32812H14.75H15.6478L15.7849 9.46514C15.8784 9.55866 15.9219 9.6491 15.9219 9.75C15.9219 9.8509 15.8784 9.94134 15.7849 10.0349L15.6478 10.1719H14.75H13.8522L13.7151 10.0349ZM6.21514 8.53486C6.12163 8.44134 6.07812 8.3509 6.07812 8.25C6.07812 8.1491 6.12163 8.05866 6.21514 7.96514L6.35216 7.82812H8.75H11.1478L11.2849 7.96514C11.3784 8.05866 11.4219 8.1491 11.4219 8.25C11.4219 8.3509 11.3784 8.44134 11.2849 8.53486L11.1478 8.67188H8.75H6.35216L6.21514 8.53486ZM13.7151 8.53486C13.6216 8.44134 13.5781 8.3509 13.5781 8.25C13.5781 8.1491 13.6216 8.05866 13.7151 7.96514L13.8522 7.82812H14.75H15.6478L15.7849 7.96514C15.8784 8.05866 15.9219 8.1491 15.9219 8.25C15.9219 8.3509 15.8784 8.44134 15.7849 8.53486L15.6478 8.67188H14.75H13.8522L13.7151 8.53486ZM5.84014 5.90986C5.74663 5.81634 5.70312 5.7259 5.70312 5.625C5.70312 5.5241 5.74663 5.43366 5.84014 5.34014C5.96605 5.21424 6.00436 5.20312 6.3125 5.20312C6.62064 5.20312 6.65895 5.21424 6.78486 5.34014C6.87837 5.43366 6.92188 5.5241 6.92188 5.625C6.92188 5.7259 6.87837 5.81634 6.78486 5.90986C6.65895 6.03576 6.62064 6.04688 6.3125 6.04688C6.00436 6.04688 5.96605 6.03576 5.84014 5.90986ZM7.71514 5.90986C7.62163 5.81634 7.57812 5.7259 7.57812 5.625C7.57812 5.5241 7.62163 5.43366 7.71514 5.34014C7.84105 5.21424 7.87936 5.20312 8.1875 5.20312C8.49564 5.20312 8.53395 5.21424 8.65986 5.34014C8.75337 5.43366 8.79688 5.5241 8.79688 5.625C8.79688 5.7259 8.75337 5.81634 8.65986 5.90986C8.53395 6.03576 8.49564 6.04688 8.1875 6.04688C7.87936 6.04688 7.84105 6.03576 7.71514 5.90986ZM9.59014 5.90986C9.49663 5.81634 9.45312 5.7259 9.45312 5.625C9.45312 5.5241 9.49663 5.43366 9.59014 5.34014C9.71605 5.21424 9.75436 5.20312 10.0625 5.20312C10.3706 5.20312 10.409 5.21424 10.5349 5.34014C10.6284 5.43366 10.6719 5.5241 10.6719 5.625C10.6719 5.7259 10.6284 5.81634 10.5349 5.90986C10.409 6.03576 10.3706 6.04688 10.0625 6.04688C9.75436 6.04688 9.71605 6.03576 9.59014 5.90986ZM11.4651 5.90986C11.3716 5.81634 11.3281 5.7259 11.3281 5.625C11.3281 5.5241 11.3716 5.43366 11.4651 5.34014C11.591 5.21424 11.6294 5.20312 11.9375 5.20312C12.2456 5.20312 12.284 5.21424 12.4099 5.34014C12.5034 5.43366 12.5469 5.5241 12.5469 5.625C12.5469 5.7259 12.5034 5.81634 12.4099 5.90986C12.284 6.03576 12.2456 6.04688 11.9375 6.04688C11.6294 6.04688 11.591 6.03576 11.4651 5.90986ZM13.3401 5.90986C13.2466 5.81634 13.2031 5.7259 13.2031 5.625C13.2031 5.5241 13.2466 5.43366 13.3401 5.34014C13.466 5.21424 13.5044 5.20312 13.8125 5.20312C14.1206 5.20312 14.159 5.21424 14.2849 5.34014C14.3784 5.43366 14.4219 5.5241 14.4219 5.625C14.4219 5.7259 14.3784 5.81634 14.2849 5.90986C14.159 6.03576 14.1206 6.04688 13.8125 6.04688C13.5044 6.04688 13.466 6.03576 13.3401 5.90986ZM15.2151 5.90986C15.1216 5.81634 15.0781 5.7259 15.0781 5.625C15.0781 5.5241 15.1216 5.43366 15.2151 5.34014C15.341 5.21424 15.3794 5.20312 15.6875 5.20312C15.9956 5.20312 16.034 5.21424 16.1599 5.34014C16.2534 5.43366 16.2969 5.5241 16.2969 5.625C16.2969 5.7259 16.2534 5.81634 16.1599 5.90986C16.034 6.03576 15.9956 6.04688 15.6875 6.04688C15.3794 6.04688 15.341 6.03576 15.2151 5.90986Z" fill="#9EA0A2"/>
<path d="M4.0091 23.1604L3.89844 23.0708L3.875 15.6721L3.85156 8.27344L2.89062 8.24814C2.02504 8.22536 1.90178 8.21183 1.64844 8.1118C1.26051 7.95865 0.793109 7.4921 0.636338 7.10156L0.523438 6.82031V4.47656V2.13281L0.675754 1.82148C0.868661 1.42718 1.27759 1.03664 1.65854 0.882881L1.92969 0.773438H11.0234H20.1172L20.4285 0.925754C20.8228 1.11866 21.2134 1.52759 21.3671 1.90854L21.4766 2.17969V4.5V6.82031L21.3637 7.10156C21.2069 7.4921 20.7395 7.95865 20.3516 8.1118C20.0982 8.21183 19.975 8.22536 19.1094 8.24814L18.1484 8.27344L18.125 15.6721L18.1016 23.0708L17.9909 23.1604C17.8592 23.2671 17.6674 23.2761 17.533 23.1819C17.4795 23.1444 17.3453 22.9749 17.2347 22.8052C17.1241 22.6355 17.0163 22.5026 16.9952 22.51C16.9741 22.5174 16.8558 22.6706 16.7323 22.8505C16.3634 23.3879 16.1368 23.3879 15.7674 22.8505C15.6438 22.6706 15.5235 22.5234 15.5 22.5234C15.4765 22.5234 15.3562 22.6706 15.2326 22.8505C15.0923 23.0546 14.9593 23.1946 14.8789 23.2228C14.6623 23.2989 14.5132 23.2081 14.2674 22.8505C14.1438 22.6706 14.0235 22.5234 14 22.5234C13.9765 22.5234 13.8562 22.6706 13.7326 22.8505C13.4868 23.2081 13.3377 23.2989 13.1211 23.2228C13.0407 23.1946 12.9077 23.0546 12.7674 22.8505C12.6438 22.6706 12.5235 22.5234 12.5 22.5234C12.4765 22.5234 12.3562 22.6706 12.2326 22.8505C11.9868 23.2081 11.8377 23.2989 11.6211 23.2228C11.5407 23.1946 11.4077 23.0546 11.2674 22.8505C11.1438 22.6706 11.0235 22.5234 11 22.5234C10.9765 22.5234 10.8562 22.6706 10.7326 22.8505C10.5923 23.0546 10.4593 23.1946 10.3789 23.2228C10.1623 23.2989 10.0132 23.2081 9.76744 22.8505C9.64383 22.6706 9.52348 22.5234 9.5 22.5234C9.47652 22.5234 9.35617 22.6706 9.23256 22.8505C8.86326 23.3879 8.63674 23.3879 8.26744 22.8505C8.14383 22.6706 8.02348 22.5234 8 22.5234C7.97652 22.5234 7.85617 22.6706 7.73256 22.8505C7.59232 23.0546 7.45934 23.1946 7.37891 23.2228C7.16228 23.2989 7.01321 23.2081 6.76744 22.8505C6.64383 22.6706 6.52348 22.5234 6.5 22.5234C6.47652 22.5234 6.35617 22.6706 6.23256 22.8505C6.09232 23.0546 5.95934 23.1946 5.87891 23.2228C5.66221 23.2989 5.5132 23.2082 5.26771 22.8505C5.14425 22.6706 5.02593 22.5174 5.00479 22.51C4.98365 22.5026 4.87588 22.6355 4.7653 22.8052C4.65472 22.9749 4.52048 23.1444 4.467 23.1819C4.33256 23.2761 4.14082 23.2671 4.0091 23.1604ZM6.01771 21.7745C6.2632 21.4168 6.41221 21.3261 6.62891 21.4022C6.70934 21.4304 6.84232 21.5704 6.98256 21.7745C7.10617 21.9544 7.22652 22.1016 7.25 22.1016C7.27348 22.1016 7.39383 21.9544 7.51744 21.7745C7.76321 21.4169 7.91228 21.3261 8.12891 21.4022C8.20934 21.4304 8.34232 21.5704 8.48256 21.7745C8.60617 21.9544 8.72652 22.1016 8.75 22.1016C8.77348 22.1016 8.89383 21.9544 9.01744 21.7745C9.15768 21.5704 9.29066 21.4304 9.37109 21.4022C9.58772 21.3261 9.73679 21.4169 9.98256 21.7745C10.1062 21.9544 10.2265 22.1016 10.25 22.1016C10.2735 22.1016 10.3938 21.9544 10.5174 21.7745C10.8867 21.2371 11.1133 21.2371 11.4826 21.7745C11.6062 21.9544 11.7265 22.1016 11.75 22.1016C11.7735 22.1016 11.8938 21.9544 12.0174 21.7745C12.3867 21.2371 12.6133 21.2371 12.9826 21.7745C13.1062 21.9544 13.2265 22.1016 13.25 22.1016C13.2735 22.1016 13.3938 21.9544 13.5174 21.7745C13.6577 21.5704 13.7907 21.4304 13.8711 21.4022C14.0877 21.3261 14.2368 21.4169 14.4826 21.7745C14.6062 21.9544 14.7265 22.1016 14.75 22.1016C14.7735 22.1016 14.8938 21.9544 15.0174 21.7745C15.3867 21.2371 15.6133 21.2371 15.9826 21.7745C16.1062 21.9544 16.2265 22.1016 16.25 22.1016C16.2735 22.1016 16.3938 21.9544 16.5174 21.7745C16.7712 21.4053 16.9151 21.3224 17.1492 21.4108C17.2294 21.441 17.313 21.4547 17.335 21.4411C17.357 21.4275 17.375 17.9696 17.375 13.7569C17.375 6.80184 17.3681 6.09189 17.3002 6.037C17.059 5.842 17 5.76107 17 5.625C17 5.48894 17.059 5.408 17.3002 5.213C17.3911 5.13955 17.4051 4.64261 17.3187 4.55625C17.237 4.47452 4.76298 4.47452 4.68125 4.55625C4.59489 4.64261 4.60891 5.13955 4.69977 5.213C5.11291 5.54694 5.11291 5.70306 4.69977 6.037C4.63188 6.09189 4.625 6.80184 4.625 13.7569C4.625 17.9696 4.643 21.4275 4.66501 21.4411C4.68701 21.4547 4.77063 21.441 4.85082 21.4108C5.0878 21.3213 5.22875 21.4043 5.48961 21.7868C5.6171 21.9738 5.73757 22.1211 5.75732 22.1141C5.77707 22.1072 5.89425 21.9544 6.01771 21.7745ZM8.86506 20.1349C8.79253 20.0624 8.75 19.9663 8.75 19.875C8.75 19.7837 8.79253 19.6876 8.86506 19.6151L8.98011 19.5H12.5H16.0199L16.1349 19.6151C16.2872 19.7673 16.2872 19.9827 16.1349 20.1349L16.0199 20.25H12.5H8.98011L8.86506 20.1349ZM12.1516 18.2999C11.6134 18.1698 11.1999 17.9288 10.7605 17.4895C10.145 16.874 9.87718 16.2326 9.87569 15.3708C9.8743 14.5622 10.1526 13.8801 10.7262 13.2859C11.6418 12.3376 13.0132 12.104 14.2337 12.6883C14.7291 12.9256 15.3244 13.5209 15.5617 14.0163C15.78 14.4723 15.8736 14.8801 15.8736 15.375C15.8736 15.8699 15.78 16.2777 15.5617 16.7337C15.4312 17.006 15.3015 17.1775 14.9895 17.4895C14.5429 17.9361 14.1356 18.1704 13.5774 18.302C13.2018 18.3905 12.522 18.3895 12.1516 18.2999V18.2999ZM13.538 17.4861C14.2431 17.2682 14.7741 16.7314 14.9918 16.0166C15.1187 15.6 15.0965 14.968 14.941 14.5657C14.7295 14.0188 14.2309 13.5204 13.6831 13.3086C13.1327 13.0958 12.3651 13.1403 11.8238 13.4164C11.5783 13.5417 11.1145 13.987 10.9663 14.24C10.3584 15.277 10.715 16.6831 11.7379 17.2826C12.2484 17.5817 12.966 17.6628 13.538 17.4861ZM12.418 16.5744C12.1728 16.3254 12.125 16.2505 12.125 16.1154C12.125 15.9478 12.2447 15.7965 12.4294 15.7306C12.5204 15.6982 12.5201 15.6953 12.4159 15.6167C12.214 15.4644 12.1256 15.2747 12.1253 14.993C12.125 14.7566 12.1452 14.7013 12.3125 14.4786C12.4156 14.3414 12.5 14.1953 12.5 14.154C12.5 14.0274 12.7034 13.875 12.8724 13.875C13.0008 13.875 13.0796 13.9268 13.3264 14.1736C13.5781 14.4253 13.625 14.4977 13.625 14.6342C13.625 14.7967 13.4735 15 13.3524 15C13.3219 15 13.2969 15.0316 13.2969 15.0703C13.2969 15.109 13.3172 15.1406 13.3421 15.1406C13.3669 15.1406 13.4407 15.2193 13.5061 15.3156C13.5988 15.452 13.625 15.549 13.625 15.7562C13.625 15.9933 13.6048 16.0487 13.4375 16.2714C13.3344 16.4086 13.25 16.5547 13.25 16.596C13.25 16.7259 13.0467 16.8751 12.872 16.8734C12.7371 16.8721 12.6633 16.8235 12.418 16.5744ZM6.24006 17.1349C6.16753 17.0624 6.125 16.9663 6.125 16.875C6.125 16.7837 6.16753 16.6876 6.24006 16.6151C6.35418 16.5009 6.36237 16.5 7.25 16.5C8.13763 16.5 8.14582 16.5009 8.25994 16.6151C8.33247 16.6876 8.375 16.7837 8.375 16.875C8.375 16.9663 8.33247 17.0624 8.25994 17.1349C8.14582 17.2491 8.13763 17.25 7.25 17.25C6.36237 17.25 6.35418 17.2491 6.24006 17.1349ZM6.24006 15.6349C6.16753 15.5624 6.125 15.4663 6.125 15.375C6.125 15.2837 6.16753 15.1876 6.24006 15.1151C6.35418 15.0009 6.36237 15 7.25 15C8.13763 15 8.14582 15.0009 8.25994 15.1151C8.33247 15.1876 8.375 15.2837 8.375 15.375C8.375 15.4663 8.33247 15.5624 8.25994 15.6349C8.14582 15.7491 8.13763 15.75 7.25 15.75C6.36237 15.75 6.35418 15.7491 6.24006 15.6349ZM6.24006 14.1349C6.16753 14.0624 6.125 13.9663 6.125 13.875C6.125 13.7837 6.16753 13.6876 6.24006 13.6151C6.35418 13.5009 6.36237 13.5 7.25 13.5C8.13763 13.5 8.14582 13.5009 8.25994 13.6151C8.33247 13.6876 8.375 13.7837 8.375 13.875C8.375 13.9663 8.33247 14.0624 8.25994 14.1349C8.14582 14.2491 8.13763 14.25 7.25 14.25C6.36237 14.25 6.35418 14.2491 6.24006 14.1349ZM6.24006 11.5099C6.16753 11.4374 6.125 11.3413 6.125 11.25C6.125 11.1587 6.16753 11.0626 6.24006 10.9901L6.35511 10.875H8.75H11.1449L11.2599 10.9901C11.3325 11.0626 11.375 11.1587 11.375 11.25C11.375 11.3413 11.3325 11.4374 11.2599 11.5099L11.1449 11.625H8.75H6.35511L6.24006 11.5099ZM13.7401 11.5099C13.6675 11.4374 13.625 11.3413 13.625 11.25C13.625 11.1587 13.6675 11.0626 13.7401 10.9901C13.8542 10.8759 13.8624 10.875 14.75 10.875C15.6376 10.875 15.6458 10.8759 15.7599 10.9901C15.8325 11.0626 15.875 11.1587 15.875 11.25C15.875 11.3413 15.8325 11.4374 15.7599 11.5099C15.6458 11.6241 15.6376 11.625 14.75 11.625C13.8624 11.625 13.8542 11.6241 13.7401 11.5099ZM6.24006 10.0099C6.16753 9.93742 6.125 9.84133 6.125 9.75C6.125 9.65867 6.16753 9.56258 6.24006 9.49006L6.35511 9.375H8.75H11.1449L11.2599 9.49006C11.3325 9.56258 11.375 9.65867 11.375 9.75C11.375 9.84133 11.3325 9.93742 11.2599 10.0099L11.1449 10.125H8.75H6.35511L6.24006 10.0099ZM13.7401 10.0099C13.6675 9.93742 13.625 9.84133 13.625 9.75C13.625 9.65867 13.6675 9.56258 13.7401 9.49006C13.8542 9.37593 13.8624 9.375 14.75 9.375C15.6376 9.375 15.6458 9.37593 15.7599 9.49006C15.8325 9.56258 15.875 9.65867 15.875 9.75C15.875 9.84133 15.8325 9.93742 15.7599 10.0099C15.6458 10.1241 15.6376 10.125 14.75 10.125C13.8624 10.125 13.8542 10.1241 13.7401 10.0099ZM6.24006 8.50994C6.16753 8.43742 6.125 8.34133 6.125 8.25C6.125 8.15867 6.16753 8.06258 6.24006 7.99006L6.35511 7.875H8.75H11.1449L11.2599 7.99006C11.3325 8.06258 11.375 8.15867 11.375 8.25C11.375 8.34133 11.3325 8.43742 11.2599 8.50994L11.1449 8.625H8.75H6.35511L6.24006 8.50994ZM13.7401 8.50994C13.6675 8.43742 13.625 8.34133 13.625 8.25C13.625 8.15867 13.6675 8.06258 13.7401 7.99006C13.8542 7.87593 13.8624 7.875 14.75 7.875C15.6376 7.875 15.6458 7.87593 15.7599 7.99006C15.8325 8.06258 15.875 8.15867 15.875 8.25C15.875 8.34133 15.8325 8.43742 15.7599 8.50994C15.6458 8.62407 15.6376 8.625 14.75 8.625C13.8624 8.625 13.8542 8.62407 13.7401 8.50994ZM5.86506 5.88494C5.79253 5.81242 5.75 5.71633 5.75 5.625C5.75 5.53367 5.79253 5.43758 5.86506 5.36506C5.96558 5.26453 6.0221 5.25 6.3125 5.25C6.6029 5.25 6.65942 5.26453 6.75994 5.36506C6.83247 5.43758 6.875 5.53367 6.875 5.625C6.875 5.71633 6.83247 5.81242 6.75994 5.88494C6.65942 5.98547 6.6029 6 6.3125 6C6.0221 6 5.96558 5.98547 5.86506 5.88494ZM7.74006 5.88494C7.66753 5.81242 7.625 5.71633 7.625 5.625C7.625 5.53367 7.66753 5.43758 7.74006 5.36506C7.84058 5.26453 7.8971 5.25 8.1875 5.25C8.4779 5.25 8.53442 5.26453 8.63494 5.36506C8.70747 5.43758 8.75 5.53367 8.75 5.625C8.75 5.71633 8.70747 5.81242 8.63494 5.88494C8.53442 5.98547 8.4779 6 8.1875 6C7.8971 6 7.84058 5.98547 7.74006 5.88494ZM9.61506 5.88494C9.54253 5.81242 9.5 5.71633 9.5 5.625C9.5 5.53367 9.54253 5.43758 9.61506 5.36506C9.71558 5.26453 9.7721 5.25 10.0625 5.25C10.3529 5.25 10.4094 5.26453 10.5099 5.36506C10.5825 5.43758 10.625 5.53367 10.625 5.625C10.625 5.71633 10.5825 5.81242 10.5099 5.88494C10.4094 5.98547 10.3529 6 10.0625 6C9.7721 6 9.71558 5.98547 9.61506 5.88494ZM11.4901 5.88494C11.4175 5.81242 11.375 5.71633 11.375 5.625C11.375 5.53367 11.4175 5.43758 11.4901 5.36506C11.5906 5.26453 11.6471 5.25 11.9375 5.25C12.2279 5.25 12.2844 5.26453 12.3849 5.36506C12.4575 5.43758 12.5 5.53367 12.5 5.625C12.5 5.71633 12.4575 5.81242 12.3849 5.88494C12.2844 5.98547 12.2279 6 11.9375 6C11.6471 6 11.5906 5.98547 11.4901 5.88494ZM13.3651 5.88494C13.2925 5.81242 13.25 5.71633 13.25 5.625C13.25 5.53367 13.2925 5.43758 13.3651 5.36506C13.4656 5.26453 13.5221 5.25 13.8125 5.25C14.1029 5.25 14.1594 5.26453 14.2599 5.36506C14.3325 5.43758 14.375 5.53367 14.375 5.625C14.375 5.71633 14.3325 5.81242 14.2599 5.88494C14.1594 5.98547 14.1029 6 13.8125 6C13.5221 6 13.4656 5.98547 13.3651 5.88494ZM15.2401 5.88494C15.1675 5.81242 15.125 5.71633 15.125 5.625C15.125 5.53367 15.1675 5.43758 15.2401 5.36506C15.3406 5.26453 15.3971 5.25 15.6875 5.25C15.9779 5.25 16.0344 5.26453 16.1349 5.36506C16.2075 5.43758 16.25 5.53367 16.25 5.625C16.25 5.71633 16.2075 5.81242 16.1349 5.88494C16.0344 5.98547 15.9779 6 15.6875 6C15.3971 6 15.3406 5.98547 15.2401 5.88494Z" fill="#7C8387"/>
<path d="M4.07701 23.1942C4.0205 23.1669 3.95722 23.1104 3.93638 23.0685C3.91554 23.0267 3.88794 19.6807 3.87505 15.633L3.85162 8.27367L2.91412 8.24735C2.09441 8.22435 1.94333 8.20794 1.71165 8.11679C1.10594 7.87847 0.685491 7.38612 0.552705 6.75964C0.480528 6.41912 0.480574 2.58103 0.552759 2.24082C0.661583 1.72793 1.0443 1.20915 1.4765 0.988654C1.96625 0.7388 1.51035 0.750233 10.9842 0.750233C17.3042 0.750233 19.8306 0.764987 20.0095 0.802938C20.7267 0.955128 21.2952 1.52355 21.4473 2.24082C21.4817 2.40286 21.5001 3.19391 21.5001 4.51613C21.5001 6.67369 21.4862 6.83353 21.2616 7.27379C21.0715 7.64649 20.6162 8.01857 20.1655 8.1697C20.0874 8.19588 19.6016 8.22998 19.086 8.24548L18.1485 8.27367L18.1251 15.633C18.1122 19.6807 18.0843 23.0274 18.0631 23.0702C18.0419 23.1129 17.9628 23.1735 17.8873 23.2048C17.6748 23.2928 17.5241 23.2011 17.2671 22.8275C17.1433 22.6475 17.0228 22.5002 16.9993 22.5002C16.9759 22.5002 16.8721 22.6248 16.7686 22.7771C16.5631 23.0797 16.3763 23.2502 16.2501 23.2502C16.1239 23.2502 15.937 23.0797 15.7315 22.7771C15.6281 22.6248 15.5239 22.5002 15.5001 22.5002C15.4762 22.5002 15.3721 22.6248 15.2686 22.7771C15.0631 23.0797 14.8763 23.2502 14.7501 23.2502C14.6239 23.2502 14.437 23.0797 14.2315 22.7771C14.1281 22.6248 14.0239 22.5002 14.0001 22.5002C13.9762 22.5002 13.8721 22.6248 13.7686 22.7771C13.5631 23.0797 13.3763 23.2502 13.2501 23.2502C13.1239 23.2502 12.937 23.0797 12.7315 22.7771C12.6281 22.6248 12.5239 22.5002 12.5001 22.5002C12.4762 22.5002 12.3721 22.6248 12.2686 22.7771C12.0631 23.0797 11.8763 23.2502 11.7501 23.2502C11.6239 23.2502 11.437 23.0797 11.2315 22.7771C11.1281 22.6248 11.0239 22.5002 11.0001 22.5002C10.9762 22.5002 10.8721 22.6248 10.7686 22.7771C10.5631 23.0797 10.3763 23.2502 10.2501 23.2502C10.1239 23.2502 9.93697 23.0797 9.73147 22.7771C9.62805 22.6248 9.52391 22.5002 9.50005 22.5002C9.47619 22.5002 9.37206 22.6248 9.26864 22.7771C9.06314 23.0797 8.87625 23.2502 8.75005 23.2502C8.62386 23.2502 8.43697 23.0797 8.23147 22.7771C8.12805 22.6248 8.02391 22.5002 8.00005 22.5002C7.97619 22.5002 7.87206 22.6248 7.76864 22.7771C7.56314 23.0797 7.37625 23.2502 7.25005 23.2502C7.12386 23.2502 6.93697 23.0797 6.73147 22.7771C6.62805 22.6248 6.52391 22.5002 6.50005 22.5002C6.47619 22.5002 6.37206 22.6248 6.26864 22.7771C6.06314 23.0797 5.87625 23.2502 5.75005 23.2502C5.62386 23.2502 5.43697 23.0797 5.23147 22.7771C5.12805 22.6248 5.02425 22.5002 5.0008 22.5002C4.97735 22.5002 4.8574 22.6467 4.73424 22.8256C4.45697 23.2285 4.31392 23.3087 4.07701 23.1942ZM6.01018 21.8034C6.28786 21.3858 6.50053 21.2819 6.71628 21.4583C6.77074 21.5029 6.90337 21.6711 7.01099 21.8323C7.11862 21.9934 7.22681 22.1252 7.25143 22.1252C7.27604 22.1252 7.39248 21.9804 7.51018 21.8034C7.78787 21.3858 8.00053 21.2819 8.21628 21.4583C8.27074 21.5029 8.40337 21.6711 8.51099 21.8323C8.61862 21.9934 8.72681 22.1252 8.75143 22.1252C8.77604 22.1252 8.89248 21.9804 9.01018 21.8034C9.28787 21.3858 9.50053 21.2819 9.71628 21.4583C9.77074 21.5029 9.90337 21.6711 10.011 21.8323C10.1186 21.9934 10.2268 22.1252 10.2514 22.1252C10.276 22.1252 10.3925 21.9804 10.5102 21.8034C10.7879 21.3858 11.0005 21.2819 11.2163 21.4583C11.2707 21.5029 11.4034 21.6711 11.511 21.8323C11.6186 21.9934 11.7268 22.1252 11.7514 22.1252C11.776 22.1252 11.8925 21.9804 12.0102 21.8034C12.2879 21.3858 12.5005 21.2819 12.7163 21.4583C12.7707 21.5029 12.9034 21.6711 13.011 21.8323C13.1186 21.9934 13.2268 22.1252 13.2514 22.1252C13.276 22.1252 13.3925 21.9804 13.5102 21.8034C13.7879 21.3858 14.0005 21.2819 14.2163 21.4583C14.2707 21.5029 14.4034 21.6711 14.511 21.8323C14.6186 21.9934 14.7268 22.1252 14.7514 22.1252C14.776 22.1252 14.8925 21.9804 15.0102 21.8034C15.2879 21.3858 15.5005 21.2819 15.7163 21.4583C15.7707 21.5029 15.9034 21.6711 16.011 21.8323C16.1186 21.9934 16.2268 22.1252 16.2514 22.1252C16.276 22.1252 16.3925 21.9804 16.5102 21.8034C16.7823 21.3943 16.9949 21.2857 17.2082 21.447C17.2583 21.4849 17.3163 21.5159 17.3371 21.5159C17.358 21.5159 17.3751 18.0378 17.3751 13.7869V6.05789L17.2461 5.97399C17.0732 5.86143 17.0033 5.76427 17.0015 5.63387C16.9994 5.47495 17.0779 5.3546 17.2378 5.27191C17.3774 5.19976 17.3789 5.19479 17.3653 4.86127L17.3516 4.52367H11.0001H4.64849L4.63485 4.85687C4.62177 5.17652 4.62653 5.19352 4.75204 5.27522C4.93042 5.39133 4.99707 5.48654 4.99707 5.62523C4.99707 5.76353 4.93043 5.85913 4.75396 5.97399L4.62505 6.05789V13.7919C4.62505 21.1394 4.62916 21.5242 4.70709 21.4917C5.02236 21.3602 5.04238 21.357 5.15904 21.4194C5.22353 21.4539 5.37252 21.6268 5.49012 21.8037C5.60771 21.9805 5.72468 22.1252 5.75005 22.1252C5.77542 22.1252 5.89248 21.9804 6.01018 21.8034ZM8.87363 20.1267C8.71468 19.9677 8.71137 19.769 8.86511 19.6153L8.98017 19.5002H12.4915H16.0029L16.1265 19.6238C16.2866 19.784 16.2866 19.9665 16.1265 20.1267L16.0029 20.2502H12.5001H8.99721L8.87363 20.1267ZM12.2188 18.3023C11.1235 18.0671 10.1761 17.111 9.94534 16.008C9.55579 14.1463 10.9834 12.3769 12.8751 12.3769C14.2639 12.3769 15.5224 13.393 15.8048 14.7424C16.2521 16.8802 14.3569 18.7616 12.2188 18.3023ZM13.5381 17.4863C14.2431 17.2684 14.7741 16.7316 14.9918 16.0168C15.1187 15.6002 15.0966 14.9683 14.941 14.566C14.7296 14.019 14.2309 13.5206 13.6832 13.3088C13.1328 13.096 12.3652 13.1405 11.8239 13.4167C11.5783 13.5419 11.1146 13.9873 10.9663 14.2402C10.3584 15.2772 10.715 16.6833 11.738 17.2828C12.2484 17.5819 12.9661 17.6631 13.5381 17.4863ZM12.418 16.5746C12.1729 16.3257 12.1251 16.2507 12.1251 16.1156C12.1251 15.948 12.2447 15.7968 12.4294 15.7309C12.5205 15.6984 12.5202 15.6955 12.416 15.6169C12.2141 15.4646 12.1257 15.2749 12.1254 14.9932C12.1251 14.7569 12.1452 14.7016 12.3126 14.4789C12.4157 14.3416 12.5001 14.1955 12.5001 14.1542C12.5001 14.0276 12.7035 13.8752 12.8724 13.8752C13.0009 13.8752 13.0796 13.927 13.3264 14.1738C13.5781 14.4255 13.6251 14.4979 13.6251 14.6344C13.6251 14.7969 13.4736 15.0002 13.3525 15.0002C13.3219 15.0002 13.2969 15.0319 13.2969 15.0705C13.2969 15.1092 13.3173 15.1409 13.3421 15.1409C13.367 15.1409 13.4408 15.2196 13.5062 15.3158C13.5989 15.4522 13.6251 15.5493 13.6251 15.7564C13.6251 15.9935 13.6049 16.0489 13.4376 16.2716C13.3344 16.4089 13.2501 16.555 13.2501 16.5963C13.2501 16.7262 13.0467 16.8754 12.872 16.8737C12.7372 16.8724 12.6634 16.8238 12.418 16.5746ZM6.24863 17.1267C6.08968 16.9677 6.08637 16.769 6.24011 16.6153C6.35416 16.5012 6.36295 16.5002 7.24153 16.5002H8.1279L8.25148 16.6238C8.32458 16.6969 8.37505 16.7996 8.37505 16.8752C8.37505 16.9509 8.32458 17.0535 8.25148 17.1267L8.1279 17.2502H7.25005H6.37221L6.24863 17.1267ZM6.24863 15.6267C6.08968 15.4677 6.08637 15.269 6.24011 15.1153C6.35416 15.0012 6.36295 15.0002 7.24153 15.0002H8.1279L8.25148 15.1238C8.32458 15.1969 8.37505 15.2996 8.37505 15.3752C8.37505 15.4509 8.32458 15.5535 8.25148 15.6267L8.1279 15.7502H7.25005H6.37221L6.24863 15.6267ZM6.24863 14.1267C6.08968 13.9677 6.08637 13.769 6.24011 13.6153C6.35416 13.5012 6.36295 13.5002 7.24153 13.5002H8.1279L8.25148 13.6238C8.32458 13.6969 8.37505 13.7996 8.37505 13.8752C8.37505 13.9509 8.32458 14.0535 8.25148 14.1267L8.1279 14.2502H7.25005H6.37221L6.24863 14.1267ZM6.24863 11.5017C6.08968 11.3427 6.08637 11.144 6.24011 10.9903L6.35517 10.8752H8.74153H11.1279L11.2515 10.9988C11.3246 11.0719 11.3751 11.1746 11.3751 11.2502C11.3751 11.3259 11.3246 11.4285 11.2515 11.5017L11.1279 11.6252H8.75005H6.37221L6.24863 11.5017ZM13.7486 11.5017C13.5897 11.3427 13.5864 11.144 13.7401 10.9903C13.8542 10.8762 13.863 10.8752 14.7415 10.8752H15.6279L15.7515 10.9988C15.9116 11.159 15.9116 11.3415 15.7515 11.5017L15.6279 11.6252H14.7501H13.8722L13.7486 11.5017ZM6.24863 10.0017C6.08968 9.84271 6.08637 9.64403 6.24011 9.49029L6.35517 9.37523H8.74153H11.1279L11.2515 9.49881C11.3246 9.57192 11.3751 9.67461 11.3751 9.75023C11.3751 9.82586 11.3246 9.92855 11.2515 10.0017L11.1279 10.1252H8.75005H6.37221L6.24863 10.0017ZM13.7486 10.0017C13.5897 9.84271 13.5864 9.64403 13.7401 9.49029C13.8542 9.37624 13.863 9.37523 14.7415 9.37523H15.6279L15.7515 9.49881C15.9116 9.65898 15.9116 9.84149 15.7515 10.0017L15.6279 10.1252H14.7501H13.8722L13.7486 10.0017ZM6.24863 8.50165C6.08968 8.34271 6.08637 8.14403 6.24011 7.99029L6.35517 7.87523H8.74153H11.1279L11.2515 7.99881C11.3246 8.07192 11.3751 8.17461 11.3751 8.25023C11.3751 8.32586 11.3246 8.42855 11.2515 8.50165L11.1279 8.62523H8.75005H6.37221L6.24863 8.50165ZM13.7486 8.50165C13.5897 8.34271 13.5864 8.14403 13.7401 7.99029C13.8542 7.87624 13.863 7.87523 14.7415 7.87523H15.6279L15.7515 7.99881C15.9116 8.15898 15.9116 8.34149 15.7515 8.50165L15.6279 8.62523H14.7501H13.8722L13.7486 8.50165ZM5.87363 5.87665C5.71468 5.71771 5.71137 5.51903 5.86511 5.36529C5.96507 5.26534 6.02268 5.25023 6.30403 5.25023C6.59145 5.25023 6.6418 5.26414 6.75148 5.37381C6.82458 5.44692 6.87505 5.54961 6.87505 5.62523C6.87505 5.70086 6.82458 5.80355 6.75148 5.87665C6.64245 5.98568 6.59077 6.00023 6.31255 6.00023C6.03434 6.00023 5.98266 5.98568 5.87363 5.87665ZM7.74863 5.87665C7.58968 5.71771 7.58637 5.51903 7.74011 5.36529C7.84007 5.26534 7.89768 5.25023 8.17903 5.25023C8.46645 5.25023 8.5168 5.26414 8.62648 5.37381C8.69958 5.44692 8.75005 5.54961 8.75005 5.62523C8.75005 5.70086 8.69958 5.80355 8.62648 5.87665C8.51745 5.98568 8.46577 6.00023 8.18755 6.00023C7.90934 6.00023 7.85766 5.98568 7.74863 5.87665ZM9.62363 5.87665C9.46468 5.71771 9.46137 5.51903 9.61511 5.36529C9.71507 5.26534 9.77268 5.25023 10.054 5.25023C10.3415 5.25023 10.3918 5.26414 10.5015 5.37381C10.5746 5.44692 10.6251 5.54961 10.6251 5.62523C10.6251 5.70086 10.5746 5.80355 10.5015 5.87665C10.3924 5.98568 10.3408 6.00023 10.0626 6.00023C9.78434 6.00023 9.73266 5.98568 9.62363 5.87665ZM11.4986 5.87665C11.3397 5.71771 11.3364 5.51903 11.4901 5.36529C11.5901 5.26534 11.6477 5.25023 11.929 5.25023C12.2165 5.25023 12.2668 5.26414 12.3765 5.37381C12.4496 5.44692 12.5001 5.54961 12.5001 5.62523C12.5001 5.70086 12.4496 5.80355 12.3765 5.87665C12.2674 5.98568 12.2158 6.00023 11.9376 6.00023C11.6593 6.00023 11.6077 5.98568 11.4986 5.87665ZM13.3736 5.87665C13.2147 5.71771 13.2114 5.51903 13.3651 5.36529C13.4651 5.26534 13.5227 5.25023 13.804 5.25023C14.0915 5.25023 14.1418 5.26414 14.2515 5.37381C14.3246 5.44692 14.3751 5.54961 14.3751 5.62523C14.3751 5.70086 14.3246 5.80355 14.2515 5.87665C14.1424 5.98568 14.0908 6.00023 13.8126 6.00023C13.5343 6.00023 13.4827 5.98568 13.3736 5.87665ZM15.2486 5.87665C15.0897 5.71771 15.0864 5.51903 15.2401 5.36529C15.3401 5.26534 15.3977 5.25023 15.679 5.25023C15.9665 5.25023 16.0168 5.26414 16.1265 5.37381C16.1996 5.44692 16.2501 5.54961 16.2501 5.62523C16.2501 5.70086 16.1996 5.80355 16.1265 5.87665C16.0174 5.98568 15.9658 6.00023 15.6876 6.00023C15.4093 6.00023 15.3577 5.98568 15.2486 5.87665ZM3.7813 7.13138V6.85627L3.30084 6.83448C2.63674 6.80437 2.32153 6.63729 2.06917 6.18165C1.9325 5.9349 1.92974 5.91647 1.92974 5.25023C1.92974 4.584 1.9325 4.56556 2.06917 4.31882C2.20981 4.06489 2.35561 3.92797 2.6563 3.76749C2.8147 3.68294 3.10275 3.67992 11.0001 3.67992H19.1797L19.4315 3.81934C19.6854 3.95999 19.8223 4.10579 19.9828 4.40648C20.112 4.64861 20.112 5.85186 19.9828 6.09398C19.822 6.39524 19.6852 6.5406 19.4337 6.67752C19.2162 6.7959 19.1221 6.8161 18.7015 6.83481L18.2188 6.85627V7.13422V7.41217L19.1013 7.39761C19.9752 7.38319 19.9857 7.38179 20.179 7.25374C20.2864 7.18262 20.4324 7.0365 20.5036 6.92904L20.6329 6.73364V5.25023V3.76682L20.5036 3.57143C20.4324 3.46396 20.2863 3.31785 20.1789 3.24673L19.9835 3.11742H11.0001H2.01665L1.82125 3.24673C1.71378 3.31785 1.56767 3.46391 1.49655 3.57132L1.36724 3.7666L1.35258 5.15295C1.34346 6.01571 1.35624 6.60126 1.38641 6.70336C1.45419 6.93266 1.68043 7.19019 1.91697 7.30728C2.09814 7.39695 2.19661 7.40641 2.94927 7.40645L3.7813 7.40648V7.13138Z" fill="#6A6F72"/>
<path d="M3.98963 23.1067C3.90004 23.0077 3.89808 22.8658 3.88616 15.6279L3.87401 8.25003L3.13616 8.24975C2.73034 8.24961 2.27553 8.22937 2.12546 8.20479C1.30581 8.07055 0.679203 7.45239 0.548921 6.64949C0.485524 6.25879 0.485524 2.74125 0.548921 2.35055C0.679203 1.54765 1.30581 0.929487 2.12546 0.795248C2.51276 0.731818 19.5074 0.73547 19.8993 0.799067C20.6947 0.928125 21.3217 1.55508 21.4508 2.35024C21.5143 2.74148 21.5143 6.25856 21.4508 6.6498C21.3217 7.44496 20.6947 8.07191 19.8993 8.20097C19.7355 8.22756 19.2695 8.24947 18.8637 8.24967L18.126 8.25003L18.1137 15.6279C18.1017 22.8657 18.0997 23.0077 18.0101 23.1067C17.9398 23.1844 17.8752 23.2044 17.7294 23.1937C17.5516 23.1806 17.5254 23.1584 17.2981 22.8282C17.1651 22.6348 17.0308 22.4766 16.9999 22.4766C16.9689 22.4766 16.8345 22.6348 16.7013 22.8282C16.4609 23.1769 16.4573 23.1797 16.2499 23.1797C16.0424 23.1797 16.0388 23.1769 15.7985 22.8282C15.6652 22.6348 15.5308 22.4766 15.4999 22.4766C15.4689 22.4766 15.3345 22.6348 15.2013 22.8282C14.9609 23.1769 14.9573 23.1797 14.7499 23.1797C14.5424 23.1797 14.5388 23.1769 14.2985 22.8282C14.1652 22.6348 14.0308 22.4766 13.9999 22.4766C13.9689 22.4766 13.8345 22.6348 13.7013 22.8282C13.4609 23.1769 13.4573 23.1797 13.2499 23.1797C13.0424 23.1797 13.0388 23.1769 12.7985 22.8282C12.6652 22.6348 12.5308 22.4766 12.4999 22.4766C12.4689 22.4766 12.3345 22.6348 12.2013 22.8282C11.9609 23.1769 11.9573 23.1797 11.7499 23.1797C11.5424 23.1797 11.5388 23.1769 11.2985 22.8282C11.1652 22.6348 11.0308 22.4766 10.9999 22.4766C10.9689 22.4766 10.8345 22.6348 10.7013 22.8282C10.4609 23.1769 10.4573 23.1797 10.2499 23.1797C10.0424 23.1797 10.0388 23.1769 9.79847 22.8282C9.66521 22.6348 9.53084 22.4766 9.49987 22.4766C9.46891 22.4766 9.33454 22.6348 9.20128 22.8282C8.96092 23.1769 8.95731 23.1797 8.74987 23.1797C8.54244 23.1797 8.53883 23.1769 8.29847 22.8282C8.16521 22.6348 8.03084 22.4766 7.99987 22.4766C7.96891 22.4766 7.83454 22.6348 7.70128 22.8282C7.46092 23.1769 7.45731 23.1797 7.24987 23.1797C7.04244 23.1797 7.03883 23.1769 6.79847 22.8282C6.66521 22.6348 6.53084 22.4766 6.49987 22.4766C6.46891 22.4766 6.33454 22.6348 6.20128 22.8282C5.96092 23.1769 5.95731 23.1797 5.74987 23.1797C5.54244 23.1797 5.53883 23.1769 5.29847 22.8282C5.16521 22.6348 5.03084 22.4766 4.99987 22.4766C4.96891 22.4766 4.83469 22.6348 4.70161 22.8282C4.47435 23.1584 4.44816 23.1806 4.27031 23.1937C4.12457 23.2044 4.05993 23.1844 3.98963 23.1067ZM6.03112 21.8075C6.27963 21.4372 6.43557 21.3392 6.62878 21.4316C6.69968 21.4655 6.85261 21.6346 6.96862 21.8075C7.08464 21.9803 7.2112 22.1217 7.24987 22.1217C7.28854 22.1217 7.41511 21.9803 7.53112 21.8075C7.89659 21.263 8.10315 21.263 8.46862 21.8075C8.58464 21.9803 8.7112 22.1217 8.74987 22.1217C8.78854 22.1217 8.91511 21.9803 9.03112 21.8075C9.39659 21.263 9.60315 21.263 9.96862 21.8075C10.0846 21.9803 10.2112 22.1217 10.2499 22.1217C10.2885 22.1217 10.4151 21.9803 10.5311 21.8075C10.7796 21.4372 10.9356 21.3392 11.1288 21.4316C11.1997 21.4655 11.3526 21.6346 11.4686 21.8075C11.5846 21.9803 11.7112 22.1217 11.7499 22.1217C11.7885 22.1217 11.9151 21.9803 12.0311 21.8075C12.2796 21.4372 12.4356 21.3392 12.6288 21.4316C12.6997 21.4655 12.8526 21.6346 12.9686 21.8075C13.0846 21.9803 13.2112 22.1217 13.2499 22.1217C13.2885 22.1217 13.4151 21.9803 13.5311 21.8075C13.7796 21.4372 13.9356 21.3392 14.1288 21.4316C14.1997 21.4655 14.3526 21.6346 14.4686 21.8075C14.5846 21.9803 14.7112 22.1217 14.7499 22.1217C14.7885 22.1217 14.9151 21.9803 15.0311 21.8075C15.3966 21.263 15.6032 21.263 15.9686 21.8075C16.0846 21.9803 16.2112 22.1217 16.2499 22.1217C16.2885 22.1217 16.4151 21.9803 16.5311 21.8075C16.7883 21.4243 16.9366 21.3366 17.1486 21.4424C17.2294 21.4827 17.3134 21.5157 17.3352 21.5157C17.357 21.5157 17.3747 18.0299 17.3746 13.7696L17.3743 6.02347L17.2335 5.94337C16.9578 5.78645 16.9578 5.46361 17.2335 5.30669C17.3709 5.22851 17.3743 5.21787 17.3746 4.86331L17.3749 4.50003H10.9999H4.62487L4.62515 4.86331C4.62544 5.21787 4.62883 5.22851 4.7662 5.30669C5.04197 5.46361 5.04197 5.78645 4.7662 5.94337L4.62545 6.02347L4.62517 13.7696C4.62503 18.0299 4.64273 21.5157 4.66455 21.5157C4.68637 21.5157 4.77034 21.4827 4.85115 21.4424C5.06314 21.3366 5.21142 21.4243 5.46862 21.8075C5.58464 21.9803 5.7112 22.1217 5.74987 22.1217C5.78855 22.1217 5.91511 21.9803 6.03112 21.8075H6.03112ZM8.98425 20.1899C8.80715 20.0995 8.72948 19.9069 8.80591 19.7475C8.92779 19.4933 8.82877 19.4995 12.5572 19.512L16.0129 19.5235L16.1158 19.6263C16.2505 19.7611 16.2505 19.9889 16.1158 20.1237L16.0129 20.2266L12.5572 20.2381C9.83083 20.2472 9.0767 20.237 8.98425 20.1899ZM12.4764 18.3309C11.4739 18.1681 10.6668 17.5939 10.2264 16.7303C9.92379 16.137 9.82574 15.4959 9.94023 14.8594C10.1573 13.6526 11.1525 12.6575 12.3592 12.4404C13.8714 12.1684 15.3591 13.1255 15.7612 14.6291C15.8675 15.0265 15.8672 15.7244 15.7605 16.125C15.4285 17.372 14.3389 18.261 13.0369 18.3473C12.8576 18.3592 12.6053 18.3518 12.4764 18.3309H12.4764ZM13.3062 17.5732C14.4704 17.3304 15.2814 16.1763 15.0864 15.0396C14.877 13.8185 13.7489 12.9796 12.5638 13.1639C11.5681 13.3187 10.8185 14.0683 10.6637 15.0639C10.432 16.5544 11.8293 17.8812 13.3062 17.5732ZM12.6266 16.7589C12.5698 16.695 12.4859 16.6054 12.4402 16.5597C12.3945 16.514 12.3049 16.4301 12.241 16.3733C12.0867 16.236 12.0863 16.0187 12.2399 15.8651C12.3032 15.8018 12.3876 15.75 12.4274 15.75C12.5325 15.75 12.5166 15.6883 12.3782 15.559C12.2044 15.3966 12.1249 15.2209 12.1249 14.9993C12.1249 14.7812 12.174 14.6688 12.3661 14.4476C12.4397 14.3629 12.4999 14.2512 12.4999 14.1994C12.4999 14.1476 12.5516 14.0534 12.6149 13.9901C12.7712 13.8338 12.9856 13.8369 13.1295 13.9975C13.268 14.1522 13.3621 14.2463 13.5088 14.3768C13.663 14.5141 13.6635 14.7313 13.5098 14.885C13.4465 14.9483 13.3622 15 13.3223 15C13.2172 15 13.2331 15.0618 13.3715 15.1911C13.707 15.5045 13.7136 15.9282 13.3888 16.2981C13.3124 16.3852 13.2499 16.4988 13.2499 16.5507C13.2499 16.6025 13.1981 16.6967 13.1348 16.76C12.9812 16.9136 12.7639 16.9132 12.6266 16.7589H12.6266ZM6.35925 17.1909C6.18185 17.0988 6.10458 16.9067 6.18091 16.7475C6.28981 16.5204 6.40051 16.4971 7.30728 16.5109C8.09148 16.5228 8.1439 16.5292 8.24088 16.6263C8.37547 16.7611 8.37547 16.989 8.24088 17.1237C8.1439 17.2208 8.09148 17.2273 7.30728 17.2392C6.69666 17.2484 6.44537 17.2357 6.35925 17.1909ZM6.35925 15.6909C6.18185 15.5988 6.10458 15.4067 6.18091 15.2475C6.28981 15.0204 6.40051 14.9971 7.30728 15.0109C8.09148 15.0228 8.1439 15.0292 8.24088 15.1263C8.37547 15.2611 8.37547 15.489 8.24088 15.6237C8.1439 15.7208 8.09148 15.7273 7.30728 15.7392C6.69666 15.7485 6.44537 15.7357 6.35925 15.6909ZM6.35925 14.1909C6.18185 14.0988 6.10458 13.9067 6.18091 13.7475C6.28981 13.5204 6.40051 13.4971 7.30728 13.5109C8.09148 13.5228 8.1439 13.5292 8.24088 13.6263C8.37547 13.7611 8.37547 13.989 8.24088 14.1237C8.1439 14.2208 8.09148 14.2273 7.30728 14.2392C6.69666 14.2485 6.44537 14.2357 6.35925 14.1909ZM6.35925 11.5651C6.18209 11.4744 6.1045 11.2819 6.18091 11.1225C6.30046 10.8732 6.29018 10.8741 8.80719 10.8867C11.1368 10.8985 11.138 10.8985 11.2408 11.0013C11.3026 11.0631 11.3436 11.1624 11.3436 11.25C11.3436 11.3376 11.3026 11.4369 11.2408 11.4987C11.138 11.6015 11.1368 11.6016 8.80719 11.6133C6.98769 11.6225 6.45073 11.6119 6.35925 11.5651ZM13.8592 11.5659C13.6819 11.4738 13.6046 11.2817 13.6809 11.1225C13.7898 10.8954 13.9005 10.8721 14.8073 10.8859C15.5915 10.8978 15.6439 10.9042 15.7409 11.0013C15.8026 11.0631 15.8436 11.1625 15.8436 11.25C15.8436 11.3376 15.8026 11.437 15.7409 11.4987C15.6439 11.5958 15.5915 11.6023 14.8073 11.6142C14.1967 11.6234 13.9454 11.6107 13.8592 11.5659V11.5659ZM6.35925 10.0651C6.18209 9.97441 6.1045 9.78185 6.18091 9.6225C6.30046 9.37317 6.29018 9.37409 8.80719 9.38675C11.1368 9.39846 11.138 9.39852 11.2408 9.50133C11.3026 9.56313 11.3436 9.66241 11.3436 9.75003C11.3436 9.83765 11.3026 9.93693 11.2408 9.99873C11.138 10.1015 11.1368 10.1016 8.80719 10.1133C6.98769 10.1225 6.45073 10.1119 6.35925 10.0651ZM13.8592 10.0659C13.6819 9.97384 13.6046 9.78168 13.6809 9.62249C13.7898 9.39537 13.9005 9.37212 14.8073 9.38587C15.5915 9.39776 15.6439 9.40424 15.7409 9.50133C15.8026 9.56309 15.8436 9.66247 15.8436 9.75003C15.8436 9.83758 15.8026 9.93697 15.7409 9.99873C15.6439 10.0958 15.5915 10.1023 14.8073 10.1142C14.1967 10.1234 13.9454 10.1107 13.8592 10.0659V10.0659ZM6.35925 8.56506C6.18209 8.47441 6.1045 8.28185 6.18091 8.1225C6.30046 7.87317 6.29018 7.87409 8.80719 7.88675C11.1368 7.89846 11.138 7.89852 11.2408 8.00133C11.3026 8.06313 11.3436 8.16241 11.3436 8.25003C11.3436 8.33765 11.3026 8.43693 11.2408 8.49873C11.138 8.60154 11.1368 8.6016 8.80719 8.61331C6.98769 8.62246 6.45073 8.61188 6.35925 8.56506ZM13.8592 8.56594C13.6819 8.47384 13.6046 8.28168 13.6809 8.12249C13.7898 7.89537 13.9005 7.87212 14.8073 7.88587C15.5915 7.89776 15.6439 7.90424 15.7409 8.00133C15.8026 8.06309 15.8436 8.16247 15.8436 8.25003C15.8436 8.33758 15.8026 8.43697 15.7409 8.49873C15.6439 8.59581 15.5915 8.6023 14.8073 8.61419C14.1967 8.62345 13.9454 8.61066 13.8592 8.56594V8.56594ZM5.98425 5.94202C5.80656 5.84813 5.72968 5.65648 5.80591 5.49749C5.89533 5.31101 6.05857 5.24346 6.37279 5.26291C6.69435 5.28282 6.84362 5.39762 6.84362 5.62503C6.84362 5.85244 6.69435 5.96724 6.37279 5.98715C6.20688 5.99742 6.0559 5.97988 5.98425 5.94202ZM7.85925 5.94202C7.68156 5.84813 7.60467 5.65648 7.68091 5.49749C7.77033 5.31101 7.93357 5.24346 8.24779 5.26291C8.56935 5.28282 8.71862 5.39762 8.71862 5.62503C8.71862 5.85244 8.56935 5.96724 8.24779 5.98715C8.08188 5.99742 7.9309 5.97988 7.85925 5.94202ZM9.73425 5.94202C9.55656 5.84813 9.47968 5.65648 9.55591 5.49749C9.64533 5.31101 9.80857 5.24346 10.1228 5.26291C10.4444 5.28282 10.5936 5.39762 10.5936 5.62503C10.5936 5.85244 10.4444 5.96724 10.1228 5.98715C9.95688 5.99742 9.8059 5.97988 9.73425 5.94202ZM11.6092 5.94202C11.4316 5.84813 11.3547 5.65648 11.4309 5.49749C11.5203 5.31101 11.6836 5.24346 11.9978 5.26291C12.3194 5.28282 12.4686 5.39762 12.4686 5.62503C12.4686 5.85244 12.3194 5.96724 11.9978 5.98715C11.8319 5.99742 11.6809 5.97988 11.6092 5.94202ZM13.4842 5.94202C13.3066 5.84813 13.2297 5.65648 13.3059 5.49749C13.3953 5.31101 13.5586 5.24346 13.8728 5.26291C14.1944 5.28282 14.3436 5.39762 14.3436 5.62503C14.3436 5.85244 14.1944 5.96724 13.8728 5.98715C13.7069 5.99742 13.5559 5.97988 13.4842 5.94202ZM15.3592 5.94202C15.1816 5.84813 15.1047 5.65648 15.1809 5.49749C15.2703 5.31101 15.4336 5.24346 15.7478 5.26291C16.0694 5.28282 16.2186 5.39762 16.2186 5.62503C16.2186 5.85244 16.0694 5.96724 15.7478 5.98715C15.5819 5.99742 15.4309 5.97988 15.3592 5.94202ZM3.828 7.13022V6.80728L3.32409 6.78821C2.77314 6.76737 2.61343 6.71302 2.33561 6.45181C2.02018 6.15525 1.97644 6.00887 1.97644 5.25003C1.97644 4.67713 1.99015 4.54456 2.06371 4.40628C2.18555 4.17726 2.41165 3.94744 2.63269 3.82795L2.82019 3.72659H10.9999H19.1796L19.3671 3.82795C19.5881 3.94744 19.8142 4.17726 19.936 4.40628C20.0096 4.54456 20.0233 4.67713 20.0233 5.25003C20.0233 5.99829 19.9944 6.10293 19.7017 6.41429C19.439 6.69361 19.2387 6.76659 18.6757 6.78806L18.1717 6.80728V7.13022V7.45315L18.9803 7.45287C19.4251 7.45273 19.8733 7.42953 19.9764 7.40132C20.217 7.33552 20.5844 6.96445 20.6527 6.71827C20.719 6.47969 20.719 4.02033 20.6527 3.78174C20.5844 3.53558 20.217 3.16452 19.9764 3.09872C19.7163 3.02755 2.28775 3.02606 2.03161 3.09719C1.78543 3.16555 1.41437 3.53293 1.34856 3.77347C1.28029 4.02305 1.27963 6.47557 1.34778 6.721C1.41053 6.947 1.78918 7.33683 2.00677 7.39946C2.09321 7.42434 2.53835 7.4466 2.99597 7.44893L3.828 7.45315V7.13022ZM3.80456 5.25003V4.57034L3.52331 4.55535C3.12075 4.53389 2.91169 4.60618 2.84801 4.78884C2.78226 4.97745 2.78182 5.52135 2.84727 5.70909C2.91224 5.89548 3.06174 5.95003 3.47644 5.93869L3.80456 5.92972V5.25003ZM18.9582 5.90288C19.1394 5.83971 19.203 5.67014 19.203 5.25003C19.203 4.80421 19.1404 4.6536 18.9291 4.59107C18.8348 4.56318 18.6311 4.5471 18.4764 4.55535L18.1952 4.57034L18.182 5.20079C18.1748 5.54754 18.1794 5.85867 18.1923 5.8922C18.2215 5.96821 18.7497 5.97558 18.9582 5.90288ZM1.51003 2.39688C1.53452 2.37453 1.65851 2.3218 1.78557 2.2797C1.99604 2.20996 2.8162 2.20315 11.0119 2.20315H20.0073L20.3116 2.32487C20.4789 2.39182 20.6277 2.43468 20.6423 2.42012C20.6863 2.37611 20.5522 2.10108 20.405 1.93341C20.3288 1.8467 20.1802 1.72954 20.0746 1.67305L19.8827 1.57034H10.9999C2.42274 1.57034 2.11141 1.57335 1.953 1.65772C1.86276 1.70578 1.729 1.80071 1.65574 1.86866C1.52522 1.98973 1.34362 2.29235 1.34362 2.38879C1.34362 2.44793 1.44851 2.45303 1.51003 2.39688Z" fill="#4F5153"/>
<path d="M4.05597 23.1135L3.94531 23.0239L3.92188 15.6252L3.89844 8.22656L2.9375 8.19865C1.92163 8.16914 1.77544 8.14136 1.4048 7.90739C1.12799 7.73264 0.799584 7.34087 0.678301 7.0407C0.570725 6.77446 0.570312 6.76476 0.570312 4.5V2.22656L0.683213 1.94531C0.839214 1.55669 1.30669 1.08921 1.69531 0.933213L1.97656 0.820312H11H20.0234L20.3047 0.933213C20.6933 1.08921 21.1608 1.55669 21.3168 1.94531L21.4297 2.22656V4.5V6.77344L21.3168 7.05469C21.1593 7.44707 20.6919 7.91271 20.3047 8.06313C20.0541 8.16044 19.9185 8.17533 19.0625 8.19947L18.1016 8.22656L18.0781 15.6252L18.0547 23.0239L17.944 23.1135C17.7258 23.2903 17.592 23.2183 17.2803 22.7564C17.1504 22.5638 17.0242 22.4063 17 22.4063C16.9758 22.4063 16.8485 22.5655 16.7172 22.7601C16.3377 23.3224 16.1623 23.3224 15.7828 22.7601C15.6515 22.5655 15.5242 22.4063 15.5 22.4063C15.4758 22.4063 15.3485 22.5655 15.2172 22.7601C14.8377 23.3224 14.6623 23.3224 14.2828 22.7601C14.1515 22.5655 14.0242 22.4063 14 22.4063C13.9758 22.4063 13.8485 22.5655 13.7172 22.7601C13.3377 23.3224 13.1623 23.3224 12.7828 22.7601C12.6515 22.5655 12.5242 22.4063 12.5 22.4063C12.4758 22.4063 12.3485 22.5655 12.2172 22.7601C11.9642 23.135 11.8258 23.2296 11.6358 23.1574C11.5726 23.1334 11.4148 22.9558 11.2828 22.7601C11.1515 22.5655 11.0242 22.4063 11 22.4063C10.9758 22.4063 10.8485 22.5655 10.7172 22.7601C10.5852 22.9558 10.4274 23.1334 10.3642 23.1574C10.1742 23.2296 10.0358 23.135 9.7828 22.7601C9.65147 22.5655 9.52421 22.4063 9.5 22.4063C9.47579 22.4063 9.34853 22.5655 9.2172 22.7601C8.96423 23.135 8.82576 23.2296 8.63579 23.1574C8.57263 23.1334 8.41484 22.9558 8.2828 22.7601C8.15147 22.5655 8.02421 22.4063 8 22.4063C7.97579 22.4063 7.84853 22.5655 7.7172 22.7601C7.58516 22.9558 7.42737 23.1334 7.36421 23.1574C7.17424 23.2296 7.03577 23.135 6.7828 22.7601C6.65147 22.5655 6.52421 22.4063 6.5 22.4063C6.47579 22.4063 6.34853 22.5655 6.2172 22.7601C5.96423 23.135 5.82576 23.2296 5.63579 23.1574C5.57263 23.1334 5.41484 22.9558 5.2828 22.7601C5.15147 22.5655 5.02421 22.4063 5 22.4063C4.97579 22.4063 4.84965 22.5638 4.71968 22.7564C4.40804 23.2183 4.27424 23.2903 4.05597 23.1135ZM6.0493 21.8421C6.16993 21.6607 6.32068 21.4885 6.38431 21.4595C6.56455 21.3774 6.70464 21.472 6.9507 21.8421C7.07969 22.0361 7.20295 22.1719 7.25 22.1719C7.29705 22.1719 7.42031 22.0361 7.5493 21.8421C7.91317 21.2949 8.08683 21.2949 8.4507 21.8421C8.57969 22.0361 8.70295 22.1719 8.75 22.1719C8.79705 22.1719 8.92031 22.0361 9.0493 21.8421C9.41317 21.2949 9.58683 21.2949 9.9507 21.8421C10.0797 22.0361 10.2029 22.1719 10.25 22.1719C10.2971 22.1719 10.4203 22.0361 10.5493 21.8421C10.9132 21.2949 11.0868 21.2949 11.4507 21.8421C11.5797 22.0361 11.7029 22.1719 11.75 22.1719C11.7971 22.1719 11.9203 22.0361 12.0493 21.8421C12.4132 21.2949 12.5868 21.2949 12.9507 21.8421C13.0797 22.0361 13.2029 22.1719 13.25 22.1719C13.2971 22.1719 13.4203 22.0361 13.5493 21.8421C13.9132 21.2949 14.0868 21.2949 14.4507 21.8421C14.5797 22.0361 14.7029 22.1719 14.75 22.1719C14.7971 22.1719 14.9203 22.0361 15.0493 21.8421C15.4135 21.2943 15.5867 21.2947 15.9521 21.8442C16.1075 22.0779 16.1977 22.1721 16.2568 22.1623C16.3029 22.1547 16.4416 22.0013 16.5649 21.8214C16.8375 21.4236 16.9779 21.3532 17.1883 21.5088C17.2663 21.5665 17.3508 21.6009 17.376 21.5853C17.4056 21.567 17.4219 18.8005 17.4219 13.7797V6.00241L17.2826 5.93041C16.9929 5.78055 16.9827 5.49986 17.2611 5.33558L17.4255 5.23861L17.412 4.85759L17.3984 4.47656H11H4.60156L4.58798 4.86112L4.5744 5.24567L4.7155 5.31863C5.0063 5.46901 5.01817 5.74963 4.74067 5.91335L4.57812 6.00926V13.7831C4.57812 18.8017 4.59438 21.567 4.624 21.5853C4.64922 21.6009 4.7337 21.5665 4.81171 21.5088C5.02426 21.3517 5.16246 21.4227 5.44215 21.8328C5.57395 22.0261 5.70705 22.1719 5.75168 22.1719C5.79665 22.1719 5.92338 22.0314 6.0493 21.8421ZM8.91193 20.0881C8.84865 20.0248 8.79688 19.9289 8.79688 19.875C8.79688 19.8211 8.84865 19.7252 8.91193 19.6619L9.02699 19.5469H12.5H15.973L16.0881 19.6619C16.1513 19.7252 16.2031 19.8211 16.2031 19.875C16.2031 19.9289 16.1513 20.0248 16.0881 20.0881L15.973 20.2031H12.5H9.02699L8.91193 20.0881ZM12.3837 18.2812C11.7651 18.1696 11.2791 17.91 10.8095 17.4405C10.417 17.0479 10.2552 16.7896 10.0738 16.2656C9.97015 15.9664 9.95204 15.8339 9.95204 15.375C9.95204 14.9161 9.97015 14.7836 10.0738 14.4844C10.2407 14.0022 10.4043 13.7264 10.7293 13.379C11.0885 12.9951 11.44 12.7655 11.9354 12.5915C12.2918 12.4664 12.3954 12.4509 12.875 12.4514C13.3329 12.452 13.467 12.4704 13.7656 12.5738C14.2896 12.7552 14.5479 12.917 14.9405 13.3095C15.5471 13.9162 15.7957 14.5075 15.7991 15.3516C15.8027 16.2275 15.545 16.8459 14.9201 17.4609C14.5229 17.8519 14.1839 18.0544 13.6719 18.2068C13.3574 18.3004 12.7005 18.3383 12.3837 18.2812ZM13.3022 17.6251C14.215 17.4558 14.9919 16.6452 15.1365 15.7111C15.366 14.2287 14.0498 12.897 12.5664 13.1107C11.2389 13.3019 10.3199 14.6452 10.6499 15.9121C10.8197 16.5642 11.271 17.1244 11.8605 17.4148C12.3542 17.6581 12.7851 17.7209 13.3022 17.6251ZM12.6558 16.7227C12.6036 16.6646 12.5478 16.5803 12.5319 16.5352C12.516 16.49 12.4743 16.4531 12.4393 16.4531C12.3371 16.4531 12.1719 16.2464 12.1719 16.1184C12.1719 15.9774 12.3496 15.7969 12.4885 15.7969C12.6258 15.7969 12.6729 15.7014 12.5652 15.6417C12.1345 15.4031 12.0521 14.8834 12.3835 14.4963C12.4734 14.3913 12.5469 14.265 12.5469 14.2156C12.5469 14.0911 12.7397 13.9219 12.8816 13.9219C13.0019 13.9219 13.2031 14.0933 13.2031 14.1959C13.2031 14.2273 13.24 14.266 13.2852 14.2819C13.4383 14.3359 13.5781 14.4997 13.5781 14.625C13.5781 14.7719 13.4033 14.9531 13.2615 14.9531C13.1242 14.9531 13.0771 15.0486 13.1848 15.1083C13.6155 15.3469 13.6979 15.8666 13.3665 16.2537C13.2766 16.3587 13.2031 16.485 13.2031 16.5344C13.2031 16.6589 13.0103 16.8281 12.8684 16.8281C12.8037 16.8281 12.708 16.7807 12.6558 16.7227ZM6.28693 17.0881C6.22365 17.0248 6.17188 16.9289 6.17188 16.875C6.17188 16.8211 6.22365 16.7252 6.28693 16.6619C6.40061 16.5483 6.41214 16.5469 7.25 16.5469C8.08786 16.5469 8.09939 16.5483 8.21307 16.6619C8.27635 16.7252 8.32812 16.8211 8.32812 16.875C8.32812 16.9289 8.27635 17.0248 8.21307 17.0881C8.09939 17.2017 8.08786 17.2031 7.25 17.2031C6.41214 17.2031 6.40061 17.2017 6.28693 17.0881ZM6.28693 15.5881C6.22365 15.5248 6.17188 15.4289 6.17188 15.375C6.17188 15.3211 6.22365 15.2252 6.28693 15.1619C6.40061 15.0483 6.41214 15.0469 7.25 15.0469C8.08786 15.0469 8.09939 15.0483 8.21307 15.1619C8.27635 15.2252 8.32812 15.3211 8.32812 15.375C8.32812 15.4289 8.27635 15.5248 8.21307 15.5881C8.09939 15.7017 8.08786 15.7031 7.25 15.7031C6.41214 15.7031 6.40061 15.7017 6.28693 15.5881ZM6.28693 14.0881C6.22365 14.0248 6.17188 13.9289 6.17188 13.875C6.17188 13.8211 6.22365 13.7252 6.28693 13.6619C6.40061 13.5483 6.41214 13.5469 7.25 13.5469C8.08786 13.5469 8.09939 13.5483 8.21307 13.6619C8.27635 13.7252 8.32812 13.8211 8.32812 13.875C8.32812 13.9289 8.27635 14.0248 8.21307 14.0881C8.09939 14.2017 8.08786 14.2031 7.25 14.2031C6.41214 14.2031 6.40061 14.2017 6.28693 14.0881ZM6.28693 11.4631C6.22365 11.3998 6.17188 11.3039 6.17188 11.25C6.17188 11.1961 6.22365 11.1002 6.28693 11.0369L6.40199 10.9219H8.75H11.098L11.2131 11.0369C11.2763 11.1002 11.3281 11.1961 11.3281 11.25C11.3281 11.3039 11.2763 11.3998 11.2131 11.4631L11.098 11.5781H8.75H6.40199L6.28693 11.4631ZM13.7869 11.4631C13.7237 11.3998 13.6719 11.3039 13.6719 11.25C13.6719 11.1961 13.7237 11.1002 13.7869 11.0369C13.9006 10.9233 13.9121 10.9219 14.75 10.9219C15.5879 10.9219 15.5994 10.9233 15.7131 11.0369C15.7763 11.1002 15.8281 11.1961 15.8281 11.25C15.8281 11.3039 15.7763 11.3998 15.7131 11.4631C15.5994 11.5767 15.5879 11.5781 14.75 11.5781C13.9121 11.5781 13.9006 11.5767 13.7869 11.4631ZM6.28693 9.96307C6.22365 9.89979 6.17188 9.80391 6.17188 9.75C6.17188 9.69609 6.22365 9.60021 6.28693 9.53693L6.40199 9.42188H8.75H11.098L11.2131 9.53693C11.2763 9.60021 11.3281 9.69609 11.3281 9.75C11.3281 9.80391 11.2763 9.89979 11.2131 9.96307L11.098 10.0781H8.75H6.40199L6.28693 9.96307ZM13.7869 9.96307C13.7237 9.89979 13.6719 9.80391 13.6719 9.75C13.6719 9.69609 13.7237 9.60021 13.7869 9.53693C13.9006 9.42325 13.9121 9.42188 14.75 9.42188C15.5879 9.42188 15.5994 9.42325 15.7131 9.53693C15.7763 9.60021 15.8281 9.69609 15.8281 9.75C15.8281 9.80391 15.7763 9.89979 15.7131 9.96307C15.5994 10.0767 15.5879 10.0781 14.75 10.0781C13.9121 10.0781 13.9006 10.0767 13.7869 9.96307ZM6.28693 8.46307C6.22365 8.39979 6.17188 8.30391 6.17188 8.25C6.17188 8.19609 6.22365 8.10021 6.28693 8.03693L6.40199 7.92188H8.75H11.098L11.2131 8.03693C11.2763 8.10021 11.3281 8.19609 11.3281 8.25C11.3281 8.30391 11.2763 8.39979 11.2131 8.46307L11.098 8.57813H8.75H6.40199L6.28693 8.46307ZM13.7869 8.46307C13.7237 8.39979 13.6719 8.30391 13.6719 8.25C13.6719 8.19609 13.7237 8.10021 13.7869 8.03693C13.9006 7.92325 13.9121 7.92188 14.75 7.92188C15.5879 7.92188 15.5994 7.92325 15.7131 8.03693C15.7763 8.10021 15.8281 8.19609 15.8281 8.25C15.8281 8.30391 15.7763 8.39979 15.7131 8.46307C15.5994 8.57675 15.5879 8.57813 14.75 8.57813C13.9121 8.57813 13.9006 8.57675 13.7869 8.46307ZM5.91193 5.83807C5.84865 5.77479 5.79688 5.67891 5.79688 5.625C5.79688 5.57109 5.84865 5.47521 5.91193 5.41193C6.0089 5.31496 6.07186 5.29688 6.3125 5.29688C6.55314 5.29688 6.6161 5.31496 6.71307 5.41193C6.77635 5.47521 6.82812 5.57109 6.82812 5.625C6.82812 5.67891 6.77635 5.77479 6.71307 5.83807C6.6161 5.93504 6.55314 5.95313 6.3125 5.95313C6.07186 5.95313 6.0089 5.93504 5.91193 5.83807ZM7.78693 5.83807C7.72365 5.77479 7.67188 5.67891 7.67188 5.625C7.67188 5.57109 7.72365 5.47521 7.78693 5.41193C7.8839 5.31496 7.94686 5.29688 8.1875 5.29688C8.42814 5.29688 8.4911 5.31496 8.58807 5.41193C8.65135 5.47521 8.70312 5.57109 8.70312 5.625C8.70312 5.67891 8.65135 5.77479 8.58807 5.83807C8.4911 5.93504 8.42814 5.95313 8.1875 5.95313C7.94686 5.95313 7.8839 5.93504 7.78693 5.83807ZM9.66193 5.83807C9.59865 5.77479 9.54688 5.67891 9.54688 5.625C9.54688 5.57109 9.59865 5.47521 9.66193 5.41193C9.7589 5.31496 9.82186 5.29688 10.0625 5.29688C10.3031 5.29688 10.3661 5.31496 10.4631 5.41193C10.5263 5.47521 10.5781 5.57109 10.5781 5.625C10.5781 5.67891 10.5263 5.77479 10.4631 5.83807C10.3661 5.93504 10.3031 5.95313 10.0625 5.95313C9.82186 5.95313 9.7589 5.93504 9.66193 5.83807ZM11.5369 5.83807C11.4737 5.77479 11.4219 5.67891 11.4219 5.625C11.4219 5.57109 11.4737 5.47521 11.5369 5.41193C11.6339 5.31496 11.6969 5.29688 11.9375 5.29688C12.1781 5.29688 12.2411 5.31496 12.3381 5.41193C12.4013 5.47521 12.4531 5.57109 12.4531 5.625C12.4531 5.67891 12.4013 5.77479 12.3381 5.83807C12.2411 5.93504 12.1781 5.95313 11.9375 5.95313C11.6969 5.95313 11.6339 5.93504 11.5369 5.83807ZM13.4119 5.83807C13.3487 5.77479 13.2969 5.67891 13.2969 5.625C13.2969 5.57109 13.3487 5.47521 13.4119 5.41193C13.5089 5.31496 13.5719 5.29688 13.8125 5.29688C14.0531 5.29688 14.1161 5.31496 14.2131 5.41193C14.2763 5.47521 14.3281 5.57109 14.3281 5.625C14.3281 5.67891 14.2763 5.77479 14.2131 5.83807C14.1161 5.93504 14.0531 5.95313 13.8125 5.95313C13.5719 5.95313 13.5089 5.93504 13.4119 5.83807ZM15.2869 5.83807C15.2237 5.77479 15.1719 5.67891 15.1719 5.625C15.1719 5.57109 15.2237 5.47521 15.2869 5.41193C15.3839 5.31496 15.4469 5.29688 15.6875 5.29688C15.9281 5.29688 15.9911 5.31496 16.0881 5.41193C16.1513 5.47521 16.2031 5.57109 16.2031 5.625C16.2031 5.67891 16.1513 5.77479 16.0881 5.83807C15.9911 5.93504 15.9281 5.95313 15.6875 5.95313C15.4469 5.95313 15.3839 5.93504 15.2869 5.83807ZM3.84821 7.47322C3.93128 7.39015 3.95085 6.91541 3.8761 6.79688C3.84249 6.7436 3.70266 6.72088 3.29886 6.70313C2.8088 6.68157 2.7476 6.66833 2.5374 6.53834C2.36941 6.43445 2.27327 6.32892 2.17465 6.14014C2.04224 5.88668 2.04067 5.87428 2.05539 5.19945C2.06994 4.53251 2.07381 4.50995 2.21166 4.28722C2.31446 4.12112 2.42138 4.02311 2.60373 3.92785L2.85446 3.79688H11H19.1455L19.3963 3.92785C19.5786 4.02311 19.6855 4.12112 19.7883 4.28722C19.9262 4.50995 19.9301 4.53251 19.9446 5.19945C19.9593 5.87428 19.9578 5.88668 19.8253 6.14014C19.7267 6.32892 19.6306 6.43445 19.4626 6.53834C19.2524 6.66833 19.1912 6.68157 18.7011 6.70313C18.0869 6.73014 18.0799 6.73496 18.0788 7.13337C18.0777 7.55815 18.0837 7.56063 19.0592 7.53718C19.9606 7.51551 20.0875 7.48543 20.3869 7.22255C20.48 7.14085 20.605 6.97474 20.6648 6.85341C20.771 6.63783 20.7734 6.60134 20.7734 5.25C20.7734 3.89866 20.771 3.86217 20.6648 3.64659C20.5434 3.40022 20.3026 3.1675 20.0503 3.05273C19.8976 2.98328 19.0993 2.97656 11 2.97656C2.90066 2.97656 2.10242 2.98328 1.94972 3.05273C1.69738 3.1675 1.45656 3.40022 1.33522 3.64659C1.23169 3.85678 1.22582 3.92375 1.21086 5.06551C1.20126 5.79774 1.21497 6.37205 1.24609 6.54207C1.3335 7.01953 1.69906 7.40912 2.14062 7.49539C2.25664 7.51806 2.67174 7.53891 3.06306 7.54174C3.65215 7.54599 3.78723 7.5342 3.84821 7.47322ZM3.875 5.25V4.5H3.42756C3.01499 4.5 2.97114 4.50897 2.86506 4.61506C2.75673 4.72338 2.75 4.76052 2.75 5.25C2.75 5.73948 2.75673 5.77662 2.86506 5.88494C2.97114 5.99103 3.01499 6 3.42756 6H3.875V5.25ZM19.1349 5.88494C19.2433 5.77662 19.25 5.73948 19.25 5.25C19.25 4.76052 19.2433 4.72338 19.1349 4.61506C19.0289 4.50897 18.985 4.5 18.5724 4.5H18.125V5.25V6H18.5724C18.985 6 19.0289 5.99103 19.1349 5.88494ZM1.56255 2.46497C1.68713 2.40274 1.91423 2.32891 2.0672 2.30091C2.46012 2.22899 19.5428 2.22937 19.9328 2.3013C20.0858 2.32952 20.3217 2.4068 20.4572 2.47304C20.5926 2.53928 20.7164 2.58046 20.7323 2.56455C20.7913 2.5056 20.6954 2.20218 20.5492 1.98513C20.4455 1.83109 20.3198 1.7204 20.1463 1.63027L19.8942 1.49929L10.9551 1.51136L2.01608 1.52344L1.78662 1.6653C1.52975 1.82412 1.30923 2.13757 1.26571 2.40573C1.23234 2.61138 1.25888 2.61667 1.56255 2.46497Z" fill="#050505"/>
</svg>
