<svg width="18" height="18" viewBox="0 0 18 18" fill="none" xmlns="http://www.w3.org/2000/svg">
<path d="M9.42366 4.79883H8.57815C8.50081 4.79883 8.43752 4.86211 8.43752 4.93946V9.77871C8.43752 9.82442 8.45862 9.8666 8.49553 9.89297L11.4012 12.0147C11.4645 12.0604 11.5524 12.0481 11.5981 11.9848L12.1008 11.2992C12.1483 11.2342 12.1342 11.1463 12.0709 11.1023L9.56428 9.29004V4.93946C9.56428 4.86211 9.501 4.79883 9.42366 4.79883ZM13.2873 6.12071L16.0436 6.79395C16.1315 6.81504 16.2176 6.74825 16.2176 6.6586L16.2317 3.81973C16.2317 3.70196 16.0963 3.63516 16.0049 3.70899L13.2346 5.87285C13.2137 5.88905 13.1977 5.91083 13.1886 5.93568C13.1795 5.96054 13.1776 5.98746 13.1831 6.01335C13.1886 6.03924 13.2013 6.06305 13.2197 6.08204C13.2382 6.10103 13.2616 6.11444 13.2873 6.12071ZM16.2352 11.4135L15.2385 11.0707C15.2038 11.0588 15.1657 11.061 15.1325 11.0767C15.0994 11.0925 15.0737 11.1206 15.061 11.1551C15.0276 11.2447 14.9924 11.3326 14.9555 11.4205C14.6426 12.1606 14.1944 12.8268 13.6213 13.3981C13.0546 13.9665 12.383 14.4196 11.6438 14.7322C10.8779 15.056 10.0547 15.2222 9.22327 15.2209C8.38303 15.2209 7.56916 15.0574 6.80276 14.7322C6.06349 14.4196 5.3919 13.9665 4.82522 13.3981C4.25393 12.8268 3.80569 12.1606 3.49104 11.4205C3.16904 10.6543 3.00406 9.83117 3.00588 9C3.00588 8.15977 3.16936 7.34414 3.49456 6.57774C3.80745 5.8377 4.25569 5.17149 4.82874 4.6002C5.39542 4.03176 6.06701 3.57866 6.80627 3.26602C7.56917 2.94082 8.38479 2.77735 9.22502 2.77735C10.0653 2.77735 10.8791 2.94082 11.6455 3.26602C12.3848 3.57866 13.0564 4.03176 13.6231 4.6002C13.8024 4.78125 13.9711 4.96934 14.1258 5.16797L15.177 4.34532C13.7936 2.57696 11.6403 1.43965 9.22151 1.44141C5.00979 1.44317 1.62776 4.86387 1.66995 9.07735C1.71213 13.217 5.07834 16.5586 9.22502 16.5586C12.4858 16.5586 15.2631 14.4914 16.3213 11.5963C16.3477 11.5225 16.309 11.4398 16.2352 11.4135Z" fill="#185ADB"/>
</svg>
