<svg width="32" height="32" viewBox="0 0 32 32" fill="none" xmlns="http://www.w3.org/2000/svg">

<path d="M23.125 16L27.25 11.875L20.125 4.75L8.87506 16" fill="#78B75B"/>
<path d="M12.25 15.9999C12.25 15.0403 12.616 14.0807 13.3484 13.3483C14.8128 11.8839 17.1872 11.8839 18.6516 13.3483C19.384 14.0807 19.75 15.0403 19.75 15.9999" fill="#669E4F"/>
<path d="M18.5602 16.5308C18.5602 16.1302 18.4042 15.7534 18.1207 15.4699C17.5544 14.9033 16.566 14.9033 16.0001 15.4699L14.9392 14.409C15.2321 14.1169 15.7072 14.1173 16.0001 14.4094L16.53 13.8788C15.9457 13.2945 14.994 13.2942 14.4089 13.8788L14.1438 13.6136L13.6132 14.1442L13.8787 14.4098C13.5952 14.6929 13.4396 15.0694 13.4396 15.4702C13.4392 15.8708 13.5956 16.2476 13.8791 16.5311C14.1622 16.8142 14.5391 16.9702 14.9396 16.9702C15.3401 16.9702 15.7166 16.8142 15.9997 16.5311L17.0606 17.592C16.7677 17.8842 16.2926 17.8838 15.9997 17.5916L15.4698 18.1222C15.762 18.4144 16.1463 18.5606 16.5303 18.5606C16.9143 18.5606 17.2983 18.4144 17.5908 18.1222L17.856 18.3874L18.3866 17.8568L18.1211 17.5913C18.4042 17.3078 18.5602 16.9313 18.5602 16.5308ZM15.4691 16.0005C15.1863 16.2836 14.6917 16.2836 14.4089 16.0005C14.2672 15.8588 14.1889 15.6705 14.1892 15.4702C14.1892 15.27 14.2672 15.0818 14.4086 14.94L15.4691 16.0005ZM16.5303 16.0002C16.8131 15.717 17.3077 15.717 17.5904 16.0002C17.7322 16.1419 17.8102 16.3302 17.8102 16.5304C17.8102 16.7306 17.7322 16.9189 17.5908 17.0606L16.5303 16.0002Z" fill="#78B75B"/>
<path d="M22.0833 15.2203L21.5526 14.6897L24.4694 11.7729L20.2266 7.53058L17.3099 10.4473L16.7793 9.91671L19.9611 6.73483C20.1078 6.58858 20.3451 6.5882 20.4918 6.73483L25.2651 11.5078C25.3357 11.5783 25.3746 11.6736 25.3746 11.7729C25.3746 11.8727 25.3357 11.968 25.2651 12.0384L22.0833 15.2203Z" fill="#669E4F"/>
<path d="M20.5011 13.6244L21.0313 13.0935L21.5623 13.6237L21.0321 14.1547L20.5011 13.6244Z" fill="#96CC7F"/>
<path d="M21.5508 12.5729L22.0811 12.0425L22.6117 12.5731L22.0814 13.1035L21.5508 12.5729Z" fill="#96CC7F"/>
<path d="M17.8489 10.9784L18.38 10.4481L18.91 10.9789L18.3789 11.5091L17.8489 10.9784Z" fill="#96CC7F"/>
<path d="M18.8997 9.92107L19.43 9.39072L19.9606 9.92134L19.4303 10.4517L18.8997 9.92107Z" fill="#96CC7F"/>
<path d="M4.75 16H27.25V25.75H4.75V16Z" fill="#96CC7F"/>
<path d="M16 24.625C18.0711 24.625 19.75 22.9461 19.75 20.875C19.75 18.8039 18.0711 17.125 16 17.125C13.9289 17.125 12.25 18.8039 12.25 20.875C12.25 22.9461 13.9289 24.625 16 24.625Z" fill="#78B75B"/>
<path d="M10.3751 25.75L11.8751 27.25L13.3751 25.75" fill="#78B75B"/>
<path d="M16.3753 20.5H16.3745V19H16.3753C16.7885 19 17.1245 19.3364 17.1245 19.75H17.8745C17.8745 18.9228 17.2018 18.25 16.3753 18.25H16.3745V17.875H15.6249V18.25C14.7976 18.25 14.1249 18.9228 14.1249 19.75C14.1249 20.5769 14.7976 21.2497 15.6249 21.2497V22.7497C15.2109 22.7497 14.8749 22.4133 14.8749 21.9997L14.1249 22C14.1249 22.8269 14.7976 23.4997 15.6249 23.4997V23.8746H16.3745V23.4997H16.3753C17.2018 23.4997 17.8745 22.8269 17.8745 21.9997C17.8745 21.1724 17.2018 20.5 16.3753 20.5ZM14.8749 19.75C14.8749 19.3364 15.2109 19 15.6249 19V20.5C15.2113 20.5 14.8749 20.1633 14.8749 19.75ZM16.3753 22.7497H16.3745V21.2497H16.3753C16.7885 21.2497 17.1245 21.586 17.1245 22C17.1245 22.4133 16.7885 22.7497 16.3753 22.7497Z" fill="#669E4F"/>
<path d="M25.7495 24.6246H21.2499V23.8746H25.3745V17.875H21.2499V17.125H25.7495C25.9569 17.125 26.1245 17.2926 26.1245 17.5V24.25C26.1245 24.457 25.9569 24.6246 25.7495 24.6246Z" fill="#669E4F"/>
<path d="M10.7496 24.625H6.25C6.04263 24.625 5.875 24.457 5.875 24.25V17.5C5.875 17.2926 6.04263 17.125 6.24963 17.125H10.7496L10.75 17.875H6.625V23.875H10.7496V24.625Z" fill="#669E4F"/>
<path d="M21.2499 22.375H21.9995V23.125H21.2499V22.375Z" fill="#78B75B"/>
<path d="M22.7499 22.375H23.4995V23.125H22.7499V22.375Z" fill="#78B75B"/>
<path d="M21.2499 18.625H21.9995V19.375H21.2499V18.625Z" fill="#78B75B"/>
<path d="M22.7499 18.625H23.4995V19.375H22.7499V18.625Z" fill="#78B75B"/>
<path d="M8.5 18.625H9.24964V19.375H8.5V18.625Z" fill="#78B75B"/>
<path d="M10 18.625H10.7496V19.375H10V18.625Z" fill="#78B75B"/>
<path d="M8.5 22.375H9.24964V23.125H8.5V22.375Z" fill="#78B75B"/>
<path d="M10 22.375H10.7496V23.125H10V22.375Z" fill="#78B75B"/>
<path d="M27.2497 15.6248H24.0303L27.5152 12.1403C27.5857 12.0698 27.6246 11.9746 27.625 11.8752C27.625 11.7754 27.5857 11.6802 27.5152 11.6097L20.3901 4.48469C20.2435 4.33806 20.0061 4.33881 19.8595 4.48469L8.71903 15.6248H4.74927C4.54227 15.6248 4.37427 15.7928 4.37427 15.9998V25.7498C4.37427 25.9568 4.54227 26.1248 4.74927 26.1248H10.219L11.6092 27.5149C11.68 27.5854 11.7753 27.6252 11.875 27.6248C11.9744 27.6248 12.07 27.5854 12.1401 27.5153L13.5303 26.1252H27.2497C27.4566 26.1252 27.6246 25.9572 27.6246 25.7502V16.0002C27.6246 15.7928 27.4566 15.6248 27.2497 15.6248ZM20.1246 5.28044L26.7194 11.8748L22.9694 15.6248H20.1063C20.0204 14.6644 19.6068 13.7731 18.9168 13.0831C17.308 11.4751 14.6913 11.4751 13.0833 13.0831C12.3929 13.7731 11.9789 14.6648 11.8934 15.6248H9.78063L20.1246 5.28044ZM14.2098 15.6248C14.1592 15.3814 14.2274 15.1208 14.4085 14.9397L15.0937 15.6248H14.2098ZM18.2549 15.6248C18.2137 15.5704 18.1694 15.5183 18.1206 15.4696C17.5544 14.9029 16.5659 14.9029 16 15.4696L14.9392 14.4087C15.232 14.1166 15.7072 14.1166 16 14.4091L16.5299 13.8784C15.9457 13.2942 14.9939 13.2938 14.4089 13.8784L14.1438 13.6133L13.6132 14.144L13.8786 14.4094C13.549 14.7387 13.4032 15.1853 13.45 15.6252H12.6475C12.7308 14.8658 13.0653 14.1623 13.6139 13.614C14.9294 12.2978 17.0706 12.2982 18.3869 13.614C18.9348 14.162 19.2693 14.8658 19.3529 15.6252H18.2549V15.6248ZM11.8746 26.7196L11.2803 26.1252H12.469L11.8746 26.7196ZM26.8746 25.3752H5.12427V16.3752H26.8746V25.3752Z" fill="black"/>
<path d="M14.8749 22L14.1249 22.0004C14.1249 22.8273 14.7976 23.5 15.6249 23.5V23.875H16.3745V23.5H16.3753C17.2018 23.5 17.8745 22.8273 17.8745 22C17.8745 21.1728 17.2018 20.5 16.3753 20.5H16.3745V19H16.3753C16.7885 19 17.1245 19.3364 17.1245 19.75H17.8745C17.8745 18.9228 17.2018 18.25 16.3753 18.25H16.3745V17.875H15.6249V18.25C14.7976 18.25 14.1249 18.9228 14.1249 19.75C14.1249 20.5769 14.7976 21.2497 15.6249 21.2497V22.7497C15.2113 22.75 14.8749 22.4137 14.8749 22ZM14.8749 19.7504C14.8749 19.3368 15.2109 19.0004 15.6249 19.0004V20.5004C15.2113 20.5004 14.8749 20.1637 14.8749 19.7504ZM16.3745 21.25H16.3753C16.7885 21.25 17.1245 21.5864 17.1245 22.0004C17.1245 22.4137 16.7885 22.75 16.3753 22.75H16.3745V21.25Z" fill="black"/>
<path d="M15.9997 25C18.2737 25 20.1243 23.1494 20.1243 20.875C20.1243 18.6006 18.2737 16.75 15.9997 16.75C13.7253 16.7504 11.8751 18.6006 11.8751 20.8754C11.8751 23.1494 13.7253 25 15.9997 25ZM15.9997 17.5004C17.8604 17.5004 19.3743 19.0143 19.3743 20.8754C19.3743 22.7361 17.8604 24.2504 15.9997 24.2504C14.1385 24.2504 12.625 22.7365 12.625 20.8754C12.625 19.0143 14.1385 17.5004 15.9997 17.5004Z" fill="black"/>
<path d="M26.1245 24.2496V17.5C26.1245 17.2926 25.9569 17.125 25.7495 17.125H21.2499V17.875H25.3745V23.875H21.2499V24.625H25.7495C25.9569 24.6246 26.1245 24.4569 26.1245 24.2496Z" fill="black"/>
<path d="M6.25 24.625H10.7496V23.875H6.625V17.875H10.75L10.7496 17.125H6.24963C6.04263 17.125 5.875 17.2926 5.875 17.5V24.25C5.875 24.457 6.04263 24.625 6.25 24.625Z" fill="black"/>
<path d="M21.2499 22.375H21.9995V23.125H21.2499V22.375Z" fill="black"/>
<path d="M22.7499 22.375H23.4995V23.125H22.7499V22.375Z" fill="black"/>
<path d="M21.2499 18.625H21.9995V19.375H21.2499V18.625Z" fill="black"/>
<path d="M22.7499 18.625H23.4995V19.375H22.7499V18.625Z" fill="black"/>
<path d="M20.2265 7.53058L24.4689 11.7733L21.5521 14.6901L22.0828 15.2207L25.2646 12.0388C25.3352 11.9683 25.3741 11.8731 25.3741 11.7733C25.3741 11.674 25.3352 11.5783 25.2646 11.5082L20.492 6.73483C20.3454 6.5882 20.108 6.58858 19.9614 6.73483L16.7795 9.91671L17.3101 10.4473L20.2265 7.53058Z" fill="black"/>
<path d="M20.4901 13.6324L21.0204 13.1021L21.5507 13.6324L21.0204 14.1628L20.4901 13.6324Z" fill="black"/>
<path d="M21.5497 12.5695L22.08 12.0392L22.6106 12.5697L22.0803 13.1001L21.5497 12.5695Z" fill="black"/>
<path d="M17.8489 10.9784L18.38 10.4481L18.91 10.9789L18.3789 11.5091L17.8489 10.9784Z" fill="black"/>
<path d="M18.8997 9.92065L19.43 9.39034L19.9606 9.92092L19.4303 10.4513L18.8997 9.92065Z" fill="black"/>
<path d="M8.5 18.625H9.24964V19.375H8.5V18.625Z" fill="black"/>
<path d="M10 18.625H10.7496V19.375H10V18.625Z" fill="black"/>
<path d="M8.5 22.375H9.24964V23.125H8.5V22.375Z" fill="black"/>
<path d="M10 22.375H10.7496V23.125H10V22.375Z" fill="black"/>
</svg>
