<svg height="128dp" viewBox="0 0 512 512"
    width="128dp" xmlns="http://www.w3.org/2000/svg">
    <path fill="#f9f6f9" d="m398.843,504.5h-292.073c-17.044,0 -30.861,-13.817 -30.861,-30.861v-435.278c0,-17.044 13.817,-30.861 30.861,-30.861h292.073c17.044,0 30.861,13.817 30.861,30.861v435.278c0,17.044 -13.817,30.861 -30.861,30.861z"/>
    <path fill="#dddaec" d="m398.843,7.5h-67.5c17.044,0 30.861,13.817 30.861,30.861v435.278c0,17.044 -13.817,30.861 -30.861,30.861h67.5c17.044,0 30.861,-13.817 30.861,-30.861v-435.278c0,-17.044 -13.817,-30.861 -30.861,-30.861z"/>
    <path fill="#c9e0fd" d="m116.919,415.199v-352.353c0,-7.917 6.418,-14.336 14.336,-14.336h243.103c7.917,0 14.336,6.418 14.336,14.336v352.353c0,7.917 -6.418,14.336 -14.336,14.336h-243.103c-7.917,-0.001 -14.336,-6.419 -14.336,-14.336z"/>
    <path fill="#bcd6f9" d="m374.358,48.51h-12.154v381.024h12.154c7.917,0 14.336,-6.418 14.336,-14.336v-352.352c0,-7.917 -6.418,-14.336 -14.336,-14.336z"/>
    <path fill="#9bc4f9" d="m374.358,48.51h-243.103c-7.917,0 -14.336,6.418 -14.336,14.336v36.154h271.774v-36.154c0.001,-7.917 -6.417,-14.336 -14.335,-14.336z"/>
    <path fill="#7fb2f9" d="m374.358,48.51h-12.154v50.49h26.49v-36.154c0,-7.917 -6.418,-14.336 -14.336,-14.336z"/>
    <path fill="#FF000000" d="M158.557,73.755m-7.5,0a7.5,7.5 0,1 1,15 0a7.5,7.5 0,1 1,-15 0"/>
    <path fill="#FF000000" d="M192.807,73.755m-7.5,0a7.5,7.5 0,1 1,15 0a7.5,7.5 0,1 1,-15 0"/>
    <path fill="#FF000000" d="M227.057,73.755m-7.5,0a7.5,7.5 0,1 1,15 0a7.5,7.5 0,1 1,-15 0"/>
    <path fill="#ffd064" d="m478.393,222.156h-168.326c-12.655,0 -22.914,10.259 -22.914,22.914v109.71c0,12.655 10.259,22.914 22.914,22.914 4.989,0 9.034,4.045 9.034,9.034v35.482c0,6.71 8.253,9.912 12.778,4.957l42.499,-46.531c1.712,-1.874 4.133,-2.942 6.671,-2.942h97.344c12.655,0 22.913,-10.259 22.913,-22.913v-109.711c0.001,-12.655 -10.258,-22.914 -22.913,-22.914z"/>
    <path fill="#ffc250" d="m312.124,377.937c3.997,0.932 6.978,4.509 6.978,8.79v35.482c0,6.71 8.253,9.912 12.778,4.957l42.499,-46.531c1.712,-1.874 4.133,-2.942 6.671,-2.942h-66.872c-0.699,0 -1.386,0.088 -2.054,0.244z"/>
    <path fill="#ffc250" d="m478.393,222.156h-66.872c12.655,0 22.914,10.259 22.914,22.914v109.71c0,12.655 -10.259,22.913 -22.913,22.913h66.872c12.655,0 22.913,-10.259 22.913,-22.913v-109.71c0,-12.655 -10.259,-22.914 -22.914,-22.914z"/>
    <path fill="#a0f2bf" d="m29.216,130.69h145.068c10.23,0 18.522,8.293 18.522,18.522v88.685c0,10.23 -8.293,18.522 -18.522,18.522 -4.033,0 -7.303,3.27 -7.303,7.303v28.682c0,5.424 -6.671,8.012 -10.329,4.007l-34.354,-37.614c-1.384,-1.515 -3.341,-2.378 -5.392,-2.378h-87.69c-10.23,0 -18.522,-8.293 -18.522,-18.522v-88.685c-0.001,-10.229 8.292,-18.522 18.522,-18.522z"/>
    <path fill="#7fe09b" d="m174.284,130.69h-66.872c10.23,0 18.522,8.293 18.522,18.522v88.685c0,10.23 -8.293,18.522 -18.522,18.522h9.494c2.052,0 4.009,0.863 5.392,2.378l34.354,37.614c3.658,4.005 10.329,1.417 10.329,-4.007v-28.682c0,-4.033 3.27,-7.303 7.303,-7.303 10.23,0 18.522,-8.293 18.522,-18.522v-88.685c0.001,-10.229 -8.292,-18.522 -18.522,-18.522z"/>
    <path fill="#FF000000" d="m269.307,472.5c4.143,0 7.5,-3.358 7.5,-7.5s-3.357,-7.5 -7.5,-7.5h-33c-4.143,0 -7.5,3.358 -7.5,7.5s3.357,7.5 7.5,7.5z"/>
    <path fill="#FF000000" d="m478.393,214.656h-41.188v-176.295c-0.001,-21.152 -17.21,-38.361 -38.362,-38.361h-292.072c-21.153,0 -38.362,17.209 -38.362,38.361v57.209c0,4.142 3.357,7.5 7.5,7.5s7.5,-3.358 7.5,-7.5v-57.209c0,-12.881 10.48,-23.361 23.362,-23.361h292.072c12.882,0 23.361,10.48 23.361,23.361v176.295h-26.011v-151.81c0,-12.04 -9.795,-21.835 -21.835,-21.835h-243.103c-12.04,0 -21.836,9.795 -21.836,21.835v60.344h-80.203c-14.349,0 -26.022,11.674 -26.022,26.022v88.685c0,14.349 11.674,26.022 26.022,26.022h80.203v151.279c0,12.041 9.796,21.836 21.836,21.836h243.104c12.04,0 21.835,-9.795 21.835,-21.836v-30.006h26.011v88.446c0,12.881 -10.479,23.361 -23.361,23.361h-292.073c-12.882,0 -23.361,-10.479 -23.361,-23.361v-182.138c0,-4.142 -3.357,-7.5 -7.5,-7.5s-7.5,3.358 -7.5,7.5v182.139c0,21.152 17.209,38.361 38.361,38.361h292.072c21.152,0 38.361,-17.208 38.361,-38.361v-88.446h41.189c16.77,0 30.413,-13.644 30.413,-30.414v-109.709c0.001,-16.77 -13.643,-30.414 -30.413,-30.414zM116.919,248.92c-0.001,0 -0.001,0 -0.002,0 -0.004,0 -0.008,-0.001 -0.011,-0.001h-87.69c-6.078,0 -11.022,-4.945 -11.022,-11.022v-88.685c0,-6.078 4.944,-11.022 11.022,-11.022h145.068c6.078,0 11.022,4.945 11.022,11.022v88.685c0,6.078 -4.944,11.022 -11.022,11.022 -8.162,0 -14.803,6.641 -14.803,14.803v24.666l-31.646,-34.648c-2.872,-3.145 -6.971,-4.82 -10.916,-4.82zM311.602,422.035h-180.347c-3.77,0 -6.836,-3.066 -6.836,-6.836v-142.957l26.695,29.228c3.737,4.093 9.531,5.506 14.786,3.467 5.213,-2.022 8.581,-6.941 8.581,-12.532v-28.485c14.259,-0.106 25.825,-11.739 25.825,-26.022v-88.685c0,-14.349 -11.674,-26.022 -26.022,-26.022h-49.865v-16.691h189.393c4.143,0 7.5,-3.358 7.5,-7.5s-3.357,-7.5 -7.5,-7.5h-189.393v-28.654c0,-3.769 3.066,-6.835 6.836,-6.835h243.104c3.769,0 6.835,3.066 6.835,6.835v28.654h-32.319c-4.143,0 -7.5,3.358 -7.5,7.5s3.357,7.5 7.5,7.5h32.319v108.156h-71.126c-16.771,0 -30.414,13.644 -30.414,30.414v109.709c0,16.77 13.644,30.414 30.414,30.414 0.846,0 1.534,0.688 1.534,1.534zM381.193,415.199c0,3.77 -3.066,6.836 -6.835,6.836h-27.635l33.192,-36.341c0.291,-0.318 0.704,-0.5 1.134,-0.5h0.145v30.005zM493.807,354.779c0,8.499 -6.914,15.414 -15.413,15.414h-97.345c-4.633,0 -9.083,1.962 -12.209,5.384l-42.238,46.243v-35.092c0,-9.117 -7.417,-16.534 -16.534,-16.534 -8.499,0 -15.414,-6.915 -15.414,-15.414v-109.71c0,-8.499 6.915,-15.414 15.414,-15.414h168.325c8.499,0 15.414,6.915 15.414,15.414z"/>
    <path fill="#FF000000" d="m460.843,268.175h-129.5c-4.143,0 -7.5,3.358 -7.5,7.5s3.357,7.5 7.5,7.5h129.5c4.143,0 7.5,-3.358 7.5,-7.5s-3.358,-7.5 -7.5,-7.5z"/>
    <path fill="#FF000000" d="m460.843,316.675h-129.5c-4.143,0 -7.5,3.358 -7.5,7.5s3.357,7.5 7.5,7.5h129.5c4.143,0 7.5,-3.358 7.5,-7.5s-3.358,-7.5 -7.5,-7.5z"/>
    <path fill="#FF000000" d="m48.506,180h106.488c4.143,0 7.5,-3.358 7.5,-7.5s-3.357,-7.5 -7.5,-7.5h-106.488c-4.143,0 -7.5,3.358 -7.5,7.5s3.357,7.5 7.5,7.5z"/>
    <path fill="#FF000000" d="m162.494,212.024c0,-4.142 -3.357,-7.5 -7.5,-7.5h-106.488c-4.143,0 -7.5,3.358 -7.5,7.5s3.357,7.5 7.5,7.5h106.488c4.143,0 7.5,-3.358 7.5,-7.5z"/>
</svg>
