<svg width="22" height="18" viewBox="0 0 22 18" fill="none" xmlns="http://www.w3.org/2000/svg">
<path d="M13.9125 9C12.8096 9 11.8699 8.60938 11.0932 7.82812C10.3166 7.04688 9.92823 6.10156 9.92823 4.99219C9.92823 3.88281 10.3166 2.9375 11.0932 2.15625C11.8699 1.375 12.8096 0.984375 13.9125 0.984375C15.0154 0.984375 15.9551 1.375 16.7318 2.15625C17.5084 2.9375 17.8968 3.88281 17.8968 4.99219C17.8968 6.10156 17.5084 7.04688 16.7318 7.82812C15.9551 8.60938 15.0154 9 13.9125 9ZM4.98866 6.98438H7.97104V9H4.98866V12H2.98488V9H0.00250244V6.98438H2.98488V3.98438H4.98866V6.98438ZM13.9125 11.0156C14.8911 11.0156 15.9706 11.1562 17.1512 11.4375C18.3317 11.7188 19.4113 12.1797 20.3898 12.8203C21.3684 13.4609 21.8577 14.1875 21.8577 15V17.0156H5.96726V15C5.96726 14.1875 6.45655 13.4609 7.43515 12.8203C8.41374 12.1797 9.4933 11.7188 10.6738 11.4375C11.8543 11.1562 12.9339 11.0156 13.9125 11.0156Z" fill="#185ADB"/>
</svg>
