<svg height="24dp" viewBox="0 0 480 480"
    width="24dp" xmlns="http://www.w3.org/2000/svg">
    <path fill="#8690fa" d="m432,240c0,106.039 -85.961,192 -192,192s-192,-85.961 -192,-192 85.961,-192 192,-192 192,85.961 192,192zM432,240"/>
    <path fill="#5153ff" d="m192,144h144v144h-144zM192,144"/>
    <path fill="#cfd2fc" d="m144,192h144v144h-144zM144,192"/>
    <path fill="#FF000000" d="m240,0c-132.547,0 -240,107.453 -240,240s107.453,240 240,240 240,-107.453 240,-240c-0.148,-132.484 -107.516,-239.852 -240,-240zM240,464c-123.711,0 -224,-100.289 -224,-224s100.289,-224 224,-224 224,100.289 224,224c-0.141,123.652 -100.348,223.859 -224,224zM240,464"/>
    <path fill="#FF000000" d="m336,136h-144c-4.418,0 -8,3.582 -8,8v40h-40c-4.418,0 -8,3.582 -8,8v144c0,4.418 3.582,8 8,8h144c4.418,0 8,-3.582 8,-8v-40h40c4.418,0 8,-3.582 8,-8v-144c0,-4.418 -3.582,-8 -8,-8zM280,328h-128v-128h128zM328,280h-32v-88c0,-4.418 -3.582,-8 -8,-8h-88v-32h128zM328,280"/>
</svg>
