<svg width="42" height="42" viewBox="0 0 42 42" fill="none" xmlns="http://www.w3.org/2000/svg">
<circle cx="21" cy="21" r="21" fill="#185ADB"/>
<path d="M20.0156 12.0427C19.425 12.1201 18.6023 12.317 18.0469 12.5068C16.7039 12.9849 15.7195 13.6107 14.6648 14.6654C13.6101 15.7201 12.9844 16.7045 12.5062 18.0474C12.1406 19.0951 12.0422 19.7138 12.0422 21.0006C12.0422 22.2802 12.1336 22.899 12.5062 23.9537C12.7523 24.6568 12.893 24.8326 13.1531 24.7693C13.4344 24.699 13.4414 24.467 13.2023 23.7709C12.8648 22.7724 12.7453 22.0552 12.7453 21.0357C12.7453 20.0021 12.8437 19.3482 13.132 18.4623C13.9476 15.9451 15.9375 13.9482 18.4476 13.1326C19.3336 12.8443 19.9945 12.7459 21 12.7459C21.9984 12.7459 22.6664 12.8443 23.5453 13.1326C24.6422 13.4912 25.6125 14.0396 26.4984 14.8201C26.9976 15.2631 27.2648 15.3474 27.3984 15.1013C27.4406 15.017 27.4687 14.4052 27.4687 13.5966C27.4687 12.317 27.4617 12.2255 27.3281 12.106C27.2156 12.0006 27.1453 11.9865 26.9906 12.0427L26.8008 12.106L26.7797 13.0763C26.7656 13.9482 26.7164 14.1732 26.5898 13.9693C26.4984 13.8146 25.4437 13.1607 24.839 12.8795C23.5734 12.2818 22.6945 12.0779 21.2812 12.0427C20.7187 12.0216 20.1492 12.0287 20.0156 12.0427Z" fill="white"/>
<path d="M19.6992 14.841C17.2523 15.4175 15.4383 17.1894 14.8758 19.573C14.6719 20.4167 14.6719 21.5839 14.8758 22.4347C15.3117 24.2699 16.5211 25.7956 18.2226 26.6464C21.3164 28.1933 25.0781 26.9136 26.6461 23.7777C27.9398 21.1831 27.2578 18.0472 24.9797 16.1347C24.4523 15.6917 23.3203 15.1011 22.6523 14.9183C22.0687 14.7566 20.2687 14.7144 19.6992 14.841ZM21.3937 17.773C22.1812 18.0472 22.7086 18.5605 22.8914 19.2144C22.9969 19.6011 22.9898 19.805 22.8492 19.9597C22.7508 20.0722 22.6031 20.0863 21.4078 20.0863H20.0859V21.9214V23.7636L20.55 23.7144C21.4289 23.623 22.125 23.2363 22.4062 22.6808C22.4836 22.5331 22.5469 22.3925 22.5469 22.3714C22.5469 22.3503 22.2515 22.3363 21.893 22.3363C21.1828 22.3363 21.0703 22.2871 21.0703 21.9847C21.0703 21.6613 21.1687 21.6331 22.2023 21.6331C23.3273 21.6331 23.3625 21.6472 23.2992 22.2027C23.1445 23.5105 22.0617 24.3331 20.3812 24.4246C19.2984 24.4878 19.3828 24.6988 19.3828 21.9074C19.3828 19.9105 19.3969 19.5871 19.4953 19.4956C19.5867 19.4042 19.8187 19.3831 20.9015 19.3831C21.6117 19.3831 22.1953 19.355 22.1953 19.3199C22.1953 19.2496 21.9281 18.891 21.7734 18.7644C21.5765 18.5956 21.0773 18.4058 20.6344 18.3285C19.9945 18.216 19.9523 18.1949 19.9031 18.005C19.875 17.8855 19.9031 17.7871 19.9875 17.6816C20.107 17.555 20.1773 17.548 20.543 17.5831C20.775 17.6042 21.1547 17.6956 21.3937 17.773Z" fill="white"/>
<path d="M28.6078 17.147C28.4882 17.2665 28.5023 17.4985 28.6711 17.8853C29.1281 18.947 29.3601 20.5431 29.2336 21.7595C28.8398 25.5142 26.0765 28.5165 22.4062 29.1634C21.7312 29.2829 20.2687 29.2829 19.5937 29.1634C18.082 28.8962 16.3664 28.0384 15.3961 27.0751C15.0867 26.7587 14.8476 26.6884 14.6859 26.8501C14.5664 26.9696 14.5664 29.7962 14.6859 29.9157C14.8195 30.0493 15.0726 30.0142 15.1922 29.8454C15.2765 29.7259 15.3047 29.4939 15.3047 28.8118V27.9399L15.4593 28.0806C16.0218 28.5798 17.175 29.1985 18.2086 29.5431C20.8242 30.4149 23.714 30.0071 26.0625 28.4321C26.7375 27.9821 27.982 26.7376 28.432 26.0626C30.014 23.6931 30.4148 20.8384 29.5289 18.1665C29.3882 17.7517 29.2195 17.3298 29.1422 17.2384C28.9945 17.0485 28.7484 17.0064 28.6078 17.147Z" fill="white"/>
</svg>
