<svg width="50" height="54" viewBox="0 0 50 54" fill="none" xmlns="http://www.w3.org/2000/svg">
<path d="M27.9531 53.209H5.38281C3.0529 53.209 1.16406 51.3201 1.16406 48.9902V5.00977C1.16406 2.67986 3.0529 0.791016 5.38281 0.791016H27.9531C30.283 0.791016 32.1719 2.67986 32.1719 5.00977V48.9902C32.1719 51.3201 30.283 53.209 27.9531 53.209Z" fill="#7B727B"/>
<path d="M27.9531 0.791016H24.7891C27.119 0.791016 29.0078 2.67986 29.0078 5.00977V48.9902C29.0078 51.3201 27.119 53.209 24.7891 53.209H27.9531C30.283 53.209 32.1719 51.3201 32.1719 48.9902V5.00977C32.1719 2.67986 30.283 0.791016 27.9531 0.791016Z" fill="#686169"/>
<path d="M29.4297 5.00977V48.9902C29.4297 49.8057 28.7686 50.4668 27.9531 50.4668H5.38281C4.56733 50.4668 3.90625 49.8057 3.90625 48.9902V5.00977C3.90625 4.19428 4.56733 3.5332 5.38281 3.5332H9.61253C9.85838 3.5332 10.0771 3.6893 10.1572 3.92175L10.7145 5.54101C10.7945 5.77346 11.0133 5.92956 11.2591 5.92956H22.0768C22.3227 5.92956 22.5414 5.77346 22.6215 5.54101L23.1788 3.92175C23.2588 3.6893 23.4776 3.5332 23.7234 3.5332H27.9531C28.7686 3.5332 29.4297 4.19428 29.4297 5.00977Z" fill="#D6FAEC"/>
<path d="M27.9531 3.5332H24.7891C25.6045 3.5332 26.2656 4.19428 26.2656 5.00977V48.9902C26.2656 49.8057 25.6045 50.4668 24.7891 50.4668H27.9531C28.7686 50.4668 29.4297 49.8057 29.4297 48.9902V5.00977C29.4297 4.19428 28.7686 3.5332 27.9531 3.5332Z" fill="#CCFAE8"/>
<path d="M20.7812 43.6641H12.5547C11.3315 43.6641 10.3398 42.6724 10.3398 41.4492C10.3398 40.226 11.3315 39.2344 12.5547 39.2344H20.7812C22.0045 39.2344 22.9961 40.226 22.9961 41.4492C22.9961 42.6724 22.0045 43.6641 20.7812 43.6641Z" fill="#2FD9E7"/>
<path d="M46.7655 34.4883H10.4064C9.2629 34.4883 8.33594 33.5613 8.33594 32.4178V11.2462C8.33594 10.1027 9.2629 9.17578 10.4064 9.17578H46.7656C47.909 9.17578 48.8359 10.1027 48.8359 11.2462V32.4179C48.8359 33.5613 47.909 34.4883 46.7655 34.4883Z" fill="#2FD9E7"/>
<path d="M46.7655 9.17578H43.6014C44.7449 9.17578 45.6719 10.1027 45.6719 11.2461V32.4179C45.6719 33.5613 44.7449 34.4883 43.6014 34.4883H46.7655C47.909 34.4883 48.836 33.5613 48.836 32.4179V11.2461C48.836 10.1027 47.909 9.17578 46.7655 9.17578Z" fill="#00D0E4"/>
<path d="M20.2539 18.7734H13.7148C13.3653 18.7734 13.082 18.4901 13.082 18.1406V13.9219C13.082 13.5724 13.3653 13.2891 13.7148 13.2891H20.2539C20.6034 13.2891 20.8867 13.5724 20.8867 13.9219V18.1406C20.8867 18.4901 20.6034 18.7734 20.2539 18.7734Z" fill="#FFE589"/>
<path d="M17.6172 30.5674H8.33594V25.0831H17.6172C19.1316 25.0831 20.3594 26.3108 20.3594 27.8252C20.3594 29.3398 19.1316 30.5674 17.6172 30.5674Z" fill="#FF6167"/>
<path d="M12.5546 38.4434C8.56603 38.6089 8.56909 44.291 12.5546 44.4551H20.7812C24.7698 44.2895 24.7668 38.6075 20.7812 38.4434H12.5546ZM22.205 41.4492C22.205 42.2343 21.5663 42.873 20.7812 42.873H12.5546C10.6653 42.7947 10.6668 40.103 12.5546 40.0254H20.7812C21.5663 40.0254 22.205 40.6641 22.205 41.4492Z" fill="black"/>
<path d="M46.7655 8.38477H42.7389C41.6915 8.42105 41.6923 9.93094 42.7389 9.9668H46.7655C47.471 9.9668 48.0449 10.5407 48.0449 11.2462V32.4178C48.0449 33.1233 47.4711 33.6973 46.7655 33.6973H10.4064C9.70091 33.6973 9.12695 33.1234 9.12695 32.4178V31.3586H17.6172C22.3056 31.1639 22.302 24.4851 17.6172 24.2922H9.12695V11.2462C9.12695 10.5408 9.70081 9.9668 10.4064 9.9668H39.0206C40.068 9.93052 40.0672 8.42062 39.0206 8.38477H32.9629V5.00977C32.9629 2.24743 30.7155 0 27.9531 0H5.38281C2.62048 0 0.373047 2.24743 0.373047 5.00977V9.54904C0.409328 10.5964 1.91922 10.5956 1.95508 9.54904V5.00977C1.95508 3.11966 3.49271 1.58203 5.38281 1.58203H27.9531C29.8432 1.58203 31.3809 3.11966 31.3809 5.00977V8.38477H30.2207V5.00977C30.2207 3.75943 29.2035 2.74219 27.9531 2.74219H23.7238C23.1408 2.74219 22.6212 3.11228 22.4305 3.66409L21.9237 5.13844H11.412L10.9048 3.66304C10.7146 3.11228 10.195 2.74229 9.6119 2.74229H5.38281C4.13248 2.74229 3.11523 3.75954 3.11523 5.00987V48.9903C3.11523 50.2407 4.13248 51.2579 5.38281 51.2579H27.9531C29.2035 51.2579 30.2207 50.2407 30.2207 48.9903V46.5171C30.1844 45.4697 28.6745 45.4705 28.6387 46.5171V48.9903C28.6387 49.3683 28.3311 49.6759 27.9531 49.6759H5.38281C5.00481 49.6759 4.69727 49.3683 4.69727 48.9903V5.00987C4.69727 4.63187 5.00481 4.32432 5.38281 4.32432H9.45939L9.96659 5.79962C10.1567 6.35048 10.6763 6.72047 11.2595 6.72047H22.0764C22.6595 6.72047 23.1792 6.35038 23.3698 5.79857L23.8765 4.32422H27.9531C28.3311 4.32422 28.6387 4.63177 28.6387 5.00977V8.38477H10.4064C8.82858 8.38477 7.54492 9.66843 7.54492 11.2462V32.4178C7.54492 33.9956 8.82858 35.2793 10.4064 35.2793H28.6387V42.828C28.675 43.8754 30.1848 43.8746 30.2207 42.828V35.2793H31.3809V48.9902C31.3809 50.8803 29.8432 52.418 27.9531 52.418H5.38281C3.49271 52.418 1.95508 50.8803 1.95508 48.9902V13.2891C1.9188 12.2417 0.408906 12.2425 0.373047 13.2891V48.9902C0.373047 51.7526 2.62048 54 5.38281 54H27.9531C30.7155 54 32.9629 51.7526 32.9629 48.9902V35.2793H46.7655C48.3433 35.2793 49.627 33.9956 49.627 32.4178V11.2462C49.627 9.66843 48.3433 8.38477 46.7655 8.38477ZM17.6172 25.8742C20.2063 25.9817 20.2043 29.67 17.6172 29.7766H9.12695V25.8742H17.6172Z" fill="black"/>
<path d="M34.6166 31.6146C35.0247 31.7703 35.4819 31.5652 35.6374 31.157L36.0139 30.1685H38.6023L38.9745 31.1548C39.1282 31.5676 39.5958 31.7689 39.9938 31.6154C40.4025 31.4612 40.6088 31.0049 40.4545 30.5961L38.1847 24.5815C38.1821 24.5743 38.1791 24.567 38.1762 24.5597C38.0322 24.2101 37.695 23.9843 37.3169 23.9843H37.3156C36.937 23.9847 36.5998 24.2114 36.4566 24.562C36.4542 24.5679 36.4519 24.5737 36.4496 24.5796L34.159 30.5939C34.0034 31.002 34.2084 31.459 34.6166 31.6146ZM37.314 26.7549L38.0052 28.5865H36.6164L37.314 26.7549Z" fill="black"/>
<path d="M41.8398 27.9939L41.8327 30.8734C41.8317 31.3104 42.185 31.6654 42.6217 31.6665H42.6237C43.0597 31.6665 43.4137 31.3136 43.4147 30.8775L43.4218 27.995L45.2268 25.2222C45.4652 24.856 45.3616 24.3661 44.9955 24.1278C44.6294 23.8892 44.1393 23.9929 43.9011 24.3591L42.6304 26.311L41.3452 24.3427C41.1061 23.9768 40.6163 23.8742 40.2504 24.1128C39.8846 24.3517 39.7817 24.8418 40.0204 25.2077L41.8398 27.9939Z" fill="black"/>
<path d="M29.6851 30.8759C29.7214 31.9233 31.2313 31.9225 31.2672 30.8759V29.0129C31.6012 29.0112 31.963 29.0097 32.1746 29.0097C35.5529 28.8712 35.5513 24.1225 32.1746 23.9847H30.4761C30.0503 23.9762 29.6754 24.3525 29.6851 24.7781V30.8759ZM32.1746 25.5667C32.6972 25.5667 33.1388 25.9928 33.1388 26.4972C33.1388 27.0015 32.6972 27.4276 32.1746 27.4276C31.9644 27.4276 31.6069 27.4291 31.2746 27.4308C31.2704 26.646 31.2719 26.3751 31.2695 25.5666H32.1746V25.5667Z" fill="black"/>
<path d="M13.7148 12.498C12.9297 12.498 12.291 13.1368 12.291 13.9219V18.1406C12.291 18.9257 12.9297 19.5645 13.7148 19.5645H20.2539C21.039 19.5645 21.6777 18.9257 21.6777 18.1406V13.9219C21.6777 13.1368 21.039 12.498 20.2539 12.498H13.7148ZM20.0957 17.9824H13.873V14.0801H20.0957V17.9824Z" fill="black"/>
<path d="M26.8883 15.1945V16.4602C26.9246 17.5076 28.4345 17.5067 28.4703 16.4602V15.1945C28.4342 14.1471 26.9242 14.148 26.8883 15.1945Z" fill="black"/>
<path d="M40.7261 17.2512C41.163 17.2512 41.5171 16.8971 41.5171 16.4602V15.1945C41.4808 14.1471 39.9709 14.148 39.9351 15.1945V16.4602C39.9351 16.8971 40.2892 17.2512 40.7261 17.2512Z" fill="black"/>
<path d="M44.3369 16.4602V15.1945C44.3006 14.1471 42.7907 14.148 42.7549 15.1945V16.4602C42.7911 17.5076 44.3011 17.5068 44.3369 16.4602Z" fill="black"/>
<path d="M32.5646 16.4602V15.1945C32.5283 14.1471 31.0184 14.148 30.9825 15.1945V16.4602C31.0187 17.5076 32.5287 17.5068 32.5646 16.4602Z" fill="black"/>
<path d="M34.7622 17.2512C35.1992 17.2512 35.5532 16.8971 35.5532 16.4602V15.1945C35.5169 14.1471 34.0071 14.148 33.9712 15.1945V16.4602C33.9712 16.8971 34.3252 17.2512 34.7622 17.2512Z" fill="black"/>
</svg>
