<svg height="48dp" viewBox="0 0 512 512"
     width="48dp" xmlns="http://www.w3.org/2000/svg">
    <path fill="#f4d9c4" d="m11,79h257v330h-257z"/>
    <path fill="#d1b7a6" d="m11,79h30v330h-30z"/>
    <path fill="#798795" d="m267.82,64.44v16.2h-256.82v-16.2a39.174,39.174 0,0 1,39.17 -39.17h178.49a39.165,39.165 0,0 1,39.16 39.17z"/>
    <path fill="#798795" d="m267.82,407.17v40.39a39.165,39.165 0,0 1,-39.16 39.17h-178.49a39.174,39.174 0,0 1,-39.17 -39.17v-40.39z"/>
    <path fill="#6d7486" d="m139.41,427.47a16.045,16.045 0,1 1,-16.04 16.05,16.055 16.055,0 0,1 16.04,-16.05z"/>
    <path fill="#4ca987" d="m498.53,170.815a19.109,19.109 0,0 0,-19.23 -18.815h-348.78a19.114,19.114 0,0 0,-19.23 19.375l2.41,166.487a22.5,22.5 0,0 0,22.67 22.138h345.4a19.064,19.064 0,0 0,19.23 -19.307z"/>
    <path fill="#5fcda4" d="m478.55,198.34v116.07l-24.54,23.05h-295.74l-23.78,-23.05v-116.07l24.54,-23.8h295.41z"/>
    <path fill="#4ca987" d="M306.52,256m-66.95,0a66.95,66.95 0,1 1,133.9 0a66.95,66.95 0,1 1,-133.9 0"/>
    <path fill="#4ca987" d="M437.55,256m-23.11,0a23.11,23.11 0,1 1,46.22 0a23.11,23.11 0,1 1,-46.22 0"/>
    <path fill="#4ca987" d="M175.49,256m-23.11,0a23.11,23.11 0,1 1,46.22 0a23.11,23.11 0,1 1,-46.22 0"/>
    <path fill="#3d8467" d="m269.57,256a66.953,66.953 0,0 1,51.95 -65.242,66.95 66.95,0 1,0 0,130.484 66.953,66.953 0,0 1,-51.95 -65.242z"/>
    <path fill="#566068" d="m41,64.44a39.405,39.405 0,0 1,39.17 -39.44h-30a39.405,39.405 0,0 0,-39.17 39.44v16.56h30z"/>
    <path fill="#566068" d="m41,447.56v-40.56h-30v40.56a39.405,39.405 0,0 0,39.17 39.44h30a39.405,39.405 0,0 1,-39.17 -39.44z"/>
    <path fill="#284268" d="m128,198.342v116.072a6.258,6.258 0,0 0,2.069 4.309l23.906,22.816a6.094,6.094 0,0 0,4.3 1.461h295.739a5.8,5.8 0,0 0,4.107 -1.4l24.762,-22.931a5.984,5.984 0,0 0,2.117 -4.255v-116.072a5.972,5.972 0,0 0,-2.01 -4.155l-24.334,-23.687a5.8,5.8 0,0 0,-4.215 -1.5h-295.413a5.8,5.8 0,0 0,-4.177 1.463l-24.784,23.687a6,6 0,0 0,-2.067 4.192zM140,200.881 L161.46,181h290.519l21.021,19.85v110.968l-21.362,19.182h-290.938l-20.7,-19.126z"/>
    <path fill="#284268" d="m306.652,279.181c-0.034,0 -0.083,0 -0.117,0s-0.074,0 -0.108,0a8.771,8.771 0,0 1,-8.663 -8.756,6 6,0 0,0 -6,-6 5.8,5.8 0,0 0,-5.762 6,20.448 20.448,0 0,0 15,19.87v3.674a6,6 0,1 0,12 0v-3.669a21.254,21.254 0,0 0,14.521 -19.87,20.887 20.887,0 0,0 -20.88,-20.761 8.823,8.823 0,0 1,-8.822 -8.761,8.732 8.732,0 1,1 17.463,0 6,6 0,0 0,6 6,6.209 6.209,0 0,0 6.239,-6 21.255,21.255 0,0 0,-14.523 -19.875v-3a6,6 0,1 0,-12 0v3a20.447,20.447 0,0 0,-15 19.867,20.682 20.682,0 0,0 20.641,20.761 8.759,8.759 0,0 1,0.011 17.517z"/>
    <path fill="#284268" d="m306.521,328.953a72.953,72.953 0,1 0,-72.954 -72.953,73.036 73.036,0 0,0 72.954,72.953zM306.521,195.047a60.953,60.953 0,1 1,-60.954 60.953,61.022 61.022,0 0,1 60.954,-60.953z"/>
    <path fill="#284268" d="m204.6,256a29.112,29.112 0,1 0,-29.112 29.111,29.145 29.145,0 0,0 29.112,-29.111zM158.377,256a17.112,17.112 0,1 1,17.111 17.111,17.13 17.13,0 0,1 -17.11,-17.111z"/>
    <path fill="#284268" d="m437.552,285.111a29.111,29.111 0,1 0,-29.112 -29.111,29.144 29.144,0 0,0 29.112,29.111zM437.552,238.889a17.111,17.111 0,1 1,-17.112 17.111,17.13 17.13,0 0,1 17.112,-17.111z"/>
    <path fill="#284268" d="m139.412,465.564a22.046,22.046 0,1 0,-22.046 -22.046,22.071 22.071,0 0,0 22.046,22.046zM139.412,433.472a10.046,10.046 0,1 1,-10.046 10.046,10.058 10.058,0 0,1 10.046,-10.046z"/>
    <path fill="#284268" d="m50.167,493h178.49a45.6,45.6 0,0 0,45.343 -45.442v-81.558h207.768a25,25 0,0 0,25.232 -25.325l-2.468,-169.945a25.219,25.219 0,0 0,-25.232 -24.73h-205.3v-81.558a45.6,45.6 0,0 0,-45.343 -45.442h-178.49c-24.905,0 -45.167,20.537 -45.167,45.442v383.116c0,24.905 20.262,45.442 45.167,45.442zM479.3,158a13.171,13.171 0,0 1,13.231 12.9l2.469,169.949a12.825,12.825 0,0 1,-3.808 9.344,13.006 13.006,0 0,1 -9.424,3.807h-345.4a16.62,16.62 0,0 1,-16.668 -16.29l-2.416,-166.627a12.746,12.746 0,0 1,3.807 -9.31,12.978 12.978,0 0,1 9.428,-3.773zM17,64.442a33.441,33.441 0,0 1,33.167 -33.442h178.49a33.591,33.591 0,0 1,33.343 33.442v10.558h-245zM17,87h245v59h-131.481a25,25 0,0 0,-25.23 25.393l2.416,166.525a28.639,28.639 0,0 0,28.664 28.082h125.631v35h-245zM17,413h245v34.558a33.591,33.591 0,0 1,-33.343 33.442h-178.49a33.441,33.441 0,0 1,-33.167 -33.442z"/>
    <path fill="#284268" d="m143.726,47h-8.626a6,6 0,0 0,0 12h8.626a6,6 0,0 0,0 -12z"/>
    <path fill="#284268" d="m36,103.835a6,6 0,0 0,-6 6v2.985a6,6 0,0 0,12 0v-2.985a6,6 0,0 0,-6 -6z"/>
    <path fill="#284268" d="m36,126.13a6,6 0,0 0,-6 6v86.67a6,6 0,0 0,12 0v-86.67a6,6 0,0 0,-6 -6z"/>
</svg>
