<svg
    height="28dp"
    viewBox="0 0 28 28"
    width="3dp"
    xmlns="http://www.w3.org/2000/svg">
  <path
      fill="#D9D9D9" d="M0,18.1723C0,17.5102 0.537,16.9723 1.197,16.9723C1.857,16.9723 2.395,17.5102 2.395,18.1723C2.395,18.8344 1.857,19.3723 1.197,19.3723C0.537,19.3723 0,18.8344 0,18.1723Z" />
  <path
      fill="#D9D9D9" d="M0,13.9293C0,13.2672 0.537,12.7293 1.197,12.7293C1.857,12.7293 2.395,13.2672 2.395,13.9293C2.395,14.5914 1.857,15.1293 1.197,15.1293C0.537,15.1293 0,14.5914 0,13.9293Z" />
  <path
      fill="#D9D9D9" d="M0,9.686C0,9.0239 0.537,8.486 1.197,8.486C1.857,8.486 2.395,9.0239 2.395,9.686C2.395,10.3481 1.857,10.886 1.197,10.886C0.537,10.886 0,10.3481 0,9.686Z" />
  <path
      fill="#D9D9D9" d="M0,5.443C0,4.7809 0.537,4.243 1.197,4.243C1.857,4.243 2.395,4.7809 2.395,5.443C2.395,6.1051 1.857,6.643 1.197,6.643C0.537,6.643 0,6.1051 0,5.443Z" />
  <path
      fill="#D9D9D9" d="M0,1.2C0,0.5379 0.537,-0 1.197,-0C1.857,-0 2.395,0.5379 2.395,1.2C2.395,1.8621 1.857,2.4 1.197,2.4C0.537,2.4 0,1.8621 0,1.2Z" />
  <path
      fill="#D9D9D9" d="M0,22.4154C0,21.7533 0.537,21.2154 1.197,21.2154C1.857,21.2154 2.395,21.7533 2.395,22.4154C2.395,23.0775 1.857,23.6154 1.197,23.6154C0.537,23.6154 0,23.0775 0,22.4154Z" />
  <path
      fill="#D9D9D9" d="M0,26.6583C0,25.9962 0.537,25.4583 1.197,25.4583C1.857,25.4583 2.395,25.9962 2.395,26.6583C2.395,27.3204 1.857,27.8583 1.197,27.8583C0.537,27.8583 0,27.3204 0,26.6583Z" />
</svg>
