<svg width="54" height="50" viewBox="0 0 54 50" fill="none" xmlns="http://www.w3.org/2000/svg">
<path d="M1.05469 4.48101H52.9453V12.9185H1.05469V4.48101Z" fill="#D1AEE5"/>
<path d="M1.05469 12.9185H52.9453V38.8619H1.05469V12.9185Z" fill="#EEFAFF"/>
<path d="M30.6629 1.83237H34.8817V8.69996H30.6629V1.83237Z" fill="#EEFAFF"/>
<path d="M19.1183 1.83237H23.337V8.69996H19.1183V1.83237Z" fill="#EEFAFF"/>
<path d="M42.2075 1.83237H46.4263V8.69996H42.2075V1.83237Z" fill="#EEFAFF"/>
<path d="M7.57379 1.83237H11.7925V8.69996H7.57379V1.83237Z" fill="#EEFAFF"/>
<path d="M7.21405 18.0506H12.4875V23.324H7.21405V18.0506Z" fill="#FFF2A0"/>
<path d="M18.6469 18.0506H23.9203V23.324H18.6469V18.0506Z" fill="#FFF2A0"/>
<path d="M30.0797 18.0506H35.3531V23.324H30.0797V18.0506Z" fill="#FFF2A0"/>
<path d="M41.5125 18.0506H46.7859V23.324H41.5125V18.0506Z" fill="#FFF2A0"/>
<path d="M7.21405 28.4561H12.4875V33.7296H7.21405V28.4561Z" fill="#FFF2A0"/>
<path d="M18.6469 28.4561H23.9203V33.7296H18.6469V28.4561Z" fill="#FFF2A0"/>
<path d="M38.4328 48.1682C43.876 48.1682 48.2885 43.7556 48.2885 38.3125C48.2885 32.8694 43.876 28.4569 38.4328 28.4569C32.9897 28.4569 28.5772 32.8694 28.5772 38.3125C28.5772 43.7556 32.9897 48.1682 38.4328 48.1682Z" fill="#FF7D97"/>
<path d="M15.4554 39.9167C16.0379 39.9167 16.5101 39.4445 16.5101 38.862C16.5101 38.2795 16.0379 37.8073 15.4554 37.8073C14.8729 37.8073 14.4007 38.2795 14.4007 38.862C14.4007 39.4445 14.8729 39.9167 15.4554 39.9167Z" fill="black"/>
<path d="M52.9453 3.42642H47.481V1.83237C47.481 1.24997 47.0087 0.777681 46.4263 0.777681H42.2075C41.625 0.777681 41.1529 1.24997 41.1529 1.83237V3.42642H35.9364V1.83237C35.9364 1.24997 35.4641 0.777681 34.8817 0.777681H30.6629C30.0805 0.777681 29.6082 1.24997 29.6082 1.83237V3.42642H24.3918V1.83237C24.3918 1.24997 23.9196 0.777681 23.3371 0.777681H19.1183C18.5358 0.777681 18.0636 1.24997 18.0636 1.83237V3.42642H12.8471V1.83237C12.8471 1.24997 12.375 0.777681 11.7925 0.777681H7.57371C6.99121 0.777681 6.51902 1.24997 6.51902 1.83237V3.42642H1.05469C0.472184 3.42642 0 3.89871 0 4.48111V38.8618C0 39.4442 0.472184 39.9165 1.05469 39.9165H10.7093C11.2918 39.9165 11.764 39.4442 11.764 38.8618C11.764 38.2794 11.2918 37.8071 10.7093 37.8071H2.10938V13.9734H51.8906V37.8071H49.331C49.0662 32.0248 44.2795 27.4019 38.4328 27.4019C32.5862 27.4019 27.7995 32.0248 27.5345 37.8071H20.2015C19.619 37.8071 19.1468 38.2794 19.1468 38.8618C19.1468 39.4442 19.619 39.9165 20.2015 39.9165H27.6407C28.419 45.1745 32.9618 49.2224 38.4328 49.2224C43.9038 49.2224 48.4466 45.1745 49.2249 39.9165H52.9453C53.5277 39.9165 54 39.4442 54 38.8618V4.48111C54 3.89871 53.5277 3.42642 52.9453 3.42642ZM38.4328 47.1131C33.5799 47.1131 29.6319 43.1649 29.6319 38.3122C29.6319 33.4593 33.58 29.5113 38.4328 29.5113C43.2856 29.5113 47.2337 33.4594 47.2337 38.3122C47.2338 43.1649 43.2856 47.1131 38.4328 47.1131ZM43.2622 2.88706H45.3716V7.64528H43.2622V2.88706ZM31.7176 2.88706H33.827V7.64528H31.7176V2.88706ZM20.173 2.88706H22.2824V7.64528H20.173V2.88706ZM8.6285 2.88706H10.7379V7.64528H8.6285V2.88706ZM2.10938 11.864V5.5358H6.51913V8.69997C6.51913 9.28237 6.99131 9.75465 7.57382 9.75465H11.7926C12.3751 9.75465 12.8473 9.28237 12.8473 8.69997V5.5358H18.0637V8.69997C18.0637 9.28237 18.5359 9.75465 19.1184 9.75465H23.3372C23.9197 9.75465 24.3919 9.28237 24.3919 8.69997V5.5358H29.6083V8.69997C29.6083 9.28237 30.0806 9.75465 30.663 9.75465H34.8818C35.4642 9.75465 35.9365 9.28237 35.9365 8.69997V5.5358H41.1529V8.69997C41.1529 9.28237 41.625 9.75465 42.2075 9.75465H46.4263C47.0087 9.75465 47.481 9.28237 47.481 8.69997V5.5358H51.8906V11.864H2.10938Z" fill="black"/>
<path d="M12.4875 16.9959H7.21405C6.63155 16.9959 6.15936 17.4681 6.15936 18.0506V23.324C6.15936 23.9064 6.63155 24.3787 7.21405 24.3787H12.4875C13.07 24.3787 13.5422 23.9064 13.5422 23.324V18.0506C13.5422 17.4682 13.07 16.9959 12.4875 16.9959ZM11.4328 22.2694H8.26874V19.1053H11.4328V22.2694Z" fill="black"/>
<path d="M18.6469 24.3787H23.9203C24.5029 24.3787 24.975 23.9064 24.975 23.324V18.0506C24.975 17.4681 24.5029 16.9959 23.9203 16.9959H18.6469C18.0644 16.9959 17.5922 17.4681 17.5922 18.0506V23.324C17.5922 23.9065 18.0644 24.3787 18.6469 24.3787ZM19.7016 19.1053H22.8657V22.2694H19.7016V19.1053Z" fill="black"/>
<path d="M35.3531 24.3787C35.9355 24.3787 36.4078 23.9064 36.4078 23.324V18.0506C36.4078 17.4681 35.9355 16.9959 35.3531 16.9959H30.0797C29.4973 16.9959 29.025 17.4681 29.025 18.0506V23.324C29.025 23.9064 29.4973 24.3787 30.0797 24.3787H35.3531ZM31.1344 19.1053H34.2985V22.2694H31.1344V19.1053Z" fill="black"/>
<path d="M46.7859 24.3787C47.3683 24.3787 47.8406 23.9064 47.8406 23.324V18.0506C47.8406 17.4681 47.3683 16.9959 46.7859 16.9959H41.5125C40.93 16.9959 40.4578 17.4681 40.4578 18.0506V23.324C40.4578 23.9064 40.93 24.3787 41.5125 24.3787H46.7859ZM42.5672 19.1053H45.7313V22.2694H42.5672V19.1053Z" fill="black"/>
<path d="M12.4875 27.4022H7.21405C6.63155 27.4022 6.15936 27.8745 6.15936 28.4569V33.7303C6.15936 34.3127 6.63155 34.785 7.21405 34.785H12.4875C13.07 34.785 13.5422 34.3127 13.5422 33.7303V28.4569C13.5422 27.8745 13.07 27.4022 12.4875 27.4022ZM11.4328 32.6756H8.26874V29.5116H11.4328V32.6756Z" fill="black"/>
<path d="M24.975 33.7303V28.4569C24.975 27.8745 24.5029 27.4022 23.9203 27.4022H18.6469C18.0644 27.4022 17.5922 27.8745 17.5922 28.4569V33.7303C17.5922 34.3127 18.0644 34.785 18.6469 34.785H23.9203C24.5029 34.785 24.975 34.3128 24.975 33.7303ZM22.8657 32.6756H19.7016V29.5116H22.8657V32.6756Z" fill="black"/>
<path d="M41.8782 34.8665C41.4663 34.4548 40.7987 34.4548 40.3866 34.8665L34.9872 40.2659C34.5754 40.6777 34.5754 41.3456 34.9872 41.7575C35.1932 41.9634 35.4631 42.0665 35.733 42.0665C36.003 42.0665 36.2728 41.9634 36.4788 41.7575L41.8781 36.3582C42.2902 35.9462 42.2902 35.2784 41.8782 34.8665Z" fill="black"/>
<path d="M35.4497 36.384C36.0322 36.384 36.5044 35.9118 36.5044 35.3293C36.5044 34.7468 36.0322 34.2746 35.4497 34.2746C34.8672 34.2746 34.395 34.7468 34.395 35.3293C34.395 35.9118 34.8672 36.384 35.4497 36.384Z" fill="black"/>
<path d="M41.4159 42.35C41.9984 42.35 42.4706 41.8778 42.4706 41.2953C42.4706 40.7128 41.9984 40.2406 41.4159 40.2406C40.8334 40.2406 40.3612 40.7128 40.3612 41.2953C40.3612 41.8778 40.8334 42.35 41.4159 42.35Z" fill="black"/>
</svg>
