<?xml version="1.0" standalone="no"?>
<!DOCTYPE svg PUBLIC "-//W3C//DTD SVG 20010904//EN"
 "http://www.w3.org/TR/2001/REC-SVG-20010904/DTD/svg10.dtd">
<svg version="1.0" xmlns="http://www.w3.org/2000/svg"
 width="42.000000pt" height="42.000000pt" viewBox="0 0 42.000000 42.000000"
 preserveAspectRatio="xMidYMid meet">

<g transform="translate(0.000000,42.000000) scale(0.100000,-0.100000)"
fill="#000000" stroke="none">
<path d="M88 379 c-16 -9 -18 -26 -18 -135 0 -124 0 -124 26 -134 33 -13 265
-13 298 0 26 10 26 10 26 134 0 114 -2 126 -19 136 -25 13 -290 13 -313 -1z
m309 -99 l3 -85 -41 48 c-23 26 -45 47 -49 47 -10 0 -25 -15 -64 -60 -25 -30
-28 -31 -45 -16 -25 22 -30 21 -73 -21 l-38 -37 0 100 c0 56 3 104 7 108 4 3
72 5 152 4 l146 -3 2 -85z m1 -135 c-3 -19 -11 -20 -150 -23 -82 -1 -148 1
-148 6 0 4 17 25 38 45 34 33 40 36 52 22 20 -24 36 -18 77 31 l38 47 48 -54
c30 -34 47 -61 45 -74z"/>
<path d="M132 318 c-18 -18 -15 -36 9 -48 26 -14 51 4 47 34 -3 24 -37 33 -56
14z m38 -24 c0 -9 -5 -14 -12 -12 -18 6 -21 28 -4 28 9 0 16 -7 16 -16z"/>
<path d="M33 230 c-6 -14 -16 -49 -23 -78 -10 -45 -10 -56 1 -66 8 -7 78 -30
157 -51 124 -33 145 -36 157 -24 19 18 33 85 17 75 -7 -4 -12 -15 -12 -24 -1
-47 -11 -47 -164 -7 -104 27 -146 42 -146 52 0 8 7 39 16 69 16 57 14 98 -3
54z"/>
</g>
</svg>
