<svg width="21" height="18" viewBox="0 0 21 18" fill="none" xmlns="http://www.w3.org/2000/svg">
<path d="M8.32029 0.0924358C7.96533 0.210865 7.56599 0.463172 7.2909 0.741225C7.0158 1.02443 6.68302 1.57538 6.5721 1.95127L6.48779 2.23447L3.45286 2.26022L0.422358 2.28596L0.275935 2.40439C-0.101213 2.71849 -0.0879021 3.37758 0.306995 3.66078L0.466728 3.77921L3.47504 3.80495L6.48336 3.8307L6.58541 4.1242C6.98474 5.26215 7.81447 5.96758 8.8483 6.05512C9.97531 6.1478 11.0713 5.32909 11.4528 4.10875L11.5505 3.80495L16.0141 3.79465L20.4778 3.77921L20.6375 3.66078C21.0635 3.35698 21.0369 2.63095 20.5887 2.35805C20.4423 2.26537 20.2293 2.26022 15.9919 2.26022H11.5505L11.4528 1.96157C11.1689 1.04502 10.4767 0.324146 9.6514 0.0718393C9.30532 -0.0311427 8.66194 -0.0208449 8.32029 0.0924358ZM9.6026 1.66292C10.0685 1.92552 10.3125 2.40439 10.317 3.03258C10.317 3.48056 10.2149 3.77406 9.95312 4.08815C9.14114 5.06134 7.70798 4.38165 7.70798 3.02744C7.70798 2.36835 8.08513 1.76075 8.61757 1.55994C8.89711 1.45695 9.31419 1.49815 9.6026 1.66292Z" fill="#185ADB"/>
<path d="M15.7437 6.15807C15.0294 6.35374 14.3682 6.98193 14.031 7.76975C13.929 8.00661 13.8447 8.23317 13.8447 8.26921C13.8447 8.331 12.8286 8.3413 7.19799 8.3413H0.551302L0.356073 8.45458C-0.118691 8.73263 -0.118691 9.4947 0.356073 9.76761L0.551302 9.88604H7.19799C12.8286 9.88604 13.8447 9.89633 13.8447 9.95812C13.8447 9.99417 13.929 10.2207 14.031 10.4576C14.5058 11.5646 15.4509 12.2031 16.5069 12.1362C17.2035 12.0899 17.7404 11.8067 18.224 11.2403C18.4769 10.9365 18.792 10.334 18.8674 9.99932C18.894 9.88604 18.9029 9.88604 19.6439 9.88604C20.3316 9.88604 20.4071 9.87574 20.589 9.76761C21.0637 9.48955 21.0637 8.73263 20.589 8.45458C20.4071 8.3516 20.3316 8.3413 19.6439 8.3413C18.9029 8.3413 18.894 8.3413 18.8674 8.22802C18.8541 8.16108 18.7654 7.92937 18.6677 7.70796C18.3438 6.95619 17.7005 6.36919 16.9728 6.15292C16.6533 6.06024 16.0854 6.06024 15.7437 6.15807ZM16.8974 7.7234C17.1591 7.85213 17.4476 8.19197 17.5762 8.51122C17.6916 8.80987 17.6916 9.41747 17.5762 9.71611C17.3544 10.2825 16.8885 10.6275 16.3516 10.6275C15.5086 10.6275 14.8874 9.71611 15.087 8.76353C15.2778 7.82639 16.1298 7.34237 16.8974 7.7234Z" fill="#185ADB"/>
<path d="M4.56174 12.0051C3.66545 12.2317 2.92447 13.0298 2.61831 14.1008C2.59613 14.1781 2.48076 14.1884 1.55786 14.2038C0.572836 14.2193 0.515155 14.2244 0.364295 14.3377C-0.0616606 14.6415 -0.0350384 15.3675 0.413103 15.6404C0.550651 15.728 0.679325 15.7382 1.58004 15.7382C2.59613 15.7382 2.59613 15.7382 2.62275 15.8515C2.63606 15.9185 2.72924 16.1553 2.82242 16.3767C3.14632 17.1285 3.76751 17.7052 4.49518 17.9266C4.81465 18.0245 5.42696 18.0245 5.75974 17.9266C6.50072 17.7001 7.13522 17.0976 7.468 16.3047C7.56561 16.0678 7.64548 15.8412 7.64548 15.8052C7.64548 15.7485 8.8213 15.7382 14.0703 15.7382C20.2334 15.7382 20.4996 15.7331 20.646 15.6404C21.0942 15.3675 21.1208 14.6415 20.6948 14.3377L20.5351 14.2193L14.0969 14.2038L7.65879 14.1935L7.56118 13.8897C7.12635 12.5098 5.81298 11.6859 4.56174 12.0051ZM5.67543 13.5962C5.94166 13.7404 6.18569 14.0184 6.32324 14.3428C6.46079 14.6621 6.46523 15.2491 6.33212 15.5889C6.04815 16.2995 5.36928 16.6599 4.73922 16.4334C4.40644 16.3098 4.05591 15.9442 3.91837 15.5786C3.78969 15.2285 3.78525 14.7084 3.90949 14.3892C4.21565 13.5756 4.97882 13.2358 5.67543 13.5962Z" fill="#185ADB"/>
</svg>
