<svg width="50" height="54" viewBox="0 0 50 54" fill="none" xmlns="http://www.w3.org/2000/svg">
<path d="M3.6335 53.209H28.8579C30.0744 53.209 31.0605 52.2229 31.0605 51.0065V2.99376C31.0605 1.7774 30.0744 0.791268 28.8579 0.791268H3.6335C2.41704 0.791268 1.43091 1.7774 1.43091 2.99376V51.0065C1.43091 52.2229 2.41704 53.209 3.6335 53.209Z" fill="#FEE97D"/>
<path d="M28.8579 0.79222H24.6392C25.8556 0.79222 26.8418 1.77824 26.8418 2.99471V51.0074C26.8418 52.2238 25.8556 53.2099 24.6392 53.2099H28.8579C30.0744 53.2099 31.0605 52.2239 31.0605 51.0074V2.99461C31.0605 1.77824 30.0744 0.79222 28.8579 0.79222Z" fill="#FEE45A"/>
<path d="M16.2457 49.685C17.7968 49.685 19.0542 48.4278 19.0542 46.877C19.0542 45.3262 17.7968 44.069 16.2457 44.069C14.6946 44.069 13.4371 45.3262 13.4371 46.877C13.4371 48.4278 14.6946 49.685 16.2457 49.685Z" fill="#7BACDF"/>
<path d="M12.5827 4.864H19.9088C21.1253 4.864 22.1113 3.87786 22.1113 2.66149V0.792269H10.3801V2.66149C10.3801 3.87786 11.3663 4.864 12.5827 4.864Z" fill="#7BACDF"/>
<path d="M25.7013 38.5337H6.79021V19.6259H25.7013V38.5337Z" fill="#FAF7F7"/>
<path d="M30.3977 16.0423C29.356 14.4359 28.7668 12.5089 28.8145 10.4408C28.9383 5.0722 33.4042 0.749488 38.7742 0.792519C44.1671 0.835655 48.5309 5.19887 48.5748 10.5917C48.6188 15.9931 44.2454 20.4738 38.8444 20.5545C36.7549 20.5857 34.8123 19.9672 33.2031 18.8895L29.9267 20.0354C29.511 20.1808 29.1106 19.7826 29.2539 19.366L30.3977 16.0423Z" fill="#FAF7F7"/>
<path d="M38.7742 0.792512C38.0259 0.7865 37.2954 0.865496 36.5916 1.02011C41.0061 1.98367 44.3179 5.89727 44.3561 10.5917C44.3947 15.3239 41.0425 19.3491 36.5793 20.3283C37.3076 20.4872 38.0657 20.5661 38.8444 20.5545C44.2454 20.4738 48.619 15.9931 48.5749 10.5917C48.5308 5.19886 44.1671 0.835648 38.7742 0.792512Z" fill="#F9F3F1"/>
<path d="M44.9143 10.6732C44.9143 11.309 44.1747 11.8202 43.9885 12.3938C43.7955 12.9883 44.0865 13.8353 43.7264 14.3301C43.3626 14.8299 42.4648 14.813 41.9649 15.1767C41.4701 15.5369 41.2107 16.398 40.6162 16.5911C40.0426 16.7773 39.3292 16.2392 38.6934 16.2392C38.0576 16.2392 37.3442 16.7773 36.7706 16.5911C36.1761 16.398 35.9167 15.5369 35.4219 15.1767C34.922 14.813 34.0242 14.8299 33.6604 14.33C33.3003 13.8352 33.5915 12.9882 33.3983 12.3937C33.2121 11.8201 32.4725 11.3089 32.4725 10.6731C32.4725 10.0373 33.2121 9.52613 33.3983 8.95248C33.5913 8.35795 33.3003 7.51104 33.6604 7.01618C34.0242 6.51636 34.922 6.53334 35.4219 6.16958C35.9167 5.80941 36.1761 4.94826 36.7706 4.75525C37.3442 4.56899 38.0576 5.10709 38.6934 5.10709C39.3292 5.10709 40.0426 4.56899 40.6162 4.75525C41.2107 4.94826 41.4701 5.80941 41.9649 6.16958C42.4648 6.53334 43.3626 6.51636 43.7264 7.01629C44.0865 7.51115 43.7953 8.35806 43.9885 8.95259C44.1748 9.52634 44.9143 10.0374 44.9143 10.6732Z" fill="#CEEFDD"/>
<path d="M16.2457 43.278C14.261 43.278 12.6462 44.8925 12.6462 46.877C12.8272 51.6452 19.6651 51.6438 19.8452 46.877C19.8452 44.8925 18.2305 43.278 16.2457 43.278ZM16.2457 48.8941C15.1333 48.8941 14.2283 47.9893 14.2283 46.877C14.3297 44.2049 18.1623 44.2056 18.2632 46.877C18.2632 47.9892 17.3582 48.8941 16.2457 48.8941Z" fill="black"/>
<path d="M25.7012 18.8355H6.79016C6.35331 18.8355 5.99915 19.1897 5.99915 19.6265V31.1809C6.03152 32.2267 7.54911 32.226 7.58117 31.1809V20.4175H24.9102V37.7432H7.58117V35.3954C7.54879 34.3496 6.03121 34.3503 5.99915 35.3954V38.5342C5.99915 38.9711 6.35331 39.3252 6.79016 39.3252H25.7012C26.1381 39.3252 26.4922 38.9711 26.4922 38.5342V19.6265C26.4922 19.1897 26.1381 18.8355 25.7012 18.8355Z" fill="black"/>
<path d="M23.1756 26.1511C23.6125 26.1511 23.9667 25.7969 23.9667 25.3601V22.2066C23.9667 21.7697 23.6125 21.4155 23.1756 21.4155H20.0216C19.5848 21.4155 19.2306 21.7697 19.2306 22.2066V25.3601C19.2306 25.7969 19.5848 26.1511 20.0216 26.1511H23.1756ZM20.8126 22.9977H22.3846V24.5692H20.8126V22.9977Z" fill="black"/>
<path d="M23.1756 32.1136H20.0216C19.5848 32.1136 19.2306 32.4677 19.2306 32.9046V36.0581C19.2306 36.4949 19.5848 36.8491 20.0216 36.8491H23.1756C23.6125 36.8491 23.9667 36.4949 23.9667 36.0581V32.9046C23.9667 32.4677 23.6125 32.1136 23.1756 32.1136ZM22.3846 35.2671H20.8126V33.6956H22.3846V35.2671Z" fill="black"/>
<path d="M9.24902 26.1511H12.4031C12.8399 26.1511 13.1941 25.7969 13.1941 25.3601V22.2066C13.1941 21.7697 12.8399 21.4155 12.4031 21.4155H9.24902C8.81217 21.4155 8.45801 21.7697 8.45801 22.2066V25.3601C8.45801 25.797 8.81217 26.1511 9.24902 26.1511ZM10.04 22.9977H11.6121V24.5692H10.04V22.9977Z" fill="black"/>
<path d="M17.4839 21.4153C17.047 21.4153 16.6929 21.7695 16.6929 22.2063V27.8141C16.6929 28.2509 17.047 28.6051 17.4839 28.6051H22.3848V29.6932H20.0218C18.976 29.7256 18.9767 31.2432 20.0218 31.2752H23.1758C23.6127 31.2752 23.9668 30.9211 23.9668 30.4842V27.8141C23.9668 27.3772 23.6127 27.0231 23.1758 27.0231H18.2749V22.2063C18.2749 21.7695 17.9207 21.4153 17.4839 21.4153Z" fill="black"/>
<path d="M14.8961 21.4153C14.4593 21.4153 14.1051 21.7695 14.1051 22.2063V23.1837C14.1375 24.2295 15.6551 24.2288 15.6871 23.1837V22.2063C15.6871 21.7695 15.3331 21.4153 14.8961 21.4153Z" fill="black"/>
<path d="M17.484 32.1136C17.0471 32.1136 16.6929 32.4677 16.6929 32.9046V35.2671H14.8963C13.8504 35.2994 13.8512 36.817 14.8963 36.8491H17.484C17.9208 36.8491 18.275 36.4949 18.275 36.0581V32.9046C18.275 32.4677 17.9208 32.1136 17.484 32.1136Z" fill="black"/>
<path d="M8.45801 36.0588C8.45801 36.4956 8.81217 36.8498 9.24902 36.8498H12.4031C12.8399 36.8498 13.1941 36.4956 13.1941 36.0588V30.4848C13.1617 29.439 11.6441 29.4397 11.6121 30.4848V35.2678H10.04V28.6369H14.8961C15.333 28.6369 15.6872 28.2827 15.6872 27.8458V25.3606C15.6548 24.3148 14.1372 24.3155 14.1051 25.3606V27.0548H9.24902C8.81217 27.0548 8.45801 27.409 8.45801 27.8458V36.0588Z" fill="black"/>
<path d="M14.1051 30.4843V32.9047C14.1375 33.9506 15.6551 33.9498 15.6871 32.9047V31.2754H17.4838C18.5296 31.243 18.5289 29.7254 17.4838 29.6933H14.8961C14.4593 29.6933 14.1051 30.0475 14.1051 30.4843Z" fill="black"/>
<path d="M9.29874 11.4646H23.1928C24.2386 11.4323 24.2379 9.91468 23.1928 9.88262H9.29874C8.25291 9.91499 8.25365 11.4326 9.29874 11.4646Z" fill="black"/>
<path d="M11.9355 13.975C10.8896 14.0074 10.8904 15.525 11.9355 15.557H20.556C21.6019 15.5246 21.6011 14.0071 20.556 13.975H11.9355Z" fill="black"/>
<path d="M46.6978 3.61447C46.4087 3.28688 45.9088 3.25566 45.5813 3.54475C45.2538 3.83384 45.2225 4.33365 45.5116 4.66124C50.6373 10.3715 46.5 19.6993 38.8324 19.7629C36.9709 19.7902 35.1805 19.2611 33.6432 18.2315C33.4365 18.0931 33.1767 18.0601 32.9419 18.1421L30.1789 19.1085L31.1457 16.299C31.2248 16.069 31.1938 15.8153 31.0614 15.6113C30.0665 14.0769 29.5629 12.2951 29.6053 10.4585C29.6622 4.06787 36.6944 -0.344596 42.4647 2.39905C42.8623 2.58046 43.3314 2.40549 43.5128 2.00798C43.6943 1.61057 43.5192 1.14134 43.1218 0.959834C39.4759 -0.775539 34.764 -0.067215 31.8163 2.53437C31.5945 1.10116 30.3524 0.000495572 28.858 0.000495572H22.1113C17.8408 0.00207759 7.7978 -0.000664577 3.6335 0.000495572C1.98282 0.000495572 0.639893 1.34332 0.639893 2.994V51.0067C0.639893 52.6572 1.98282 54.0002 3.6335 54.0002H28.8579C30.5086 54.0002 31.8515 52.6574 31.8515 51.0067V20.1993L33.0999 19.7627C34.8187 20.8234 36.8371 21.3753 38.856 21.3446C47.8624 21.2688 52.7141 10.3169 46.6978 3.61447ZM21.3203 1.58252V2.66072C21.3203 3.43897 20.6871 4.0722 19.9088 4.0722H12.5828C11.8045 4.0722 11.1713 3.43897 11.1713 2.66072V1.58252H21.3203ZM30.2696 51.0067C30.2696 51.7849 29.6364 52.4181 28.858 52.4181H3.6335C2.85515 52.4181 2.22191 51.785 2.22191 51.0067V2.994C2.22191 2.21575 2.85515 1.58252 3.6335 1.58252H9.58918V2.66072C9.58918 4.31129 10.9321 5.65422 12.5827 5.65422H19.9087C21.5593 5.65422 22.9022 4.31129 22.9022 2.66072V1.58252H28.8579C29.6362 1.58252 30.2695 2.21564 30.2695 2.994V4.14603C27.6214 7.39655 27.2665 12.5204 29.5272 16.1402L28.5058 19.1078C28.1162 20.2399 29.2703 21.0436 30.2694 20.7527V51.0067H30.2696Z" fill="black"/>
<path d="M42.4305 5.53002C42.3303 5.45704 42.1931 5.25876 42.072 5.08378C41.3379 4.02277 40.5018 3.73853 39.2818 4.16104C38.8895 4.36776 38.4973 4.36776 38.1051 4.16104C36.8851 3.73885 36.0492 4.02266 35.315 5.08378C35.1324 5.46442 34.8314 5.68274 34.4121 5.73864C33.1756 6.112 32.6537 6.82455 32.6784 8.11612C32.7554 8.53124 32.6424 8.88393 32.3396 9.17397C31.5428 10.2181 31.5427 11.1283 32.3396 12.1724C32.6424 12.4625 32.7552 12.8151 32.6784 13.2302C32.6536 14.5218 33.1756 15.2343 34.4121 15.6077C34.8314 15.6637 35.1324 15.882 35.315 16.2626C36.0665 17.3486 36.8492 17.6203 38.1053 17.1853C38.4975 16.9785 38.8896 16.9785 39.2819 17.1853C40.5019 17.6076 41.3379 17.3237 42.0721 16.2625C42.2547 15.8819 42.5556 15.6636 42.975 15.6077C44.2114 15.2343 44.7334 14.5217 44.7087 13.2301C44.6317 12.815 44.7446 12.4624 45.0474 12.1723C45.8443 11.1283 45.8443 10.2181 45.0474 9.17397C44.7446 8.88393 44.6318 8.53124 44.7087 8.11612C44.7333 6.82455 44.2114 6.112 42.975 5.73864C42.7685 5.67631 42.5345 5.60564 42.4305 5.53002ZM43.0864 7.48098C43.137 7.56167 43.1306 7.88978 43.1268 8.08585C43.1095 8.98971 43.2811 9.46728 43.7897 10.1338C44.1561 10.6139 44.1561 10.7325 43.7897 11.2126C43.281 11.8789 43.1094 12.3568 43.1268 13.2605C43.138 13.8447 43.0778 13.924 42.5174 14.0932C41.733 14.3301 41.2373 14.6885 40.771 15.3623C40.4389 15.8424 40.3489 15.8807 39.7994 15.6902C39.0085 15.4165 38.3784 15.4165 37.5875 15.6902C37.0387 15.8802 36.9485 15.8428 36.6159 15.3623C36.1498 14.6884 35.6538 14.33 34.8695 14.0931C34.3095 13.9241 34.2489 13.8449 34.2602 13.2605C34.2776 12.3568 34.106 11.8788 33.5973 11.2126C33.231 10.7326 33.2309 10.6138 33.5973 10.1338C34.106 9.46738 34.2775 8.98971 34.2603 8.08585C34.2491 7.50176 34.3093 7.42245 34.8696 7.25317C35.6541 7.01629 36.1499 6.6579 36.6161 5.98396C36.9718 5.47001 36.9485 5.43468 37.5877 5.65606C38.3785 5.92996 39.0088 5.92996 39.7996 5.65606C40.3486 5.46621 40.4386 5.50344 40.7713 5.98406C41.2376 6.6579 41.7333 7.01639 42.5178 7.25328C42.696 7.30706 43.0282 7.40737 43.0864 7.48098Z" fill="black"/>
<path d="M40.5509 7.91966C40.1888 7.67529 39.6971 7.77074 39.4528 8.13302L36.6224 12.3285C36.3781 12.6906 36.4736 13.1822 36.8358 13.4266C37.1932 13.6692 37.6881 13.5782 37.9339 13.2132L40.7643 9.0178C41.0087 8.65562 40.9132 8.16392 40.5509 7.91966Z" fill="black"/>
<path d="M40.1086 11.98C39.0906 11.98 39.0889 13.5621 40.1086 13.5621C41.1266 13.5621 41.1283 11.98 40.1086 11.98Z" fill="black"/>
<path d="M37.2783 9.36625C38.2963 9.36625 38.298 7.78422 37.2783 7.78422C36.2603 7.78422 36.2586 9.36625 37.2783 9.36625Z" fill="black"/>
</svg>
