<svg width="54" height="54" viewBox="0 0 54 54" fill="none" xmlns="http://www.w3.org/2000/svg">
<path d="M43.0312 27L52.3125 17.7188L36.2812 1.6875L10.9688 27" fill="#78B75B"/>
<path d="M18.5625 27C18.5625 24.8409 19.386 22.6817 21.0338 21.0339C24.3287 17.739 29.6713 17.739 32.9662 21.0339C34.614 22.6817 35.4375 24.8409 35.4375 27" fill="#669E4F"/>
<path d="M32.7602 28.1933C32.7602 27.2921 32.4092 26.4442 31.7713 25.8063C30.4973 24.5314 28.2732 24.5314 26.9999 25.8063L24.613 23.4193C25.272 22.762 26.341 22.7629 26.9999 23.4202L28.1922 22.2263C26.8776 20.9117 24.7362 20.9109 23.4199 22.2263L22.8234 21.6297L21.6295 22.8236L22.2269 23.421C21.589 24.058 21.2388 24.9052 21.2388 25.8071C21.238 26.7083 21.5898 27.5562 22.2277 28.1941C22.8647 28.8311 23.7127 29.1821 24.6138 29.1821C25.515 29.1821 26.3621 28.8311 26.9991 28.1941L29.3861 30.5811C28.7271 31.2383 27.6581 31.2375 26.9991 30.5802L25.8069 31.7741C26.4642 32.4314 27.329 32.7605 28.193 32.7605C29.057 32.7605 29.921 32.4314 30.5791 31.7741L31.1757 32.3707L32.3696 31.1768L31.7722 30.5794C32.4092 29.9415 32.7602 29.0944 32.7602 28.1933ZM25.8052 27.0002C25.169 27.6372 24.0561 27.6372 23.4199 27.0002C23.101 26.6813 22.9246 26.2577 22.9255 25.8071C22.9255 25.3566 23.101 24.933 23.4191 24.6141L25.8052 27.0002ZM28.193 26.9993C28.8292 26.3623 29.9421 26.3623 30.5783 26.9993C30.8972 27.3183 31.0727 27.7418 31.0727 28.1924C31.0727 28.643 30.8972 29.0665 30.5791 29.3855L28.193 26.9993Z" fill="#78B75B"/>
<path d="M40.6873 25.2449L39.4934 24.0509L46.0561 17.4883L36.5099 7.94292L29.9472 14.5056L28.7533 13.3117L35.9125 6.15248C36.2424 5.82342 36.7765 5.82257 37.1064 6.15248L47.8465 16.8917C48.0051 17.0504 48.0929 17.2647 48.0929 17.4883C48.0929 17.7127 48.0051 17.927 47.8465 18.0856L40.6873 25.2449Z" fill="#669E4F"/>
<path d="M37.1271 21.6514L38.3201 20.4566L39.5149 21.6497L38.3218 22.8444L37.1271 21.6514Z" fill="#96CC7F"/>
<path d="M39.489 19.2888L40.6823 18.0956L41.8761 19.2894L40.6829 20.4826L39.489 19.2888Z" fill="#96CC7F"/>
<path d="M31.1603 15.6981L32.355 14.505L33.5475 15.6991L32.3527 16.8922L31.1603 15.6981Z" fill="#96CC7F"/>
<path d="M33.5242 13.3209L34.7174 12.1277L35.9113 13.3215L34.718 14.5148L33.5242 13.3209Z" fill="#96CC7F"/>
<path d="M1.6875 27H52.3125V48.9375H1.6875V27Z" fill="#96CC7F"/>
<path d="M27 46.4062C31.6599 46.4062 35.4375 42.6286 35.4375 37.9687C35.4375 33.3088 31.6599 29.5312 27 29.5312C22.3401 29.5312 18.5625 33.3088 18.5625 37.9687C18.5625 42.6286 22.3401 46.4062 27 46.4062Z" fill="#78B75B"/>
<path d="M14.3438 48.9375L17.7188 52.3125L21.0938 48.9375" fill="#78B75B"/>
<path d="M27.8437 37.125H27.8421V33.75H27.8437C28.7736 33.75 29.5296 34.5068 29.5296 35.4375H31.2171C31.2171 33.5762 29.7034 32.0625 27.8437 32.0625H27.8421V31.2187H26.1554V32.0625C24.2941 32.0625 22.7804 33.5762 22.7804 35.4375C22.7804 37.298 24.2941 38.8117 26.1554 38.8117V42.1867C25.2239 42.1867 24.4679 41.4298 24.4679 40.4992L22.7804 40.5C22.7804 42.3605 24.2941 43.8742 26.1554 43.8742V44.7179H27.8421V43.8742H27.8437C29.7034 43.8742 31.2171 42.3605 31.2171 40.4992C31.2171 38.6378 29.7034 37.125 27.8437 37.125ZM24.4679 35.4375C24.4679 34.5068 25.2239 33.75 26.1554 33.75V37.125C25.2247 37.125 24.4679 36.3673 24.4679 35.4375ZM27.8437 42.1867H27.8421V38.8117H27.8437C28.7736 38.8117 29.5296 39.5685 29.5296 40.5C29.5296 41.4298 28.7736 42.1867 27.8437 42.1867Z" fill="#669E4F"/>
<path d="M48.9358 46.4054H38.8116V44.7179H48.0921V31.2187H38.8116V29.5312H48.9358C49.4024 29.5312 49.7796 29.9084 49.7796 30.375V45.5625C49.7796 46.0282 49.4024 46.4054 48.9358 46.4054Z" fill="#669E4F"/>
<path d="M15.1867 46.4062H5.0625C4.59591 46.4062 4.21875 46.0282 4.21875 45.5625V30.375C4.21875 29.9084 4.59591 29.5312 5.06166 29.5312H15.1867L15.1875 31.2187H5.90625V44.7187H15.1867V46.4062Z" fill="#669E4F"/>
<path d="M38.8116 41.3437H40.4983V43.0312H38.8116V41.3437Z" fill="#78B75B"/>
<path d="M42.1866 41.3437H43.8733V43.0312H42.1866V41.3437Z" fill="#78B75B"/>
<path d="M38.8116 32.9062H40.4983V34.5937H38.8116V32.9062Z" fill="#78B75B"/>
<path d="M42.1866 32.9062H43.8733V34.5937H42.1866V32.9062Z" fill="#78B75B"/>
<path d="M10.125 32.9062H11.8117V34.5937H10.125V32.9062Z" fill="#78B75B"/>
<path d="M13.5 32.9062H15.1867V34.5937H13.5V32.9062Z" fill="#78B75B"/>
<path d="M10.125 41.3437H11.8117V43.0312H10.125V41.3437Z" fill="#78B75B"/>
<path d="M13.5 41.3437H15.1867V43.0312H13.5V41.3437Z" fill="#78B75B"/>
<path d="M52.3116 26.1553H45.068L52.909 18.3152C53.0676 18.1566 53.1554 17.9423 53.1562 17.7187C53.1562 17.4942 53.0676 17.2799 52.909 17.1213L36.8778 1.09004C36.5479 0.76013 36.0138 0.761817 35.6839 1.09004L10.6177 26.1553H1.68579C1.22004 26.1553 0.842041 26.5333 0.842041 26.9991V48.9366C0.842041 49.4023 1.22004 49.7803 1.68579 49.7803H13.9927L17.1205 52.9081C17.28 53.0667 17.4943 53.1562 17.7187 53.1553C17.9423 53.1553 18.1575 53.0667 18.3153 52.9089L21.443 49.7812H52.3116C52.7774 49.7812 53.1554 49.4032 53.1554 48.9374V26.9999C53.1554 26.5333 52.7774 26.1553 52.3116 26.1553ZM36.2804 2.88047L51.1186 17.7178L42.6811 26.1553H36.239C36.0458 23.9945 35.1152 21.9889 33.5627 20.4364C29.943 16.8184 24.0553 16.8184 20.4373 20.4364C18.8839 21.9889 17.9524 23.9953 17.7601 26.1553H13.0064L36.2804 2.88047ZM22.9719 26.1553C22.858 25.6077 23.0116 25.0213 23.4191 24.6138L24.9606 26.1553H22.9719ZM32.0734 26.1553C31.9806 26.033 31.8811 25.9157 31.7714 25.806C30.4973 24.5311 28.2732 24.5311 27 25.806L24.613 23.419C25.272 22.7618 26.341 22.7618 27 23.4199L28.1922 22.226C26.8776 20.9114 24.7362 20.9106 23.4199 22.226L22.8234 21.6294L21.6295 22.8233L22.2269 23.4207C21.4852 24.1615 21.157 25.1664 21.2625 26.1562H19.4569C19.6442 24.4476 20.3968 22.8647 21.6312 21.6311C24.5911 18.6696 29.4089 18.6704 32.3704 21.6311C33.6032 22.8638 34.3558 24.4476 34.5439 26.1562H32.0734V26.1553ZM17.7179 51.1185L16.3805 49.7812H19.0552L17.7179 51.1185ZM51.4679 48.0937H2.52954V27.8437H51.4679V48.0937Z" fill="black"/>
<path d="M24.4679 40.499L22.7804 40.4998C22.7804 42.3603 24.2941 43.874 26.1554 43.874V44.7177H27.8421V43.874H27.8437C29.7034 43.874 31.2171 42.3603 31.2171 40.499C31.2171 38.6377 29.7034 37.124 27.8437 37.124H27.8421V33.749H27.8437C28.7736 33.749 29.5296 34.5058 29.5296 35.4365H31.2171C31.2171 33.5752 29.7034 32.0615 27.8437 32.0615H27.8421V31.2177H26.1554V32.0615C24.2941 32.0615 22.7804 33.5752 22.7804 35.4365C22.7804 37.297 24.2941 38.8106 26.1554 38.8106V42.1856C25.2247 42.1865 24.4679 41.4296 24.4679 40.499ZM24.4679 35.4373C24.4679 34.5067 25.2239 33.7498 26.1554 33.7498V37.1248C25.2247 37.1248 24.4679 36.3671 24.4679 35.4373ZM27.8421 38.8115H27.8437C28.7736 38.8115 29.5296 39.5683 29.5296 40.4998C29.5296 41.4296 28.7736 42.1865 27.8437 42.1865H27.8421V38.8115Z" fill="black"/>
<path d="M26.9992 47.249C32.1157 47.249 36.2796 43.0851 36.2796 37.9677C36.2796 32.8504 32.1157 28.6865 26.9992 28.6865C21.8818 28.6873 17.7188 32.8504 17.7188 37.9686C17.7188 43.0851 21.8818 47.249 26.9992 47.249ZM26.9992 30.3748C31.1858 30.3748 34.5921 33.781 34.5921 37.9686C34.5921 42.1553 31.1858 45.5623 26.9992 45.5623C22.8116 45.5623 19.4062 42.1561 19.4062 37.9686C19.4062 33.781 22.8116 30.3748 26.9992 30.3748Z" fill="black"/>
<path d="M49.7796 45.5616V30.375C49.7796 29.9084 49.4024 29.5312 48.9358 29.5312H38.8116V31.2187H48.0921V44.7187H38.8116V46.4062H48.9358C49.4024 46.4054 49.7796 46.0282 49.7796 45.5616Z" fill="black"/>
<path d="M5.0625 46.4062H15.1867V44.7187H5.90625V31.2187H15.1875L15.1867 29.5312H5.06166C4.59591 29.5312 4.21875 29.9084 4.21875 30.375V45.5625C4.21875 46.0282 4.59591 46.4062 5.0625 46.4062Z" fill="black"/>
<path d="M38.8116 41.3437H40.4983V43.0312H38.8116V41.3437Z" fill="black"/>
<path d="M42.1866 41.3437H43.8733V43.0312H42.1866V41.3437Z" fill="black"/>
<path d="M38.8116 32.9062H40.4983V34.5937H38.8116V32.9062Z" fill="black"/>
<path d="M42.1866 32.9062H43.8733V34.5937H42.1866V32.9062Z" fill="black"/>
<path d="M36.5099 7.94292L46.0552 17.4891L39.4926 24.0518L40.6865 25.2457L47.8457 18.0865C48.0043 17.9279 48.0921 17.7135 48.0921 17.4891C48.0921 17.2655 48.0043 17.0504 47.8457 16.8926L37.1073 6.15248C36.7774 5.82257 36.2433 5.82342 35.9134 6.15248L28.7542 13.3117L29.9481 14.5056L36.5099 7.94292Z" fill="black"/>
<path d="M37.102 21.6738L38.2952 20.4805L39.4885 21.6738L38.2952 22.867L37.102 21.6738Z" fill="black"/>
<path d="M39.4865 19.2805L40.6797 18.0873L41.8735 19.2811L40.6803 20.4744L39.4865 19.2805Z" fill="black"/>
<path d="M31.1603 15.6981L32.355 14.505L33.5475 15.6991L32.3527 16.8922L31.1603 15.6981Z" fill="black"/>
<path d="M33.5242 13.3201L34.7174 12.1268L35.9113 13.3206L34.718 14.5139L33.5242 13.3201Z" fill="black"/>
<path d="M10.125 32.9062H11.8117V34.5937H10.125V32.9062Z" fill="black"/>
<path d="M13.5 32.9062H15.1867V34.5937H13.5V32.9062Z" fill="black"/>
<path d="M10.125 41.3437H11.8117V43.0312H10.125V41.3437Z" fill="black"/>
<path d="M13.5 41.3437H15.1867V43.0312H13.5V41.3437Z" fill="black"/>
</svg>
