<svg width="42" height="42" viewBox="0 0 42 42" fill="none" xmlns="http://www.w3.org/2000/svg">
<circle cx="21" cy="21" r="21" fill="#185ADB"/>
<path d="M24.75 12.7575L17.25 12.75C16.425 12.75 15.7575 13.425 15.7575 14.25V27.75C15.7575 28.575 16.425 29.25 17.25 29.25H24.75C25.575 29.25 26.25 28.575 26.25 27.75V14.25C26.25 13.425 25.575 12.7575 24.75 12.7575ZM24.75 26.25H17.25V15.75H24.75V26.25ZM21.6 21.915V23.2275L24 20.985L21.6 18.75V20.025C19.2675 20.3475 18.3375 21.945 18 23.55C18.8325 22.425 19.935 21.915 21.6 21.915Z" fill="white"/>
</svg>
