<svg width="30" height="30" viewBox="0 0 30 30" fill="none" xmlns="http://www.w3.org/2000/svg">
<path d="M20.7125 27.4998C21.0445 27.5017 21.3736 27.4375 21.6805 27.3109C21.9874 27.1843 22.266 26.9978 22.5 26.7623L25.8875 23.3748C26.1204 23.1406 26.251 22.8238 26.251 22.4936C26.251 22.1633 26.1204 21.8465 25.8875 21.6123L20.8875 16.6123C20.6533 16.3795 20.3365 16.2488 20.0063 16.2488C19.6761 16.2488 19.3592 16.3795 19.125 16.6123L17.125 18.5998C15.7404 18.2306 14.4579 17.5509 13.375 16.6123C12.4389 15.5277 11.7596 14.2459 11.3875 12.8623L13.375 10.8623C13.6079 10.6281 13.7385 10.3113 13.7385 9.98106C13.7385 9.65083 13.6079 9.33401 13.375 9.09981L8.37504 4.09981C8.14084 3.867 7.82402 3.73632 7.49379 3.73632C7.16356 3.73632 6.84674 3.867 6.61254 4.09981L3.23754 7.49981C3.00208 7.73386 2.8156 8.01247 2.68897 8.31937C2.56235 8.62627 2.49812 8.95532 2.50004 9.28731C2.61345 14.0902 4.53263 18.6739 7.87504 22.1248C11.3259 25.4672 15.9097 27.3864 20.7125 27.4998ZM7.50004 6.76231L10.7375 9.99981L9.12504 11.6123C8.97232 11.7554 8.85795 11.9345 8.79243 12.1332C8.72691 12.332 8.71234 12.544 8.75004 12.7498C9.21725 14.8378 10.2064 16.7731 11.625 18.3748C13.2255 19.7952 15.1613 20.7847 17.25 21.2498C17.4528 21.2922 17.6628 21.2835 17.8614 21.2246C18.0599 21.1657 18.2407 21.0584 18.3875 20.9123L20 19.2623L23.2375 22.4998L20.7375 24.9998C16.5922 24.8931 12.6369 23.2387 9.65004 20.3623C6.76618 17.3742 5.10705 13.4137 5.00004 9.26231L7.50004 6.76231ZM25 13.7498H27.5C27.5325 12.2636 27.2636 10.7861 26.7097 9.40657C26.1558 8.027 25.3284 6.77387 24.2772 5.72268C23.226 4.67149 21.9728 3.84402 20.5933 3.29013C19.2137 2.73624 17.7363 2.4674 16.25 2.49981V4.99981C17.4099 4.95969 18.5657 5.15857 19.6454 5.5841C20.7252 6.00963 21.7058 6.65271 22.5265 7.47336C23.3471 8.29401 23.9902 9.27469 24.4157 10.3544C24.8413 11.4342 25.0402 12.5899 25 13.7498Z" fill="#F1F1F1"/>
<path d="M16.25 10C18.875 10 20 11.125 20 13.75H22.5C22.5 9.725 20.275 7.5 16.25 7.5V10Z" fill="#F1F1F1"/>
</svg>
