<svg width="130" height="130" viewBox="0 0 130 130" fill="none" xmlns="http://www.w3.org/2000/svg">
<circle cx="65" cy="65" r="65" fill="#C4C4C4" fill-opacity="0.35"/>
<path d="M49 37H81V45H49V37Z" fill="#979797"/>
<path d="M93 49H37C34.8 49 33 50.8 33 53V73C33 75.2 34.8 77 37 77H49V93H81V77H93C95.2 77 97 75.2 97 73V53C97 50.8 95.2 49 93 49ZM41 61C39.9391 61 38.9217 60.5786 38.1716 59.8284C37.4214 59.0783 37 58.0609 37 57C37 55.9391 37.4214 54.9217 38.1716 54.1716C38.9217 53.4214 39.9391 53 41 53C42.0609 53 43.0783 53.4214 43.8284 54.1716C44.5786 54.9217 45 55.9391 45 57C45 58.0609 44.5786 59.0783 43.8284 59.8284C43.0783 60.5786 42.0609 61 41 61ZM77 89H53V69H77V89Z" fill="#979797"/>
</svg>
