<svg width="30" height="30" viewBox="0 0 30 30" fill="none" xmlns="http://www.w3.org/2000/svg">
<path d="M28.5013 16.7764C28.3876 16.6034 28.241 16.4546 28.0698 16.3383C27.8986 16.222 27.7062 16.1405 27.5035 16.0986C27.3008 16.0567 27.0919 16.0552 26.8886 16.094C26.6853 16.1329 26.4917 16.2114 26.3188 16.3251L26.1869 16.4114L27.9175 19.0458L28.0494 18.9595C28.2226 18.846 28.3716 18.6994 28.4881 18.5282C28.6045 18.3569 28.6861 18.1644 28.728 17.9617C28.77 17.7589 28.7716 17.5498 28.7327 17.3464C28.6938 17.1431 28.6151 16.9494 28.5013 16.7764Z" fill="#6ADDC7"/>
<path d="M19.99 2.62457H3.11501C2.87053 2.62215 2.628 2.66831 2.40149 2.76035C2.17499 2.8524 1.96901 2.98851 1.79552 3.16078C1.62203 3.33305 1.48447 3.53806 1.39083 3.76391C1.29718 3.98976 1.24932 4.23195 1.25001 4.47645V27.0389C1.25001 28.0739 2.07938 28.9371 3.11501 28.9371H19.99C20.4907 28.932 20.9692 28.73 21.322 28.3748C21.6748 28.0195 21.8735 27.5396 21.875 27.0389V4.47645C21.875 3.44082 21.025 2.62457 19.99 2.62457ZM5.50563 6.29895C5.30031 6.29895 5.0996 6.23806 4.92888 6.12399C4.75816 6.00992 4.6251 5.84779 4.54653 5.65809C4.46796 5.4684 4.4474 5.25967 4.48745 5.05829C4.52751 4.85692 4.62638 4.67194 4.77157 4.52676C4.91675 4.38157 5.10173 4.2827 5.3031 4.24264C5.50448 4.20259 5.71321 4.22315 5.90291 4.30172C6.0926 4.38029 6.25473 4.51335 6.3688 4.68407C6.48287 4.85479 6.54376 5.0555 6.54376 5.26082C6.54377 5.39715 6.51693 5.53216 6.46477 5.65811C6.4126 5.78407 6.33614 5.89852 6.23973 5.99492C6.14333 6.09133 6.02888 6.16779 5.90293 6.21996C5.77697 6.27212 5.64196 6.29896 5.50563 6.29895ZM9.41313 6.29895C9.20781 6.29895 9.0071 6.23806 8.83638 6.12399C8.66566 6.00992 8.5326 5.84779 8.45403 5.65809C8.37546 5.4684 8.3549 5.25967 8.39495 5.05829C8.43501 4.85692 8.53388 4.67194 8.67907 4.52676C8.82425 4.38157 9.00923 4.2827 9.2106 4.24264C9.41198 4.20259 9.62071 4.22315 9.81041 4.30172C10.0001 4.38029 10.1622 4.51335 10.2763 4.68407C10.3904 4.85479 10.4513 5.0555 10.4513 5.26082C10.4513 5.39715 10.4244 5.53216 10.3723 5.65811C10.3201 5.78407 10.2436 5.89852 10.1472 5.99492C10.0508 6.09133 9.93638 6.16779 9.81043 6.21996C9.68447 6.27212 9.54947 6.29896 9.41313 6.29895ZM13.3213 6.29895C13.1159 6.29895 12.9152 6.23806 12.7445 6.12399C12.5738 6.00992 12.4407 5.84779 12.3622 5.65809C12.2836 5.4684 12.263 5.25967 12.3031 5.05829C12.3431 4.85692 12.442 4.67194 12.5872 4.52676C12.7324 4.38157 12.9174 4.2827 13.1187 4.24264C13.3201 4.20259 13.5288 4.22315 13.7185 4.30172C13.9082 4.38029 14.0704 4.51335 14.1844 4.68407C14.2985 4.85479 14.3594 5.0555 14.3594 5.26082C14.3595 5.39717 14.3327 5.5322 14.2805 5.65819C14.2284 5.78418 14.1519 5.89865 14.0555 5.99507C13.9591 6.09149 13.8446 6.16795 13.7186 6.22009C13.5926 6.27223 13.4576 6.29903 13.3213 6.29895ZM17.2288 6.29895C17.0234 6.29895 16.8227 6.23806 16.652 6.12399C16.4813 6.00992 16.3482 5.84779 16.2697 5.65809C16.1911 5.4684 16.1705 5.25967 16.2106 5.05829C16.2506 4.85692 16.3495 4.67194 16.4947 4.52676C16.6399 4.38157 16.8249 4.2827 17.0262 4.24264C17.2276 4.20259 17.4363 4.22315 17.626 4.30172C17.8157 4.38029 17.9779 4.51335 18.0919 4.68407C18.206 4.85479 18.2669 5.0555 18.2669 5.26082C18.2669 5.39715 18.2401 5.53216 18.1879 5.65811C18.1357 5.78407 18.0593 5.89852 17.9629 5.99492C17.8665 6.09133 17.752 6.16779 17.6261 6.21996C17.5001 6.27212 17.3651 6.29896 17.2288 6.29895Z" fill="#CAE6EE"/>
<path d="M21.865 23.0205L17.8438 25.6611L16.9781 24.3442L27.0525 17.7286L27.9175 19.0455L21.865 23.0205Z" fill="#E75163"/>
<path d="M27.0525 17.7287L16.9781 24.3443L16.1125 23.0268L21.865 19.2493L26.1869 16.4112L27.0525 17.7287Z" fill="#FB6771"/>
<path d="M16.1125 23.0272L16.0725 23.1022L14.6744 25.7447L17.8437 25.6615L16.1125 23.0272Z" fill="#C79A83"/>
<path d="M5.76253 9.18088C6.19178 9.18082 6.6114 9.30804 6.96834 9.54647C7.32528 9.78489 7.60351 10.1238 7.76783 10.5204C7.93215 10.9169 7.97519 11.3533 7.89151 11.7743C7.80783 12.1953 7.60119 12.582 7.29771 12.8856C6.99423 13.1892 6.60754 13.3959 6.18655 13.4797C5.76557 13.5635 5.32918 13.5206 4.93259 13.3564C4.53599 13.1922 4.19699 12.9141 3.95847 12.5572C3.71994 12.2003 3.59259 11.7808 3.59253 11.3515C3.59251 10.7759 3.82111 10.2239 4.22805 9.81684C4.63499 9.40979 5.18695 9.18103 5.76253 9.18088Z" fill="#81C83D"/>
<path d="M5.76253 15.4309C6.19178 15.4308 6.6114 15.558 6.96834 15.7965C7.32528 16.0349 7.60351 16.3738 7.76783 16.7704C7.93215 17.1669 7.97519 17.6033 7.89151 18.0243C7.80783 18.4453 7.60119 18.832 7.29771 19.1356C6.99423 19.4392 6.60754 19.6459 6.18655 19.7297C5.76557 19.8135 5.32918 19.7706 4.93259 19.6064C4.53599 19.4422 4.19699 19.1641 3.95847 18.8072C3.71994 18.4503 3.59259 18.0308 3.59253 17.6015C3.59251 17.0259 3.82111 16.4739 4.22805 16.0668C4.63499 15.6598 5.18695 15.431 5.76253 15.4309Z" fill="#81C83D"/>
<path d="M5.76253 21.6809C6.19178 21.6808 6.6114 21.808 6.96834 22.0465C7.32528 22.2849 7.60351 22.6238 7.76783 23.0204C7.93215 23.4169 7.97519 23.8533 7.89151 24.2743C7.80783 24.6953 7.60119 25.082 7.29771 25.3856C6.99423 25.6892 6.60754 25.8959 6.18655 25.9797C5.76557 26.0635 5.32918 26.0206 4.93259 25.8564C4.53599 25.6922 4.19699 25.4141 3.95847 25.0572C3.71994 24.7003 3.59259 24.2808 3.59253 23.8515C3.59251 23.2759 3.82111 22.7239 4.22805 22.3168C4.63499 21.9098 5.18695 21.681 5.76253 21.6809Z" fill="#81C83D"/>
<path d="M3.12501 27.0389V4.47645C3.12432 4.23195 3.17218 3.98976 3.26582 3.76391C3.35947 3.53806 3.49703 3.33305 3.67052 3.16078C3.84401 2.98851 4.04998 2.8524 4.27649 2.76035C4.50299 2.66831 4.74552 2.62215 4.99 2.62457H3.11501C2.87052 2.62215 2.628 2.66831 2.40149 2.76035C2.17499 2.8524 1.96901 2.98851 1.79552 3.16078C1.62203 3.33305 1.48447 3.53806 1.39083 3.76391C1.29718 3.98976 1.24932 4.23195 1.25001 4.47645V27.0389C1.25001 28.0739 2.07938 28.9371 3.11501 28.9371H4.99C3.95438 28.9371 3.12501 28.0739 3.12501 27.0389Z" fill="#AAC8CE"/>
<path d="M10.1375 11H19.5125C19.6119 11 19.7073 10.9605 19.7776 10.8902C19.848 10.8198 19.8875 10.7245 19.8875 10.625C19.8875 10.5255 19.848 10.4302 19.7776 10.3598C19.7073 10.2895 19.6119 10.25 19.5125 10.25H10.1375C10.038 10.25 9.94261 10.2895 9.87229 10.3598C9.80196 10.4302 9.76245 10.5255 9.76245 10.625C9.76245 10.7245 9.80196 10.8198 9.87229 10.8902C9.94261 10.9605 10.038 11 10.1375 11Z" fill="#141414"/>
<path d="M6.35086 10.5559L5.51767 11.3524L5.17973 11.0145C5.14509 10.9789 5.10371 10.9505 5.05802 10.9311C5.01232 10.9116 4.96321 10.9014 4.91353 10.9011C4.86386 10.9007 4.81462 10.9103 4.76866 10.9291C4.7227 10.948 4.68095 10.9758 4.64583 11.0109C4.61071 11.046 4.58291 11.0878 4.56406 11.1338C4.54521 11.1797 4.53568 11.229 4.53602 11.2786C4.53636 11.3283 4.54656 11.3774 4.56604 11.4231C4.58552 11.4688 4.61388 11.5102 4.64948 11.5448L5.24667 12.1421C5.31597 12.2114 5.40964 12.2508 5.50763 12.2519C5.60562 12.253 5.70015 12.2157 5.77098 12.1479L6.86917 11.0979C6.90511 11.064 6.93398 11.0233 6.95412 10.9781C6.97426 10.933 6.98527 10.8843 6.98653 10.8349C6.98778 10.7855 6.97925 10.7363 6.96143 10.6902C6.94361 10.644 6.91685 10.6019 6.88268 10.5662C6.84852 10.5305 6.80763 10.5018 6.76236 10.482C6.71709 10.4621 6.66834 10.4514 6.61892 10.4504C6.56949 10.4495 6.52036 10.4583 6.47436 10.4764C6.42835 10.4945 6.38638 10.5215 6.35086 10.5559Z" fill="#141414"/>
<path d="M5.76253 8.80588C5.25915 8.80588 4.76708 8.95515 4.34853 9.23481C3.92999 9.51448 3.60377 9.91198 3.41114 10.377C3.21851 10.8421 3.16811 11.3538 3.26632 11.8476C3.36453 12.3413 3.60693 12.7948 3.96288 13.1507C4.31883 13.5066 4.77233 13.749 5.26604 13.8472C5.75975 13.9454 6.27149 13.895 6.73655 13.7024C7.20161 13.5097 7.5991 13.1835 7.87876 12.765C8.15841 12.3464 8.30767 11.8543 8.30766 11.3509C8.3069 10.6762 8.0385 10.0293 7.56136 9.55213C7.08422 9.075 6.4373 8.80662 5.76253 8.80588ZM5.76253 13.1461C5.40749 13.1461 5.06042 13.0408 4.76522 12.8435C4.47001 12.6463 4.23992 12.3659 4.10405 12.0379C3.96819 11.7099 3.93264 11.3489 4.0019 11.0007C4.07117 10.6525 4.24214 10.3326 4.49319 10.0816C4.74424 9.83054 5.0641 9.65957 5.41232 9.59031C5.76054 9.52104 6.12148 9.55659 6.4495 9.69246C6.77751 9.82833 7.05787 10.0584 7.25513 10.3536C7.45238 10.6488 7.55766 10.9959 7.55766 11.3509C7.5572 11.8269 7.36793 12.2833 7.03138 12.6199C6.69484 12.9565 6.23851 13.1458 5.76253 13.1463V13.1461Z" fill="#141414"/>
<path d="M10.1375 17.25H19.5125C19.6119 17.25 19.7073 17.2105 19.7776 17.1402C19.848 17.0698 19.8875 16.9745 19.8875 16.875C19.8875 16.7755 19.848 16.6802 19.7776 16.6098C19.7073 16.5395 19.6119 16.5 19.5125 16.5H10.1375C10.038 16.5 9.94261 16.5395 9.87229 16.6098C9.80196 16.6802 9.76245 16.7755 9.76245 16.875C9.76245 16.9745 9.80196 17.0698 9.87229 17.1402C9.94261 17.2105 10.038 17.25 10.1375 17.25Z" fill="#141414"/>
<path d="M6.35086 16.8059L5.51767 17.6024L5.17973 17.2645C5.14509 17.2289 5.10371 17.2005 5.05802 17.1811C5.01232 17.1616 4.96321 17.1514 4.91353 17.1511C4.86386 17.1507 4.81462 17.1603 4.76866 17.1791C4.7227 17.198 4.68095 17.2258 4.64583 17.2609C4.61071 17.296 4.58291 17.3378 4.56406 17.3838C4.54521 17.4297 4.53568 17.479 4.53602 17.5286C4.53636 17.5783 4.54656 17.6274 4.56604 17.6731C4.58552 17.7188 4.61388 17.7602 4.64948 17.7948L5.24667 18.3921C5.31597 18.4614 5.40964 18.5008 5.50763 18.5019C5.60562 18.503 5.70015 18.4657 5.77098 18.3979L6.86917 17.3479C6.90511 17.314 6.93398 17.2733 6.95412 17.2281C6.97426 17.183 6.98527 17.1343 6.98653 17.0849C6.98778 17.0355 6.97925 16.9863 6.96143 16.9402C6.94361 16.8941 6.91685 16.8519 6.88268 16.8162C6.84852 16.7805 6.80763 16.7518 6.76236 16.732C6.71709 16.7121 6.66834 16.7014 6.61892 16.7004C6.56949 16.6995 6.52036 16.7083 6.47436 16.7264C6.42835 16.7445 6.38638 16.7715 6.35086 16.8059Z" fill="#141414"/>
<path d="M5.76253 15.0559C5.25915 15.0559 4.76708 15.2051 4.34853 15.4848C3.92999 15.7645 3.60377 16.162 3.41114 16.627C3.21851 17.0921 3.16811 17.6038 3.26632 18.0976C3.36453 18.5913 3.60693 19.0448 3.96288 19.4007C4.31883 19.7566 4.77233 19.999 5.26604 20.0972C5.75975 20.1954 6.27149 20.145 6.73655 19.9524C7.20161 19.7597 7.5991 19.4335 7.87876 19.015C8.15841 18.5964 8.30767 18.1043 8.30766 17.6009C8.3069 16.9262 8.0385 16.2793 7.56136 15.8021C7.08422 15.325 6.4373 15.0566 5.76253 15.0559ZM5.76253 19.3961C5.40749 19.3961 5.06042 19.2908 4.76522 19.0935C4.47001 18.8963 4.23992 18.6159 4.10405 18.2879C3.96819 17.9599 3.93264 17.5989 4.0019 17.2507C4.07117 16.9025 4.24214 16.5826 4.49319 16.3316C4.74424 16.0805 5.0641 15.9096 5.41232 15.8403C5.76054 15.771 6.12148 15.8066 6.4495 15.9425C6.77751 16.0783 7.05787 16.3084 7.25513 16.6036C7.45238 16.8988 7.55766 17.2459 7.55766 17.6009C7.5572 18.0769 7.36793 18.5333 7.03138 18.8699C6.69484 19.2065 6.23851 19.3958 5.76253 19.3963V19.3961Z" fill="#141414"/>
<path d="M6.35086 23.0559L5.51767 23.8524L5.17973 23.5145C5.14509 23.4789 5.10371 23.4505 5.05802 23.4311C5.01232 23.4116 4.96321 23.4014 4.91353 23.4011C4.86386 23.4007 4.81462 23.4103 4.76866 23.4291C4.7227 23.448 4.68095 23.4758 4.64583 23.5109C4.61071 23.546 4.58291 23.5878 4.56406 23.6338C4.54521 23.6797 4.53568 23.729 4.53602 23.7786C4.53636 23.8283 4.54656 23.8774 4.56604 23.9231C4.58552 23.9688 4.61388 24.0102 4.64948 24.0448L5.24667 24.6421C5.31597 24.7114 5.40964 24.7508 5.50763 24.7519C5.60562 24.753 5.70015 24.7157 5.77098 24.6479L6.86917 23.5979C6.90511 23.564 6.93398 23.5233 6.95412 23.4781C6.97426 23.433 6.98527 23.3843 6.98653 23.3349C6.98778 23.2855 6.97925 23.2363 6.96143 23.1902C6.94361 23.1441 6.91685 23.1019 6.88268 23.0662C6.84852 23.0305 6.80763 23.0018 6.76236 22.982C6.71709 22.9621 6.66834 22.9514 6.61892 22.9504C6.56949 22.9495 6.52036 22.9583 6.47436 22.9764C6.42835 22.9945 6.38638 23.0215 6.35086 23.0559Z" fill="#141414"/>
<path d="M5.76253 21.3059C5.25915 21.3059 4.76708 21.4551 4.34853 21.7348C3.92999 22.0145 3.60377 22.412 3.41114 22.877C3.21851 23.3421 3.16811 23.8538 3.26632 24.3476C3.36453 24.8413 3.60693 25.2948 3.96288 25.6507C4.31883 26.0066 4.77233 26.249 5.26604 26.3472C5.75975 26.4454 6.27149 26.395 6.73655 26.2024C7.20161 26.0097 7.5991 25.6835 7.87876 25.265C8.15841 24.8464 8.30767 24.3543 8.30766 23.8509C8.3069 23.1762 8.0385 22.5293 7.56136 22.0521C7.08422 21.575 6.4373 21.3066 5.76253 21.3059ZM5.76253 25.6461C5.40749 25.6461 5.06042 25.5408 4.76522 25.3435C4.47001 25.1463 4.23992 24.8659 4.10405 24.5379C3.96819 24.2099 3.93264 23.8489 4.0019 23.5007C4.07117 23.1525 4.24214 22.8326 4.49319 22.5816C4.74424 22.3305 5.0641 22.1596 5.41232 22.0903C5.76054 22.021 6.12148 22.0566 6.4495 22.1925C6.77751 22.3283 7.05787 22.5584 7.25513 22.8536C7.45238 23.1488 7.55766 23.4959 7.55766 23.8509C7.5572 24.3269 7.36793 24.7833 7.03138 25.1199C6.69484 25.4565 6.23851 25.6458 5.76253 25.6463V25.6461Z" fill="#141414"/>
<path d="M10.1375 12.25H15.1375C15.2369 12.25 15.3323 12.2105 15.4026 12.1402C15.473 12.0698 15.5125 11.9745 15.5125 11.875C15.5125 11.7755 15.473 11.6802 15.4026 11.6098C15.3323 11.5395 15.2369 11.5 15.1375 11.5H10.1375C10.038 11.5 9.94261 11.5395 9.87229 11.6098C9.80196 11.6802 9.76245 11.7755 9.76245 11.875C9.76245 11.9745 9.80196 12.0698 9.87229 12.1402C9.94261 12.2105 10.038 12.25 10.1375 12.25Z" fill="#141414"/>
<path d="M10.1375 18.5H15.1375C15.2369 18.5 15.3323 18.4605 15.4026 18.3902C15.473 18.3198 15.5125 18.2245 15.5125 18.125C15.5125 18.0255 15.473 17.9302 15.4026 17.8598C15.3323 17.7895 15.2369 17.75 15.1375 17.75H10.1375C10.038 17.75 9.94261 17.7895 9.87229 17.8598C9.80196 17.9302 9.76245 18.0255 9.76245 18.125C9.76245 18.2245 9.80196 18.3198 9.87229 18.3902C9.94261 18.4605 10.038 18.5 10.1375 18.5Z" fill="#141414"/>
<path d="M2.6875 4.88162C2.58804 4.88162 2.49266 4.92113 2.42233 4.99146C2.35201 5.06178 2.3125 5.15717 2.3125 5.25662V5.65037C2.3125 5.74983 2.35201 5.84521 2.42233 5.91554C2.49266 5.98586 2.58804 6.02537 2.6875 6.02537C2.78696 6.02537 2.88234 5.98586 2.95267 5.91554C3.02299 5.84521 3.0625 5.74983 3.0625 5.65037V5.25662C3.0625 5.15717 3.02299 5.06178 2.95267 4.99146C2.88234 4.92113 2.78696 4.88162 2.6875 4.88162Z" fill="#141414"/>
<path d="M2.6875 6.46228C2.58804 6.46228 2.49266 6.50179 2.42233 6.57212C2.35201 6.64244 2.3125 6.73782 2.3125 6.83728V10.4623C2.3125 10.5617 2.35201 10.6571 2.42233 10.7275C2.49266 10.7978 2.58804 10.8373 2.6875 10.8373C2.78696 10.8373 2.88234 10.7978 2.95267 10.7275C3.02299 10.6571 3.0625 10.5617 3.0625 10.4623V6.83728C3.0625 6.73782 3.02299 6.64244 2.95267 6.57212C2.88234 6.50179 2.78696 6.46228 2.6875 6.46228Z" fill="#141414"/>
<path d="M27.5794 15.7313C27.3286 15.6786 27.0697 15.6763 26.8179 15.7243C26.5661 15.7724 26.3264 15.8699 26.1125 16.0112L22.25 18.5479V4.47656C22.25 3.23594 21.2304 2.25 19.9898 2.25H17.625V1.08594C17.625 0.986481 17.5855 0.891099 17.5152 0.820772C17.4448 0.750446 17.3495 0.710938 17.25 0.710938C17.1505 0.710938 17.0552 0.750446 16.9848 0.820772C16.9145 0.891099 16.875 0.986481 16.875 1.08594V2.25H13.6875V1.08594C13.6875 0.986481 13.648 0.891099 13.5777 0.820772C13.5073 0.750446 13.412 0.710938 13.3125 0.710938C13.213 0.710938 13.1177 0.750446 13.0473 0.820772C12.977 0.891099 12.9375 0.986481 12.9375 1.08594V2.25H9.8125V1.08594C9.8125 0.986481 9.77299 0.891099 9.70267 0.820772C9.63234 0.750446 9.53696 0.710938 9.4375 0.710938C9.33805 0.710938 9.24266 0.750446 9.17234 0.820772C9.10201 0.891099 9.0625 0.986481 9.0625 1.08594V2.25H5.875V1.08594C5.875 0.986481 5.83549 0.891099 5.76517 0.820772C5.69484 0.750446 5.59946 0.710938 5.5 0.710938C5.40055 0.710938 5.30516 0.750446 5.23484 0.820772C5.16451 0.891099 5.125 0.986481 5.125 1.08594V2.25H3.11475C2.82115 2.2479 2.53004 2.30397 2.25821 2.41496C1.98639 2.52595 1.73923 2.68967 1.53101 2.89667C1.32278 3.10367 1.15761 3.34985 1.04501 3.62101C0.932422 3.89218 0.874639 4.18295 0.875002 4.47656V27.0391C0.875002 28.2798 1.87406 29.3125 3.11475 29.3125H19.9898C21.2304 29.3125 22.25 28.2798 22.25 27.0391V23.2162L28.2554 19.2725C28.5779 19.0606 28.8304 18.7578 28.9808 18.4025C29.1313 18.0471 29.1729 17.6551 29.1006 17.276C29.0282 16.897 28.8451 16.5479 28.5743 16.2729C28.3036 15.9979 27.9573 15.8094 27.5794 15.7313ZM17.2288 4.59837C17.36 4.59837 17.4882 4.63727 17.5972 4.71013C17.7063 4.783 17.7913 4.88656 17.8415 5.00773C17.8917 5.1289 17.9048 5.26224 17.8792 5.39087C17.8536 5.5195 17.7905 5.63766 17.6977 5.7304C17.605 5.82314 17.4868 5.8863 17.3582 5.91188C17.2295 5.93747 17.0962 5.92434 16.975 5.87415C16.8539 5.82396 16.7503 5.73896 16.6774 5.62991C16.6046 5.52086 16.5657 5.39265 16.5657 5.2615C16.5659 5.08568 16.6358 4.91712 16.7601 4.7928C16.8844 4.66848 17.053 4.59856 17.2288 4.59837ZM13.3211 4.59837C13.4523 4.59839 13.5805 4.63729 13.6895 4.71016C13.7986 4.78303 13.8835 4.8866 13.9337 5.00778C13.9839 5.12895 13.997 5.26228 13.9714 5.39091C13.9458 5.51954 13.8827 5.63769 13.7899 5.73042C13.6972 5.82316 13.579 5.88631 13.4504 5.91189C13.3218 5.93747 13.1884 5.92433 13.0673 5.87414C12.9461 5.82395 12.8426 5.73896 12.7697 5.62991C12.6968 5.52086 12.6579 5.39265 12.6579 5.2615C12.6581 5.08568 12.7281 4.91712 12.8524 4.7928C12.9767 4.66848 13.1453 4.59856 13.3211 4.59837ZM9.41331 4.59837C9.54446 4.59841 9.67265 4.63734 9.78168 4.71022C9.8907 4.78311 9.97567 4.88669 10.0258 5.00786C10.076 5.12904 10.0891 5.26236 10.0635 5.39098C10.0379 5.51961 9.97471 5.63775 9.88196 5.73047C9.78921 5.82319 9.67106 5.88632 9.54243 5.9119C9.4138 5.93747 9.28048 5.92433 9.15932 5.87413C9.03816 5.82393 8.9346 5.73894 8.86175 5.62989C8.78889 5.52085 8.75 5.39265 8.75 5.2615C8.7502 5.08566 8.82015 4.91708 8.94451 4.79275C9.06887 4.66843 9.23747 4.59852 9.41331 4.59837ZM5.50563 4.59837C5.63678 4.59839 5.76498 4.63729 5.87402 4.71016C5.98306 4.78303 6.06805 4.8866 6.11823 5.00778C6.16841 5.12895 6.18153 5.26228 6.15594 5.39091C6.13035 5.51954 6.06718 5.63769 5.97444 5.73042C5.8817 5.82316 5.76354 5.88631 5.63491 5.91189C5.50628 5.93747 5.37295 5.92433 5.25178 5.87414C5.13062 5.82395 5.02705 5.73896 4.95419 5.62991C4.88133 5.52086 4.84244 5.39265 4.84244 5.2615C4.84264 5.08568 4.91258 4.91712 5.03691 4.7928C5.16124 4.66848 5.3298 4.59856 5.50563 4.59837ZM21.5 27.0391C21.4981 27.4403 21.3388 27.8247 21.0564 28.1096C20.7739 28.3945 20.3909 28.5571 19.9898 28.5625H3.11475C2.2875 28.5625 1.625 27.8662 1.625 27.0391V4.47656C1.62453 4.28141 1.66285 4.08812 1.73771 3.9079C1.81258 3.72768 1.9225 3.56413 2.06111 3.42675C2.19971 3.28938 2.36423 3.18091 2.54511 3.10765C2.72598 3.03439 2.91961 2.9978 3.11475 3H5.125V3.89925C4.5625 4.064 4.08969 4.61213 4.08969 5.26175C4.08969 5.44728 4.12623 5.631 4.19723 5.80241C4.26823 5.97382 4.3723 6.12957 4.50349 6.26076C4.63468 6.39195 4.79043 6.49602 4.96184 6.56702C5.13325 6.63802 5.31697 6.67456 5.5025 6.67456C5.68804 6.67456 5.87175 6.63802 6.04316 6.56702C6.21457 6.49602 6.37032 6.39195 6.50151 6.26076C6.6327 6.12957 6.73677 5.97382 6.80777 5.80241C6.87877 5.631 6.91531 5.44728 6.91531 5.26175C6.91976 4.9509 6.81961 4.64756 6.63094 4.40047C6.44228 4.15337 6.17605 3.97685 5.875 3.89925V3H9.0625V3.89925C8.76042 3.97639 8.49287 4.15249 8.30256 4.39944C8.11224 4.6464 8.01013 4.94998 8.0125 5.26175C8.0125 5.63693 8.16154 5.99675 8.42684 6.26204C8.69213 6.52733 9.05194 6.67637 9.42713 6.67637C9.80231 6.67637 10.1621 6.52733 10.4274 6.26204C10.6927 5.99675 10.8418 5.63693 10.8418 5.26175C10.8364 4.95496 10.7339 4.65776 10.549 4.41293C10.364 4.16809 10.1062 3.98824 9.8125 3.89925V3H12.9375V3.89925C12.375 4.064 11.9037 4.61213 11.9037 5.26175C11.9037 5.63637 12.0525 5.99564 12.3174 6.26054C12.5823 6.52543 12.9416 6.67425 13.3162 6.67425C13.6908 6.67425 14.0501 6.52543 14.315 6.26054C14.5799 5.99564 14.7287 5.63637 14.7287 5.26175C14.7329 4.95082 14.6326 4.64748 14.4438 4.4004C14.255 4.15333 13.9886 3.97684 13.6875 3.89925V3H16.875V3.89925C16.573 3.9764 16.3056 4.15254 16.1155 4.39953C15.9254 4.64651 15.8236 4.95009 15.8263 5.26175C15.8263 5.63688 15.9753 5.99665 16.2406 6.26191C16.5059 6.52717 16.8656 6.67619 17.2408 6.67619C17.6159 6.67619 17.9757 6.52717 18.2409 6.26191C18.5062 5.99665 18.6552 5.63688 18.6552 5.26175C18.6552 4.61238 18.1875 4.06425 17.625 3.89925V3H19.9898C20.8168 3 21.5 3.6495 21.5 4.47656V19.0404L20.0914 19.9654C20.0482 19.9938 20.0113 20.0309 19.983 20.0743C19.9548 20.1177 19.9359 20.1665 19.9274 20.2176C19.919 20.2686 19.9212 20.3209 19.9339 20.3711C19.9467 20.4213 19.9697 20.4683 20.0015 20.5091C20.0594 20.5834 20.1432 20.6332 20.2361 20.6486C20.3291 20.664 20.4244 20.6438 20.5031 20.5921L26.0793 16.9303L26.5328 17.6206L17.0855 23.825L16.6318 23.1346L18.4068 21.9691C18.49 21.9145 18.548 21.8291 18.5682 21.7318C18.5884 21.6344 18.569 21.5329 18.5144 21.4498C18.4598 21.3667 18.3745 21.3086 18.2771 21.2884C18.1797 21.2683 18.0783 21.2876 17.9951 21.3422L15.9083 22.7125C15.9045 22.7151 15.901 22.7183 15.8971 22.7209C15.8876 22.7277 15.8784 22.7344 15.8693 22.7421C15.8663 22.7446 15.8636 22.7474 15.8608 22.7501H10.1375C10.038 22.7501 9.94266 22.7896 9.87234 22.8599C9.80201 22.9302 9.7625 23.0256 9.7625 23.1251C9.7625 23.2245 9.80201 23.3199 9.87234 23.3902C9.94266 23.4606 10.038 23.5001 10.1375 23.5001H15.4381L15.1726 24.0018C15.161 24.0007 15.1494 24.0001 15.1375 24.0001H10.1375C10.038 24.0001 9.94266 24.0396 9.87234 24.1099C9.80201 24.1802 9.7625 24.2756 9.7625 24.3751C9.7625 24.4745 9.80201 24.5699 9.87234 24.6402C9.94266 24.7106 10.038 24.7501 10.1375 24.7501H14.7766L14.343 25.5691C14.3128 25.6263 14.2978 25.6902 14.2996 25.7549C14.3013 25.8195 14.3198 25.8825 14.3531 25.9379C14.3865 25.9933 14.4335 26.0391 14.4898 26.071C14.5461 26.1028 14.6096 26.1195 14.6743 26.1196H14.6841L17.8533 26.0365C17.861 26.0365 17.8686 26.035 17.8762 26.0344C17.8838 26.0337 17.8925 26.0333 17.9006 26.0321C17.9106 26.0306 17.9202 26.028 17.9298 26.0258C17.9369 26.0241 17.9441 26.0229 17.9513 26.0208C17.9676 26.0159 17.9836 26.0099 17.9992 26.0028C18.003 26.0011 18.0066 25.9987 18.0103 25.9965C18.0225 25.9906 18.0343 25.984 18.0457 25.9769C18.0469 25.9761 18.0483 25.9756 18.0494 25.9748L21.5 23.7088V27.0391ZM17.1601 25.3043L15.3059 25.3528L16.1473 23.7629L17.1601 25.3043ZM17.951 25.1422L17.9222 25.0984L17.4972 24.4519L26.9445 18.2479L27.3981 18.9382L17.951 25.1422ZM28.0143 18.5097L26.7171 16.5354C26.8769 16.4682 27.0493 16.4361 27.2226 16.4413C27.396 16.4465 27.5661 16.4889 27.7216 16.5656C27.8117 16.609 27.8953 16.6647 27.9699 16.7312C28.0963 16.841 28.1984 16.9758 28.2698 17.1273C28.3411 17.2787 28.3801 17.4433 28.3843 17.6107C28.3885 17.778 28.3577 17.9444 28.294 18.0991C28.2303 18.2539 28.1351 18.3938 28.0143 18.5097Z" fill="#141414"/>
</svg>
