<svg height="24dp" viewBox="0 0 512 512"
   width="24dp" xmlns="http://www.w3.org/2000/svg">
    <path fill="#FFFFFF" d="m296,286c5.52,0 10,-4.48 10,-10s-4.48,-10 -10,-10 -10,4.48 -10,10 4.48,10 10,10zM296,286"/>
    <path fill="#FFFFFF" d="m76,286c5.52,0 10,-4.48 10,-10s-4.48,-10 -10,-10 -10,4.48 -10,10 4.48,10 10,10zM76,286"/>
    <path fill="#FFFFFF" d="m10,126c5.523,0 10,-4.477 10,-10v-96h96c5.523,0 10,-4.477 10,-10s-4.477,-10 -10,-10h-106c-5.523,0 -10,4.477 -10,10v106c0,5.523 4.477,10 10,10zM10,126"/>
    <path fill="#FFFFFF" d="m126,502c0,-5.523 -4.477,-10 -10,-10h-96v-96c0,-5.523 -4.477,-10 -10,-10s-10,4.477 -10,10v106c0,5.523 4.477,10 10,10h106c5.523,0 10,-4.477 10,-10zM126,502"/>
    <path fill="#FFFFFF" d="m502,386c-5.523,0 -10,4.477 -10,10v96h-96c-5.523,0 -10,4.477 -10,10s4.477,10 10,10h106c5.523,0 10,-4.477 10,-10v-106c0,-5.523 -4.477,-10 -10,-10zM502,386"/>
    <path fill="#FFFFFF" d="m502,0h-106c-5.523,0 -10,4.477 -10,10s4.477,10 10,10h96v96c0,5.523 4.477,10 10,10s10,-4.477 10,-10v-106c0,-5.523 -4.477,-10 -10,-10zM502,0"/>
    <path fill="#FFFFFF" d="m66,436c0,5.523 4.477,10 10,10h100c5.523,0 10,-4.477 10,-10v-100c0,-5.523 -4.477,-10 -10,-10h-100c-5.523,0 -10,4.477 -10,10zM86,346h80v80h-80zM86,346"/>
    <path fill="#FFFFFF" d="m176,66h-100c-5.523,0 -10,4.477 -10,10v100c0,5.523 4.477,10 10,10h100c5.523,0 10,-4.477 10,-10v-100c0,-5.523 -4.477,-10 -10,-10zM166,166h-80v-80h80zM166,166"/>
    <path fill="#FFFFFF" d="m446,76c0,-5.523 -4.477,-10 -10,-10h-100c-5.523,0 -10,4.477 -10,10v100c0,5.523 4.477,10 10,10h100c5.523,0 10,-4.477 10,-10zM426,166h-80v-80h80zM426,166"/>
    <path fill="#FFFFFF" d="m446,436v-100c0,-5.523 -4.477,-10 -10,-10h-100c-5.523,0 -10,4.477 -10,10v100c0,5.523 4.477,10 10,10h100c5.523,0 10,-4.477 10,-10zM426,426h-80v-80h80zM426,426"/>
    <path fill="#FFFFFF" d="m136,366h-20c-5.523,0 -10,4.477 -10,10v20c0,5.523 4.477,10 10,10h20c5.523,0 10,-4.477 10,-10v-20c0,-5.523 -4.477,-10 -10,-10zM136,366"/>
    <path fill="#FFFFFF" d="m116,146h20c5.523,0 10,-4.477 10,-10v-20c0,-5.523 -4.477,-10 -10,-10h-20c-5.523,0 -10,4.477 -10,10v20c0,5.523 4.477,10 10,10zM116,146"/>
    <path fill="#FFFFFF" d="m376,146h20c5.523,0 10,-4.477 10,-10v-20c0,-5.523 -4.477,-10 -10,-10h-20c-5.523,0 -10,4.477 -10,10v20c0,5.523 4.477,10 10,10zM376,146"/>
    <path fill="#FFFFFF" d="m376,406h20c5.523,0 10,-4.477 10,-10v-20c0,-5.523 -4.477,-10 -10,-10h-20c-5.523,0 -10,4.477 -10,10v20c0,5.523 4.477,10 10,10zM376,406"/>
    <path fill="#FFFFFF" d="m106,276c0,5.523 4.477,10 10,10h130v50c0,5.523 4.477,10 10,10s10,-4.477 10,-10v-60c0,-5.523 -4.477,-10 -10,-10h-140c-5.523,0 -10,4.477 -10,10zM106,276"/>
    <path fill="#FFFFFF" d="m176,246c5.523,0 10,-4.477 10,-10s-4.477,-10 -10,-10h-100c-5.523,0 -10,4.477 -10,10s4.477,10 10,10zM176,246"/>
    <path fill="#FFFFFF" d="m216,246h40c5.523,0 10,-4.477 10,-10s-4.477,-10 -10,-10h-40c-5.523,0 -10,4.477 -10,10s4.477,10 10,10zM216,246"/>
    <path fill="#FFFFFF" d="m216,66c-5.523,0 -10,4.477 -10,10v100c0,5.523 4.477,10 10,10h70v50c0,5.523 4.477,10 10,10h40c5.523,0 10,-4.477 10,-10s-4.477,-10 -10,-10h-30v-50c0,-5.523 -4.477,-10 -10,-10h-70v-90c0,-5.523 -4.477,-10 -10,-10zM216,66"/>
    <path fill="#FFFFFF" d="m436,226h-60c-5.523,0 -10,4.477 -10,10s4.477,10 10,10h60c5.523,0 10,-4.477 10,-10s-4.477,-10 -10,-10zM436,226"/>
    <path fill="#FFFFFF" d="m436,266h-100c-5.523,0 -10,4.477 -10,10s4.477,10 10,10h100c5.523,0 10,-4.477 10,-10s-4.477,-10 -10,-10zM436,266"/>
    <path fill="#FFFFFF" d="m256,366h-40c-5.523,0 -10,4.477 -10,10v60c0,5.523 4.477,10 10,10s10,-4.477 10,-10v-50h30c5.523,0 10,-4.477 10,-10s-4.477,-10 -10,-10zM256,366"/>
    <path fill="#FFFFFF" d="m286,426h-30c-5.523,0 -10,4.477 -10,10s4.477,10 10,10h40c5.523,0 10,-4.477 10,-10v-120c0,-5.523 -4.477,-10 -10,-10s-10,4.477 -10,10zM286,426"/>
    <path fill="#FFFFFF" d="m296,146c5.523,0 10,-4.477 10,-10v-60c0,-5.523 -4.477,-10 -10,-10s-10,4.477 -10,10v50h-30c-5.523,0 -10,4.477 -10,10s4.477,10 10,10zM296,146"/>
</svg>
