<svg width="15" height="15" viewBox="0 0 15 15" fill="none" xmlns="http://www.w3.org/2000/svg">
<path d="M0.985714 0.00689293C1.06956 -0.00585369 1.15546 0.000192314 1.23631 0.0245319C1.31716 0.0488715 1.39065 0.0908067 1.45071 0.146876L2.14286 0.793799L2.835 0.146876C2.88476 0.100319 2.94388 0.0633801 3.00896 0.0381767C3.07405 0.0129733 3.14382 0 3.21429 0C3.28475 0 3.35452 0.0129733 3.41961 0.0381767C3.48469 0.0633801 3.54381 0.100319 3.59357 0.146876L4.28571 0.793799L4.97786 0.146876C5.02762 0.100319 5.08674 0.0633801 5.15182 0.0381767C5.21691 0.0129733 5.28668 0 5.35714 0C5.42761 0 5.49738 0.0129733 5.56246 0.0381767C5.62755 0.0633801 5.68667 0.100319 5.73643 0.146876L6.42857 0.793799L7.12071 0.146876C7.17048 0.100319 7.22959 0.0633801 7.29468 0.0381767C7.35976 0.0129733 7.42953 0 7.5 0C7.57046 0 7.64024 0.0129733 7.70532 0.0381767C7.77041 0.0633801 7.82952 0.100319 7.87929 0.146876L8.57143 0.793799L9.26357 0.146876C9.31333 0.100319 9.37245 0.0633801 9.43754 0.0381767C9.50262 0.0129733 9.57239 0 9.64286 0C9.71332 0 9.78309 0.0129733 9.84818 0.0381767C9.91326 0.0633801 9.97238 0.100319 10.0221 0.146876L10.7143 0.793799L11.4064 0.146876C11.4562 0.100319 11.5153 0.0633801 11.5804 0.0381767C11.6455 0.0129733 11.7152 0 11.7857 0C11.8562 0 11.926 0.0129733 11.991 0.0381767C12.0561 0.0633801 12.1152 0.100319 12.165 0.146876L12.8571 0.793799L13.5493 0.146876C13.6093 0.0908156 13.6828 0.0488752 13.7636 0.0245144C13.8444 0.000153659 13.9302 -0.00592956 14.0141 0.00676653C14.0979 0.0194626 14.1773 0.0505742 14.2457 0.0975353C14.3141 0.144496 14.3696 0.205961 14.4075 0.276861L14.9432 1.27674C14.9805 1.34626 15 1.42295 15 1.50072V13.4993C15 13.577 14.9805 13.6537 14.9432 13.7233L14.4075 14.7231C14.3695 14.7939 14.3141 14.8552 14.2458 14.902C14.1774 14.9488 14.0982 14.9799 14.0145 14.9926C13.9309 15.0052 13.8451 14.9992 13.7645 14.975C13.6838 14.9507 13.6104 14.909 13.5504 14.8531L12.8571 14.2062L12.165 14.8531C12.1152 14.8997 12.0561 14.9366 11.991 14.9618C11.926 14.987 11.8562 15 11.7857 15C11.7152 15 11.6455 14.987 11.5804 14.9618C11.5153 14.9366 11.4562 14.8997 11.4064 14.8531L10.7143 14.2062L10.0221 14.8531C9.97238 14.8997 9.91326 14.9366 9.84818 14.9618C9.78309 14.987 9.71332 15 9.64286 15C9.57239 15 9.50262 14.987 9.43754 14.9618C9.37245 14.9366 9.31333 14.8997 9.26357 14.8531L8.57143 14.2062L7.87929 14.8531C7.82952 14.8997 7.77041 14.9366 7.70532 14.9618C7.64024 14.987 7.57046 15 7.5 15C7.42953 15 7.35976 14.987 7.29468 14.9618C7.22959 14.9366 7.17048 14.8997 7.12071 14.8531L6.42857 14.2062L5.73643 14.8531C5.68667 14.8997 5.62755 14.9366 5.56246 14.9618C5.49738 14.987 5.42761 15 5.35714 15C5.28668 15 5.21691 14.987 5.15182 14.9618C5.08674 14.9366 5.02762 14.8997 4.97786 14.8531L4.28571 14.2062L3.59357 14.8531C3.54381 14.8997 3.48469 14.9366 3.41961 14.9618C3.35452 14.987 3.28475 15 3.21429 15C3.14382 15 3.07405 14.987 3.00896 14.9618C2.94388 14.9366 2.88476 14.8997 2.835 14.8531L2.14286 14.2062L1.45071 14.8531C1.39069 14.9092 1.31724 14.9511 1.23643 14.9755C1.15562 14.9998 1.06976 15.0059 0.985938 14.9932C0.902113 14.9805 0.822723 14.9494 0.754316 14.9025C0.685909 14.8555 0.630446 14.794 0.5925 14.7231L0.0567857 13.7233C0.0194493 13.6537 5.57993e-06 13.577 0 13.4993V1.50072C5.57993e-06 1.42295 0.0194493 1.34626 0.0567857 1.27674L0.5925 0.276861C0.630441 0.206011 0.685877 0.144587 0.754241 0.0976502C0.822606 0.0507134 0.901942 0.0196067 0.985714 0.00689293ZM1.21821 1.34473L1.07143 1.6187V13.3813L1.21821 13.6553L1.76464 13.1453C1.8651 13.0516 2.00134 12.999 2.14339 12.999C2.28544 12.999 2.42168 13.0516 2.52214 13.1453L3.21429 13.7923L3.90643 13.1463C3.95619 13.0998 4.01531 13.0628 4.08039 13.0376C4.14548 13.0124 4.21525 12.9995 4.28571 12.9995C4.35618 12.9995 4.42595 13.0124 4.49104 13.0376C4.55612 13.0628 4.61524 13.0998 4.665 13.1463L5.35714 13.7923L6.04929 13.1463C6.09905 13.0998 6.15817 13.0628 6.22325 13.0376C6.28833 13.0124 6.35811 12.9995 6.42857 12.9995C6.49904 12.9995 6.56881 13.0124 6.63389 13.0376C6.69898 13.0628 6.75809 13.0998 6.80786 13.1463L7.5 13.7923L8.19214 13.1463C8.24191 13.0998 8.30102 13.0628 8.36611 13.0376C8.43119 13.0124 8.50096 12.9995 8.57143 12.9995C8.64189 12.9995 8.71167 13.0124 8.77675 13.0376C8.84183 13.0628 8.90095 13.0998 8.95071 13.1463L9.64286 13.7923L10.335 13.1463C10.3848 13.0998 10.4439 13.0628 10.509 13.0376C10.574 13.0124 10.6438 12.9995 10.7143 12.9995C10.7847 12.9995 10.8545 13.0124 10.9196 13.0376C10.9847 13.0628 11.0438 13.0998 11.0936 13.1463L11.7857 13.7923L12.4779 13.1463C12.5276 13.0998 12.5867 13.0628 12.6518 13.0376C12.7169 13.0124 12.7867 12.9995 12.8571 12.9995C12.9276 12.9995 12.9974 13.0124 13.0625 13.0376C13.1275 13.0628 13.1867 13.0998 13.2364 13.1463L13.7818 13.6553L13.9286 13.3813V1.6187L13.7818 1.34473L13.2354 1.85467C13.1349 1.9484 12.9987 2.00105 12.8566 2.00105C12.7146 2.00105 12.5783 1.9484 12.4779 1.85467L11.7857 1.20775L11.0936 1.85467C11.0438 1.90123 10.9847 1.93817 10.9196 1.96337C10.8545 1.98858 10.7847 2.00155 10.7143 2.00155C10.6438 2.00155 10.574 1.98858 10.509 1.96337C10.4439 1.93817 10.3848 1.90123 10.335 1.85467L9.64286 1.20775L8.95071 1.85467C8.90095 1.90123 8.84183 1.93817 8.77675 1.96337C8.71167 1.98858 8.64189 2.00155 8.57143 2.00155C8.50096 2.00155 8.43119 1.98858 8.36611 1.96337C8.30102 1.93817 8.24191 1.90123 8.19214 1.85467L7.5 1.20775L6.80786 1.85467C6.75809 1.90123 6.69898 1.93817 6.63389 1.96337C6.56881 1.98858 6.49904 2.00155 6.42857 2.00155C6.35811 2.00155 6.28833 1.98858 6.22325 1.96337C6.15817 1.93817 6.09905 1.90123 6.04929 1.85467L5.35714 1.20775L4.665 1.85467C4.61524 1.90123 4.55612 1.93817 4.49104 1.96337C4.42595 1.98858 4.35618 2.00155 4.28571 2.00155C4.21525 2.00155 4.14548 1.98858 4.08039 1.96337C4.01531 1.93817 3.95619 1.90123 3.90643 1.85467L3.21429 1.20775L2.52214 1.85467C2.47238 1.90123 2.41326 1.93817 2.34818 1.96337C2.28309 1.98858 2.21332 2.00155 2.14286 2.00155C2.07239 2.00155 2.00262 1.98858 1.93754 1.96337C1.87245 1.93817 1.81333 1.90123 1.76357 1.85467L1.21821 1.34473Z" fill="#222222"/>
<path d="M2.14282 4.0004C2.14282 3.86781 2.19926 3.74064 2.29973 3.64689C2.4002 3.55313 2.53646 3.50046 2.67854 3.50046H9.10711C9.24919 3.50046 9.38545 3.55313 9.48592 3.64689C9.58638 3.74064 9.64282 3.86781 9.64282 4.0004C9.64282 4.13299 9.58638 4.26015 9.48592 4.35391C9.38545 4.44767 9.24919 4.50034 9.10711 4.50034H2.67854C2.53646 4.50034 2.4002 4.44767 2.29973 4.35391C2.19926 4.26015 2.14282 4.13299 2.14282 4.0004ZM2.14282 6.00016C2.14282 5.86757 2.19926 5.74041 2.29973 5.64665C2.4002 5.55289 2.53646 5.50022 2.67854 5.50022H9.10711C9.24919 5.50022 9.38545 5.55289 9.48592 5.64665C9.58638 5.74041 9.64282 5.86757 9.64282 6.00016C9.64282 6.13275 9.58638 6.25991 9.48592 6.35367C9.38545 6.44743 9.24919 6.5001 9.10711 6.5001H2.67854C2.53646 6.5001 2.4002 6.44743 2.29973 6.35367C2.19926 6.25991 2.14282 6.13275 2.14282 6.00016ZM2.14282 7.99992C2.14282 7.86733 2.19926 7.74017 2.29973 7.64641C2.4002 7.55265 2.53646 7.49998 2.67854 7.49998H9.10711C9.24919 7.49998 9.38545 7.55265 9.48592 7.64641C9.58638 7.74017 9.64282 7.86733 9.64282 7.99992C9.64282 8.13251 9.58638 8.25968 9.48592 8.35343C9.38545 8.44719 9.24919 8.49986 9.10711 8.49986H2.67854C2.53646 8.49986 2.4002 8.44719 2.29973 8.35343C2.19926 8.25968 2.14282 8.13251 2.14282 7.99992ZM2.14282 9.99968C2.14282 9.86709 2.19926 9.73993 2.29973 9.64617C2.4002 9.55241 2.53646 9.49974 2.67854 9.49974H9.10711C9.24919 9.49974 9.38545 9.55241 9.48592 9.64617C9.58638 9.73993 9.64282 9.86709 9.64282 9.99968C9.64282 10.1323 9.58638 10.2594 9.48592 10.3532C9.38545 10.447 9.24919 10.4996 9.10711 10.4996H2.67854C2.53646 10.4996 2.4002 10.447 2.29973 10.3532C2.19926 10.2594 2.14282 10.1323 2.14282 9.99968ZM10.7143 4.0004C10.7143 3.86781 10.7707 3.74064 10.8712 3.64689C10.9716 3.55313 11.1079 3.50046 11.25 3.50046H12.3214C12.4635 3.50046 12.5997 3.55313 12.7002 3.64689C12.8007 3.74064 12.8571 3.86781 12.8571 4.0004C12.8571 4.13299 12.8007 4.26015 12.7002 4.35391C12.5997 4.44767 12.4635 4.50034 12.3214 4.50034H11.25C11.1079 4.50034 10.9716 4.44767 10.8712 4.35391C10.7707 4.26015 10.7143 4.13299 10.7143 4.0004ZM10.7143 6.00016C10.7143 5.86757 10.7707 5.74041 10.8712 5.64665C10.9716 5.55289 11.1079 5.50022 11.25 5.50022H12.3214C12.4635 5.50022 12.5997 5.55289 12.7002 5.64665C12.8007 5.74041 12.8571 5.86757 12.8571 6.00016C12.8571 6.13275 12.8007 6.25991 12.7002 6.35367C12.5997 6.44743 12.4635 6.5001 12.3214 6.5001H11.25C11.1079 6.5001 10.9716 6.44743 10.8712 6.35367C10.7707 6.25991 10.7143 6.13275 10.7143 6.00016ZM10.7143 7.99992C10.7143 7.86733 10.7707 7.74017 10.8712 7.64641C10.9716 7.55265 11.1079 7.49998 11.25 7.49998H12.3214C12.4635 7.49998 12.5997 7.55265 12.7002 7.64641C12.8007 7.74017 12.8571 7.86733 12.8571 7.99992C12.8571 8.13251 12.8007 8.25968 12.7002 8.35343C12.5997 8.44719 12.4635 8.49986 12.3214 8.49986H11.25C11.1079 8.49986 10.9716 8.44719 10.8712 8.35343C10.7707 8.25968 10.7143 8.13251 10.7143 7.99992ZM10.7143 9.99968C10.7143 9.86709 10.7707 9.73993 10.8712 9.64617C10.9716 9.55241 11.1079 9.49974 11.25 9.49974H12.3214C12.4635 9.49974 12.5997 9.55241 12.7002 9.64617C12.8007 9.73993 12.8571 9.86709 12.8571 9.99968C12.8571 10.1323 12.8007 10.2594 12.7002 10.3532C12.5997 10.447 12.4635 10.4996 12.3214 10.4996H11.25C11.1079 10.4996 10.9716 10.447 10.8712 10.3532C10.7707 10.2594 10.7143 10.1323 10.7143 9.99968Z" fill="#222222"/>
</svg>
