<svg width="18" height="18" viewBox="0 0 18 18" fill="none" xmlns="http://www.w3.org/2000/svg">
<path d="M13.125 9C14.219 9 15.2682 9.43459 16.0418 10.2082C16.8154 10.9818 17.25 12.031 17.25 13.125C17.25 14.219 16.8154 15.2682 16.0418 16.0418C15.2682 16.8154 14.219 17.25 13.125 17.25C12.031 17.25 10.9818 16.8154 10.2082 16.0418C9.4346 15.2682 9 14.219 9 13.125C9 12.031 9.4346 10.9818 10.2082 10.2082C10.9818 9.43459 12.031 9 13.125 9ZM13.125 10.5L13.0575 10.5052C12.9826 10.5189 12.9136 10.5551 12.8597 10.609C12.8059 10.6628 12.7697 10.7318 12.756 10.8067L12.75 10.875V12.75H10.8735L10.806 12.7567C10.7311 12.7704 10.6621 12.8066 10.6082 12.8605C10.5544 12.9143 10.5182 12.9833 10.5045 13.0582L10.4985 13.1257L10.5045 13.1932C10.5182 13.2682 10.5544 13.3372 10.6082 13.391C10.6621 13.4449 10.7311 13.4811 10.806 13.4947L10.8735 13.5007H12.75V15.378L12.756 15.4455C12.7697 15.5204 12.8059 15.5894 12.8597 15.6433C12.9136 15.6971 12.9826 15.7333 13.0575 15.747L13.125 15.753L13.1925 15.747C13.2674 15.7333 13.3364 15.6971 13.3903 15.6433C13.4441 15.5894 13.4803 15.5204 13.494 15.4455L13.5 15.378V13.5H15.378L15.4455 13.4947C15.5204 13.4811 15.5894 13.4449 15.6433 13.391C15.6971 13.3372 15.7333 13.2682 15.747 13.1932L15.753 13.1257L15.747 13.0582C15.7333 12.9832 15.697 12.9142 15.643 12.8603C15.589 12.8064 15.5198 12.7703 15.4447 12.7567L15.3773 12.7507H13.5V10.8757L13.494 10.8082C13.4804 10.7332 13.4443 10.664 13.3905 10.61C13.3366 10.556 13.2675 10.5197 13.1925 10.506L13.125 10.5ZM10.4438 1.8765C10.7378 1.87647 11.0267 1.95328 11.2819 2.0993C11.5371 2.24532 11.7498 2.4555 11.8988 2.709L12.5093 3.75H14.0625C14.3826 3.75 14.6996 3.81304 14.9953 3.93554C15.291 4.05803 15.5597 4.23758 15.7861 4.46392C16.0124 4.69027 16.192 4.95897 16.3145 5.2547C16.437 5.55044 16.5 5.8674 16.5 6.1875V9.6075C16.1655 9.28627 15.7869 9.01429 15.3757 8.79975L15.375 6.1875C15.375 5.8394 15.2367 5.50556 14.9906 5.25942C14.7444 5.01328 14.4106 4.875 14.0625 4.875H12.1875C12.0894 4.87505 11.9931 4.84947 11.908 4.80079C11.8228 4.75211 11.7519 4.68203 11.7022 4.5975L10.9283 3.27975C10.8786 3.19532 10.8078 3.12531 10.7229 3.07664C10.6379 3.02797 10.5417 3.00232 10.4438 3.00225H7.5915C7.50942 3.00231 7.42836 3.02034 7.35399 3.05506C7.27962 3.08979 7.21375 3.14036 7.161 3.20325L7.11225 3.27075L6.2925 4.60575C6.24223 4.68774 6.17178 4.75547 6.08788 4.80248C6.00398 4.84948 5.90942 4.87419 5.81325 4.87425H3.93825C3.76576 4.87415 3.59495 4.90805 3.43557 4.97401C3.2762 5.03997 3.13139 5.1367 3.00942 5.25867C2.88746 5.38063 2.79073 5.52544 2.72476 5.68482C2.6588 5.8442 2.6249 6.01501 2.625 6.1875V13.3125C2.625 14.037 3.213 14.625 3.9375 14.625H8.48475C8.6145 15.0247 8.79375 15.4027 9.0165 15.75H3.9375C3.29103 15.75 2.67105 15.4932 2.21393 15.0361C1.75681 14.5789 1.5 13.959 1.5 13.3125V6.1875C1.5 5.54103 1.75681 4.92104 2.21393 4.46392C2.67105 4.0068 3.29103 3.75 3.9375 3.75H5.4975L6.15375 2.682C6.30464 2.43616 6.51603 2.23311 6.76773 2.09222C7.01944 1.95134 7.30305 1.87732 7.5915 1.87725H10.4438V1.8765ZM9 6C9.71352 5.99995 10.4087 6.22593 10.9858 6.64552C11.5629 7.06511 11.9923 7.65674 12.2123 8.3355C11.8373 8.40675 11.4773 8.52075 11.1375 8.67225C10.9713 8.16296 10.6288 7.72972 10.1716 7.4505C9.71435 7.17128 9.17249 7.06442 8.64351 7.14915C8.11453 7.23388 7.63316 7.50463 7.28604 7.91268C6.93892 8.32073 6.74883 8.83927 6.75 9.375C6.75 10.4475 7.5 11.3437 8.5035 11.5702C8.38341 11.9269 8.30538 12.2964 8.271 12.6712C7.45941 12.4911 6.74286 12.0177 6.25864 11.3419C5.77443 10.6662 5.5566 9.83547 5.64691 9.00904C5.73722 8.18261 6.12931 7.41857 6.74804 6.86332C7.36678 6.30807 8.16865 6.00066 9 6Z" fill="#707070"/>
</svg>
