<svg height="48dp" viewBox="0 0 24 24"
    width="48dp" xmlns="http://www.w3.org/2000/svg">
    <path fill="#cfd8dc" d="m21.25,20.25h-18.5c-1.105,0 -2,-0.895 -2,-2v-12.5c0,-1.105 0.895,-2 2,-2h18.5c1.105,0 2,0.895 2,2v12.5c0,1.105 -0.895,2 -2,2z"/>
    <path fill="#90a4ae" d="m7.25,15.25h-6.5v-6.5h6.5c1.105,0 2,0.895 2,2v2.5c0,1.105 -0.895,2 -2,2z"/>
    <path fill="#00bcd4" d="m18.5,12.75 l-4.75,4.75h3v5.25c0,0.28 0.22,0.5 0.5,0.5h2.5c0.28,0 0.5,-0.22 0.5,-0.5v-5.25h3z"/>
    <path fill="#FF000000" d="m19.75,24h-2.5c-0.689,0 -1.25,-0.561 -1.25,-1.25v-4.5h-2.25c-0.303,0 -0.577,-0.183 -0.693,-0.463s-0.052,-0.603 0.163,-0.817l4.75,-4.75c0.293,-0.293 0.768,-0.293 1.061,0l4.75,4.75c0.214,0.215 0.279,0.537 0.163,0.817s-0.39,0.463 -0.693,0.463h-2.251v4.5c0,0.689 -0.561,1.25 -1.25,1.25zM17.5,22.5h2v-5c0,-0.414 0.336,-0.75 0.75,-0.75h1.189l-2.939,-2.939 -2.939,2.939h1.189c0.414,0 0.75,0.336 0.75,0.75z"/>
    <path fill="#FF000000" d="m11.25,21h-8.5c-1.517,0 -2.75,-1.233 -2.75,-2.75v-12.5c0,-1.517 1.233,-2.75 2.75,-2.75h18.5c1.517,0 2.75,1.233 2.75,2.75v6.5c0,0.414 -0.336,0.75 -0.75,0.75s-0.75,-0.336 -0.75,-0.75v-6.5c0,-0.689 -0.561,-1.25 -1.25,-1.25h-18.5c-0.689,0 -1.25,0.561 -1.25,1.25v12.5c0,0.689 0.561,1.25 1.25,1.25h8.5c0.414,0 0.75,0.336 0.75,0.75s-0.336,0.75 -0.75,0.75z"/>
    <path fill="#FF000000" d="m7.25,16h-6.5c-0.414,0 -0.75,-0.336 -0.75,-0.75v-6.5c0,-0.414 0.336,-0.75 0.75,-0.75h6.5c1.517,0 2.75,1.233 2.75,2.75v2.5c0,1.517 -1.233,2.75 -2.75,2.75zM1.5,14.5h5.75c0.689,0 1.25,-0.561 1.25,-1.25v-2.5c0,-0.689 -0.561,-1.25 -1.25,-1.25h-5.75z"/>
    <path fill="#FF000000" d="M5,12m-1,0a1,1 0,1 1,2 0a1,1 0,1 1,-2 0"/>
</svg>
