<svg width="24" height="22" viewBox="0 0 24 22" fill="none" xmlns="http://www.w3.org/2000/svg">
<path d="M0 4.625C0 3.53098 0.434597 2.48177 1.20818 1.70818C1.98177 0.934597 3.03098 0.5 4.125 0.5H5.25C5.54837 0.5 5.83452 0.618526 6.0455 0.829505C6.25647 1.04048 6.375 1.32663 6.375 1.625C6.375 1.92337 6.25647 2.20952 6.0455 2.4205C5.83452 2.63147 5.54837 2.75 5.25 2.75H4.125C3.09 2.75 2.25 3.59 2.25 4.625V5.75C2.25 6.04837 2.13147 6.33452 1.9205 6.54549C1.70952 6.75647 1.42337 6.875 1.125 6.875C0.826631 6.875 0.540483 6.75647 0.329505 6.54549C0.118526 6.33452 6.28765e-09 6.04837 0 5.75V4.625ZM17.625 1.625C17.625 1.32663 17.7435 1.04048 17.9545 0.829505C18.1655 0.618526 18.4516 0.5 18.75 0.5H19.875C20.969 0.5 22.0182 0.934597 22.7918 1.70818C23.5654 2.48177 24 3.53098 24 4.625V5.75C24 6.04837 23.8815 6.33452 23.6705 6.54549C23.4595 6.75647 23.1734 6.875 22.875 6.875C22.5766 6.875 22.2905 6.75647 22.0795 6.54549C21.8685 6.33452 21.75 6.04837 21.75 5.75V4.625C21.75 3.59 20.91 2.75 19.875 2.75H18.75C18.4516 2.75 18.1655 2.63147 17.9545 2.4205C17.7435 2.20952 17.625 1.92337 17.625 1.625ZM1.125 15.125C1.42337 15.125 1.70952 15.2435 1.9205 15.4545C2.13147 15.6655 2.25 15.9516 2.25 16.25V17.375C2.25 18.41 3.09 19.25 4.125 19.25H5.25C5.54837 19.25 5.83452 19.3685 6.0455 19.5795C6.25647 19.7905 6.375 20.0766 6.375 20.375C6.375 20.6734 6.25647 20.9595 6.0455 21.1705C5.83452 21.3815 5.54837 21.5 5.25 21.5H4.125C3.03098 21.5 1.98177 21.0654 1.20818 20.2918C0.434597 19.5182 0 18.469 0 17.375V16.25C0 15.9516 0.118526 15.6655 0.329505 15.4545C0.540483 15.2435 0.826631 15.125 1.125 15.125ZM22.875 15.125C23.1734 15.125 23.4595 15.2435 23.6705 15.4545C23.8815 15.6655 24 15.9516 24 16.25V17.375C24 18.469 23.5654 19.5182 22.7918 20.2918C22.0182 21.0654 20.969 21.5 19.875 21.5H18.75C18.4516 21.5 18.1655 21.3815 17.9545 21.1705C17.7435 20.9595 17.625 20.6734 17.625 20.375C17.625 20.0766 17.7435 19.7905 17.9545 19.5795C18.1655 19.3685 18.4516 19.25 18.75 19.25H19.875C20.91 19.25 21.75 18.41 21.75 17.375V16.25C21.75 15.9516 21.8685 15.6655 22.0795 15.4545C22.2905 15.2435 22.5766 15.125 22.875 15.125ZM5.25 5C5.54837 5 5.83452 5.11853 6.0455 5.3295C6.25647 5.54048 6.375 5.82663 6.375 6.125V15.875C6.375 16.1734 6.25647 16.4595 6.0455 16.6705C5.83452 16.8815 5.54837 17 5.25 17C4.95163 17 4.66548 16.8815 4.4545 16.6705C4.24353 16.4595 4.125 16.1734 4.125 15.875V6.125C4.125 5.82663 4.24353 5.54048 4.4545 5.3295C4.66548 5.11853 4.95163 5 5.25 5ZM10.875 6.125C10.875 5.82663 10.7565 5.54048 10.5455 5.3295C10.3345 5.11853 10.0484 5 9.75 5C9.45163 5 9.16548 5.11853 8.9545 5.3295C8.74353 5.54048 8.625 5.82663 8.625 6.125V15.875C8.625 16.1734 8.74353 16.4595 8.9545 16.6705C9.16548 16.8815 9.45163 17 9.75 17C10.0484 17 10.3345 16.8815 10.5455 16.6705C10.7565 16.4595 10.875 16.1734 10.875 15.875V6.125ZM14.25 5C14.5484 5 14.8345 5.11853 15.0455 5.3295C15.2565 5.54048 15.375 5.82663 15.375 6.125V15.875C15.375 16.1734 15.2565 16.4595 15.0455 16.6705C14.8345 16.8815 14.5484 17 14.25 17C13.9516 17 13.6655 16.8815 13.4545 16.6705C13.2435 16.4595 13.125 16.1734 13.125 15.875V6.125C13.125 5.82663 13.2435 5.54048 13.4545 5.3295C13.6655 5.11853 13.9516 5 14.25 5ZM19.875 6.125C19.875 5.82663 19.7565 5.54048 19.5455 5.3295C19.3345 5.11853 19.0484 5 18.75 5C18.4516 5 18.1655 5.11853 17.9545 5.3295C17.7435 5.54048 17.625 5.82663 17.625 6.125V15.875C17.625 16.1734 17.7435 16.4595 17.9545 16.6705C18.1655 16.8815 18.4516 17 18.75 17C19.0484 17 19.3345 16.8815 19.5455 16.6705C19.7565 16.4595 19.875 16.1734 19.875 15.875V6.125Z" fill="white"/>
</svg>
