<svg height="48dp" viewBox="0 0 512 512"
    width="48dp" xmlns="http://www.w3.org/2000/svg">
    <path fill="#FF000000" d="M136,288L312,288a119.881,119.881 0,0 0,32 -4.318v9.309a35.259,35.259 0,0 0,-22.766 14.32c-6.041,8.348 -9.234,19.751 -9.234,32.975v48a7.994,7.994 0,0 0,1.058 3.976L336,432.319L336,488a8,8 0,0 0,8 8L464,496a8,8 0,0 0,8 -8L472,433.7l15.519,-42.675a8.02,8.02 0,0 0,0.481 -2.734L488,288a24,24 0,0 0,-32 -22.629L456,264a23.992,23.992 0,0 0,-35.774 -20.908,24.18 24.18,0 0,0 -8.658,-8.112A120,120 0,0 0,312 48L136,48a120,120 0,0 0,0 240ZM432,256a8.009,8.009 0,0 1,8 8v72a8,8 0,0 0,16 0L456,288a8,8 0,0 1,16 0v98.876l-15.519,42.676a8.012,8.012 0,0 0,-0.481 2.734L456,480L352,480L352,430.19a7.994,7.994 0,0 0,-1.058 -3.976L328,386.157L328,340.286c0,-8.274 1.742,-25.968 16,-30.767L344,336a8,8 0,0 0,16 0L360,200a8,8 0,0 1,16 0L376,309.048a8,8 0,0 0,16 0L392,256a8,8 0,0 1,16 0v64a8,8 0,0 0,16 0L424,264A8.009,8.009 0,0 1,432 256ZM136,64L312,64a103.975,103.975 0,0 1,81.143 169.019c-0.383,0.115 -0.769,0.219 -1.143,0.352L392,200a24,24 0,0 0,-48 0v66.973A103.732,103.732 0,0 1,312 272L136,272a104,104 0,0 1,0 -208Z"/>
    <path fill="#FF000000" d="M272,248a23.853,23.853 0,0 0,-1.7 -8.846,24 24,0 0,0 3.074,-45.245l14.432,-72.162L294.246,96L312,96a8,8 0,0 0,0 -16L288,80a8,8 0,0 0,-7.761 6.06L273.754,112L120,112a8,8 0,0 0,-7.845 9.569l16,80A8,8 0,0 0,136 208L264,208a8,8 0,0 1,0 16L136,224a24.012,24.012 0,1 0,22.624 16h66.752A24,24 0,1 0,272 248ZM265.442,152h-20.6l2.4,-24h23ZM192,168v24L175.24,192l-2.4,-24ZM171.24,152 L168.84,128L192,128v24ZM208,168h19.16l-2.4,24L208,192ZM208,152L208,128h23.16l-2.4,24ZM152.76,128 L155.16,152h-20.6l-4.8,-24ZM137.76,168h19l2.4,24h-16.6ZM240.84,192l2.4,-24h19l-4.8,24ZM144,248a8,8 0,1 1,-8 -8A8.009,8.009 0,0 1,144 248ZM248,256a8,8 0,1 1,8 -8A8.009,8.009 0,0 1,248 256Z"/>
    <path fill="#FF000000" d="M226.343,338.343l-24,24a8,8 0,0 0,0 11.314l24,24a8,8 0,0 0,11.314 0l24,-24a8,8 0,0 0,0 -11.314l-24,-24A8,8 0,0 0,226.343 338.343ZM232,380.687 L219.313,368 232,355.313 244.687,368Z"/>
    <path fill="#FF000000" d="M469.657,18.343a8,8 0,0 0,-11.314 0l-24,24a8,8 0,0 0,0 11.314l24,24a8,8 0,0 0,11.314 0l24,-24a8,8 0,0 0,0 -11.314ZM464,60.687 L451.313,48 464,35.313 476.687,48Z"/>
</svg>
