<svg width="42" height="42" viewBox="0 0 42 42" fill="none" xmlns="http://www.w3.org/2000/svg">
<circle cx="21" cy="21" r="21" fill="#185ADB"/>
<path d="M16.125 23.25C16.781 23.2481 17.4122 22.999 17.8928 22.5525L22.5878 25.2353C22.4305 25.85 22.4998 26.5008 22.7831 27.0685C23.0664 27.6363 23.5447 28.083 24.1305 28.3269C24.7163 28.5708 25.3703 28.5956 25.9728 28.3967C26.5753 28.1979 27.0861 27.7886 27.4116 27.244C27.7371 26.6993 27.8555 26.0556 27.7451 25.4307C27.6348 24.8059 27.3031 24.2417 26.8108 23.8414C26.3185 23.4411 25.6985 23.2315 25.0643 23.251C24.4301 23.2705 23.8241 23.5177 23.3573 23.9475L18.6623 21.2648C18.7118 21.0773 18.7388 20.883 18.7433 20.6888L23.3558 18.0525C23.7999 18.4566 24.3695 18.6956 24.969 18.7295C25.5685 18.7635 26.1614 18.5902 26.6483 18.2387C27.1351 17.8873 27.4863 17.3792 27.6429 16.7995C27.7995 16.2198 27.752 15.6039 27.5084 15.0552C27.2648 14.5064 26.8398 14.0581 26.3048 13.7855C25.7698 13.5128 25.1573 13.4325 24.5701 13.558C23.9829 13.6834 23.4567 14.0069 23.0798 14.4743C22.7029 14.9417 22.4982 15.5246 22.5 16.125C22.503 16.341 22.5323 16.5563 22.5878 16.7648L18.3248 19.2C18.0776 18.8176 17.7351 18.506 17.331 18.2959C16.927 18.0859 16.4752 17.9846 16.0202 18.0019C15.5651 18.0193 15.1224 18.1547 14.7355 18.395C14.3486 18.6352 14.0309 18.9719 13.8135 19.3721C13.5962 19.7723 13.4867 20.2221 13.4958 20.6775C13.5049 21.1328 13.6323 21.5779 13.8654 21.969C14.0986 22.3602 14.4295 22.684 14.8257 22.9086C15.2219 23.1332 15.6696 23.2508 16.125 23.25Z" fill="white"/>
</svg>
