<svg height="48dp" viewBox="0 0 512 512"
   width="48dp" xmlns="http://www.w3.org/2000/svg">
    <path fill="#f7ef87" d="m504.5,256c0,137.242 -111.258,248.5 -248.5,248.5s-248.5,-111.258 -248.5,-248.5 111.258,-248.5 248.5,-248.5 248.5,111.258 248.5,248.5zM504.5,256"/>
    <path fill="#efd176" d="m181.32,18.926c-100.75,31.707 -173.82,125.855 -173.82,237.074 0,137.242 111.258,248.5 248.5,248.5 85.324,0 160.598,-43.012 205.344,-108.527 -263.371,67.176 -398.637,-239.148 -280.023,-377.047zM181.32,18.926"/>
    <path fill="#8eafe2" d="m461.402,256c0,113.441 -91.961,205.402 -205.402,205.402s-205.402,-91.961 -205.402,-205.402 91.961,-205.402 205.402,-205.402 205.402,91.961 205.402,205.402zM461.402,256"/>
    <path fill="#6a96d7" d="m50.598,256c0,113.441 91.961,205.406 205.402,205.406 54.605,0 104.23,-21.316 141.023,-56.074 -188.109,5.926 -291.43,-188.152 -249.914,-323.512 -57.961,36.313 -96.512,100.738 -96.512,174.18zM50.598,256"/>
    <path fill="#6a96d7" d="m358.273,378.496c-1.922,0 -3.84,-0.73 -5.305,-2.195 -2.93,-2.93 -2.93,-7.68 0,-10.605l17.52,-17.52c2.926,-2.93 7.676,-2.93 10.605,0 2.93,2.93 2.93,7.68 0,10.609l-17.52,17.516c-1.465,1.465 -3.383,2.195 -5.301,2.195zM358.273,378.496"/>
    <path fill="#6a96d7" d="m363.266,338.477c-1.922,0 -3.84,-0.73 -5.305,-2.195 -2.93,-2.93 -2.93,-7.676 0,-10.605l17.516,-17.52c2.93,-2.93 7.68,-2.93 10.609,0 2.93,2.93 2.93,7.68 0,10.605l-17.52,17.52c-1.465,1.465 -3.383,2.195 -5.301,2.195zM363.266,338.477"/>
    <path fill="#6a96d7" d="m150.914,153.316c-1.922,0 -3.84,-0.73 -5.305,-2.195 -2.93,-2.93 -2.93,-7.676 0,-10.605l17.52,-17.52c2.93,-2.93 7.676,-2.93 10.605,0 2.93,2.93 2.93,7.68 0,10.605l-17.52,17.52c-1.461,1.465 -3.383,2.195 -5.301,2.195zM150.914,153.316"/>
    <path fill="#fff" d="m287.344,265.219c-97.863,0 -136.133,56.543 -140.77,112.789 -0.75,9.105 -12.973,11.621 -17.125,3.48 -66.367,-130.152 53.234,-228.281 157.895,-228.281v-33.566c0,-11.566 13.363,-18.008 22.41,-10.801l91.59,72.938c17.629,14.043 17.629,40.832 0,54.871l-91.59,72.941c-9.047,7.207 -22.41,0.766 -22.41,-10.801zM287.344,265.219"/>
    <path fill="#f6e3a3" d="m129.449,381.484c4.152,8.145 16.375,5.629 17.125,-3.477 2.457,-29.801 14.355,-59.684 39.559,-81.199 -17.344,-25.355 -30.277,-53.43 -38.348,-82.281 -37.273,41.031 -52.621,99.723 -18.336,166.957zM129.449,381.484"/>
    <path fill="#FF000000" d="m399.738,449.461c-41.785,31.102 -91.492,47.539 -143.738,47.539 -64.375,0 -124.895,-25.066 -170.414,-70.586 -45.52,-45.52 -70.586,-106.039 -70.586,-170.414 0,-41.41 10.676,-82.25 30.871,-118.102 2.031,-3.609 0.754,-8.184 -2.855,-10.215 -3.605,-2.035 -8.18,-0.754 -10.215,2.852 -21.457,38.098 -32.801,81.48 -32.801,125.465 0,68.379 26.629,132.668 74.98,181.02 48.352,48.352 112.641,74.98 181.02,74.98 55.5,0 108.301,-17.465 152.695,-50.504 3.32,-2.473 4.012,-7.172 1.539,-10.496 -2.473,-3.32 -7.172,-4.012 -10.496,-1.539zM122.77,384.895c2.879,5.645 8.508,9.016 14.625,9.016 1.082,0 2.18,-0.105 3.281,-0.324 7.383,-1.453 12.754,-7.469 13.375,-14.965 1.684,-20.453 8.797,-49.664 33.102,-72.648 21.961,-20.77 53.117,-31.898 92.691,-33.137v25.953c0,8.258 4.621,15.609 12.059,19.195 7.438,3.582 16.066,2.613 22.523,-2.527l91.59,-72.941c10.199,-8.121 16.051,-20.262 16.051,-33.301 0,-13.039 -5.852,-25.18 -16.051,-33.305l-91.59,-72.938c-6.457,-5.145 -15.09,-6.109 -22.523,-2.527 -7.438,3.586 -12.059,10.938 -12.059,19.195v26.23c-28.594,1.23 -58.5,9.418 -85.02,23.371 -30.25,15.91 -54.746,38.211 -70.844,64.488 -13.164,21.492 -20.25,44.809 -21.063,69.309 -0.891,26.742 5.793,54.281 19.852,81.855zM136.77,241.566c14.688,-23.977 37.176,-44.395 65.035,-59.051 26.734,-14.063 57.113,-21.809 85.539,-21.809 4.141,0 7.5,-3.359 7.5,-7.5v-33.57c0,-3.574 2.496,-5.164 3.566,-5.684 0.559,-0.266 1.582,-0.656 2.824,-0.656 1.156,0 2.5,0.336 3.848,1.406l91.586,72.938c6.609,5.266 10.398,13.125 10.398,21.57 0,8.445 -3.789,16.309 -10.398,21.566l-91.586,72.941c-2.797,2.23 -5.598,1.27 -6.672,0.75 -1.07,-0.52 -3.566,-2.105 -3.566,-5.684v-33.566c0,-4.141 -3.359,-7.5 -7.5,-7.5 -47.113,0 -84.293,12.566 -110.5,37.355 -27.75,26.246 -35.844,59.25 -37.742,82.316 -0.027,0.305 -0.105,1.238 -1.328,1.48 -1.125,0.219 -1.484,-0.488 -1.641,-0.793 -31.16,-61.102 -16.852,-107.961 0.637,-136.512zM437.02,74.98c-48.352,-48.352 -112.641,-74.98 -181.02,-74.98 -40.582,0 -79.395,9.223 -115.359,27.406 -34.297,17.34 -64.789,42.691 -88.188,73.313 -2.512,3.289 -1.883,7.996 1.406,10.512 3.293,2.516 8,1.883 10.516,-1.406 22.031,-28.836 50.742,-52.707 83.031,-69.031 33.848,-17.113 70.383,-25.793 108.594,-25.793 64.375,0 124.895,25.066 170.414,70.586 45.52,45.52 70.586,106.039 70.586,170.414 0,64.336 -25.039,124.828 -70.512,170.336 -2.926,2.93 -2.926,7.68 0.004,10.605 1.465,1.465 3.383,2.195 5.305,2.195 1.918,0 3.84,-0.734 5.305,-2.199 48.297,-48.34 74.898,-112.598 74.898,-180.938 0,-68.379 -26.629,-132.668 -74.98,-181.02zM256,468.902c117.395,0 212.902,-95.508 212.902,-212.902s-95.508,-212.902 -212.902,-212.902 -212.902,95.508 -212.902,212.902 95.508,212.902 212.902,212.902zM256,58.098c109.125,0 197.902,88.777 197.902,197.902s-88.777,197.902 -197.902,197.902 -197.902,-88.777 -197.902,-197.902 88.777,-197.902 197.902,-197.902zM256,58.098"/>
</svg>
