<svg width="30" height="30" viewBox="0 0 30 30" fill="none" xmlns="http://www.w3.org/2000/svg">
<path d="M15 2.49988C8.1075 2.49988 2.5 6.98613 2.5 12.4999C2.5 16.1349 4.8725 19.3936 8.75 21.1674V27.4999L15.425 22.4936C22.1213 22.3149 27.5 17.8999 27.5 12.4999C27.5 6.98613 21.8925 2.49988 15 2.49988ZM15 19.9999H14.5837L11.25 22.4999V19.4786L10.4488 19.1699C7.0875 17.8761 5 15.3199 5 12.4999C5 8.36363 9.48625 4.99988 15 4.99988C20.5138 4.99988 25 8.36363 25 12.4999C25 16.6361 20.5138 19.9999 15 19.9999Z" fill="#F1F1F1"/>
<path d="M16.25 7.5H13.75V11.25H10V13.75H13.75V17.5H16.25V13.75H20V11.25H16.25V7.5Z" fill="#F1F1F1"/>
</svg>
