<svg height="48dp" viewBox="0 0 64 64"
    width="48dp" xmlns="http://www.w3.org/2000/svg">
    <path fill="#FF000000" d="m49,27c0.552,0 1,0.448 1,1h2c0,-1.654 -1.346,-3 -3,-3v-2h-2v2h-3v3c0,1.654 1.346,3 3,3h2c0.552,0 1,0.448 1,1v1h-3c-0.552,0 -1,-0.448 -1,-1h-2c0,1.654 1.346,3 3,3v2h2v-2h3v-3c0,-1.654 -1.346,-3 -3,-3h-2c-0.552,0 -1,-0.448 -1,-1v-1z"/>
    <path fill="#FF000000" d="m48,19c-6.065,0 -11,4.935 -11,11s4.935,11 11,11 11,-4.935 11,-11 -4.935,-11 -11,-11zM48,39c-4.963,0 -9,-4.037 -9,-9s4.037,-9 9,-9 9,4.037 9,9 -4.037,9 -9,9z"/>
    <path fill="#FF000000" d="m28,53c-0.771,0 -1.468,0.301 -2,0.78 -0.532,-0.48 -1.229,-0.78 -2,-0.78 -1.654,0 -3,1.346 -3,3s1.346,3 3,3c0.771,0 1.468,-0.301 2,-0.78 0.532,0.48 1.229,0.78 2,0.78 1.654,0 3,-1.346 3,-3s-1.346,-3 -3,-3zM24,57c-0.552,0 -1,-0.448 -1,-1s0.448,-1 1,-1 1,0.448 1,1 -0.448,1 -1,1zM28,57c-0.552,0 -1,-0.448 -1,-1s0.448,-1 1,-1 1,0.448 1,1 -0.448,1 -1,1z"/>
    <path fill="#FF000000" d="m13,57h2v2h-2z"/>
    <path fill="#FF000000" d="m5,57h2v2h-2z"/>
    <path fill="#FF000000" d="m9,57h2v2h-2z"/>
    <path fill="#FF000000" d="m5,53h10v2h-10z"/>
    <path fill="#FF000000" d="m63,30c0,-7.934 -6.195,-14.431 -14,-14.949v-14.051h-8v1c0,0.552 -0.448,1 -1,1s-1,-0.448 -1,-1v-1h-8v1c0,0.552 -0.448,1 -1,1s-1,-0.448 -1,-1v-1h-8v1c0,0.552 -0.448,1 -1,1s-1,-0.448 -1,-1v-1h-8v40h-7c-1.654,0 -3,1.346 -3,3v16c0,1.654 1.346,3 3,3h28c1.654,0 3,-1.346 3,-3v-11h9v10c0,2.206 1.794,4 4,4s4,-1.794 4,-4v-14.558c6.333,-1.757 11,-7.557 11,-14.442zM4,43h28c0.552,0 1,0.448 1,1v1h-30v-1c0,-0.552 0.448,-1 1,-1zM33,47v2h-30v-2zM32,61h-28c-0.552,0 -1,-0.448 -1,-1v-9h30v9c0,0.552 -0.448,1 -1,1zM35,47v-3c0,-1.654 -1.346,-3 -3,-3h-19v-38h4.171c0.413,1.164 1.525,2 2.829,2s2.416,-0.836 2.829,-2h4.342c0.413,1.164 1.525,2 2.829,2s2.416,-0.836 2.829,-2h4.342c0.413,1.164 1.525,2 2.829,2s2.416,-0.836 2.829,-2h4.171v12.051c-7.805,0.518 -14,7.015 -14,14.949 0,6.885 4.667,12.685 11,14.442v2.558zM50,59c0,1.103 -0.897,2 -2,2s-2,-0.897 -2,-2v-14.149c0.656,0.088 1.32,0.149 2,0.149s1.344,-0.061 2,-0.149zM48,43c-7.168,0 -13,-5.832 -13,-13s5.832,-13 13,-13 13,5.832 13,13 -5.832,13 -13,13z"/>
    <path fill="#FF000000" d="m45,7h-30v8h30zM43,13h-26v-4h26z"/>
    <path fill="#FF000000" d="m15,17h2v2h-2z"/>
    <path fill="#FF000000" d="m19,17h12v2h-12z"/>
    <path fill="#FF000000" d="m15,21h16v2h-16z"/>
    <path fill="#FF000000" d="m29,25h2v2h-2z"/>
    <path fill="#FF000000" d="m15,25h12v2h-12z"/>
    <path fill="#FF000000" d="m15,29h16v2h-16z"/>
    <path fill="#FF000000" d="m15,33h16v2h-16z"/>
    <path fill="#FF000000" d="m15,37h2v2h-2z"/>
    <path fill="#FF000000" d="m19,37h12v2h-12z"/>
</svg>
