<svg height="128dp" viewBox="0 0 512 512"
    width="128dp" xmlns="http://www.w3.org/2000/svg">
    <path fill="#3d9ae2" d="M464,64V271L360,472H36a19.994,19.994 0,0 1,-20 -20V64Z"/>
    <path fill="#e0e0e2" d="M48,96h144v144h-144z"/>
    <path fill="#e0e0e2" d="M48,272h144v144h-144z"/>
    <path fill="#ffbcab" d="M496,304v72l-24,47v33H368V423l-32,-47V304a16,16 0,1 1,32 0V216a16,16 0,1 1,32 0v40a16,16 0,1 1,32 0v16a16,16 0,1 1,32 0v32a16,16 0,1 1,32 0Z"/>
    <path fill="#cca400" d="M360,456h120v40h-120z"/>
    <path fill="#57565c" d="M464,36V64H16V36A19.994,19.994 0,0 1,36 16H444A19.994,19.994 0,0 1,464 36Z"/>
    <path fill="#91cc04" d="M168,136v32H152v48H88V168H72V136l32,-16a16,16 0,0 0,32 0Z"/>
    <path fill="#d80027" d="M168,312v32H152v48H88V344H72V312l32,-16a16,16 0,0 0,32 0Z"/>
    <path fill="#ffda44" d="M224,192h48v48h-48z"/>
    <path fill="#ffda44" d="M224,368h48v48h-48z"/>
    <path fill="#FF000000" d="M496.97,287.01A24.045,24.045 0,0 0,472 281.37L472,272c0,-0.23 -0.01,-0.45 -0.02,-0.68 0.01,-0.1 0.02,-0.21 0.02,-0.32L472,36A28.031,28.031 0,0 0,444 8L36,8A28.031,28.031 0,0 0,8 36L8,452a28.031,28.031 0,0 0,28 28L352,480v16a8,8 0,0 0,8 8L480,504a8,8 0,0 0,8 -8L488,456a8,8 0,0 0,-8 -8L480,424.92l23.12,-45.28A7.977,7.977 0,0 0,504 376L504,304A23.924,23.924 0,0 0,496.97 287.01ZM24,36A12.01,12.01 0,0 1,36 24L444,24a12.01,12.01 0,0 1,12 12L456,56L24,56ZM360,448a8,8 0,0 0,-8 8v8L36,464a12.01,12.01 0,0 1,-12 -12L24,72L456,72L456,249.36a24.123,24.123 0,0 0,-16.83 0.32A23.995,23.995 0,0 0,416 232a23.836,23.836 0,0 0,-8 1.37L408,216a24,24 0,0 0,-48 0v65.36A24.03,24.03 0,0 0,328 304v72a7.945,7.945 0,0 0,1.39 4.5L360,425.46ZM472,488L368,488L368,464L472,464ZM488,374.08 L464.88,419.36A7.977,7.977 0,0 0,464 423v25L376,448L376,423a7.945,7.945 0,0 0,-1.39 -4.5L344,373.54L344,304a8,8 0,1 1,16 0v40a8,8 0,0 0,16 0L376,216a8,8 0,1 1,16 0v96a8,8 0,0 0,16 0L408,256a8,8 0,1 1,16 0v56a8,8 0,0 0,16 0L440,272a8,8 0,1 1,16 0v40a8,8 0,0 0,16 0v-8a8,8 0,1 1,16 0Z"/>
    <path fill="#FF000000" d="M40,48h8a8,8 0,0 0,0 -16H40a8,8 0,0 0,0 16Z"/>
    <path fill="#FF000000" d="M72,48h8a8,8 0,0 0,0 -16H72a8,8 0,0 0,0 16Z"/>
    <path fill="#FF000000" d="M104,48h8a8,8 0,0 0,0 -16h-8a8,8 0,0 0,0 16Z"/>
    <path fill="#FF000000" d="M192,88L48,88a8,8 0,0 0,-8 8L40,240a8,8 0,0 0,8 8L192,248a8,8 0,0 0,8 -8L200,96A8,8 0,0 0,192 88ZM184,232L56,232L56,104L184,104Z"/>
    <path fill="#FF000000" d="M171.58,128.84l-32,-16A8,8 0,0 0,128 120a8,8 0,0 1,-16 0,8 8,0 0,0 -11.58,-7.16l-32,16A8.011,8.011 0,0 0,64 136v32a8,8 0,0 0,8 8h8v40a8,8 0,0 0,8 8h64a8,8 0,0 0,8 -8V176h8a8,8 0,0 0,8 -8V136A8.011,8.011 0,0 0,171.58 128.84ZM160,160h-8a8,8 0,0 0,-8 8v40H96V168a8,8 0,0 0,-8 -8H80V140.94l18.93,-9.46a23.989,23.989 0,0 0,42.14 0L160,140.94Z"/>
    <path fill="#FF000000" d="M72,352h8v40a8,8 0,0 0,8 8h64a8,8 0,0 0,8 -8L160,352h8a8,8 0,0 0,8 -8L176,312a8,8 0,0 0,-4.422 -7.155l-32,-16A8,8 0,0 0,128 296a8,8 0,0 1,-16 0,8 8,0 0,0 -11.578,-7.155l-32,16A8,8 0,0 0,64 312v32A8,8 0,0 0,72 352ZM80,316.944 L98.928,307.48a23.993,23.993 0,0 0,42.144 0L160,316.944L160,336h-8a8,8 0,0 0,-8 8v40L96,384L96,344a8,8 0,0 0,-8 -8L80,336Z"/>
    <path fill="#FF000000" d="M192,264L48,264a8,8 0,0 0,-8 8L40,416a8,8 0,0 0,8 8L192,424a8,8 0,0 0,8 -8L200,272A8,8 0,0 0,192 264ZM184,408L56,408L56,280L184,280Z"/>
    <path fill="#FF000000" d="M224,104H376a8,8 0,0 0,0 -16H224a8,8 0,0 0,0 16Z"/>
    <path fill="#FF000000" d="M224,128H376a8,8 0,0 0,0 -16H224a8,8 0,0 0,0 16Z"/>
    <path fill="#FF000000" d="M224,152H376a8,8 0,0 0,0 -16H224a8,8 0,0 0,0 16Z"/>
    <path fill="#FF000000" d="M312,160H224a8,8 0,0 0,0 16h88a8,8 0,0 0,0 -16Z"/>
    <path fill="#FF000000" d="M344,160h-8a8,8 0,0 0,0 16h8a8,8 0,0 0,0 -16Z"/>
    <path fill="#FF000000" d="M304,264H224a8,8 0,0 0,0 16h80a8,8 0,0 0,0 -16Z"/>
    <path fill="#FF000000" d="M304,288H224a8,8 0,0 0,0 16h80a8,8 0,0 0,0 -16Z"/>
    <path fill="#FF000000" d="M304,312H224a8,8 0,0 0,0 16h80a8,8 0,0 0,0 -16Z"/>
    <path fill="#FF000000" d="M224,352h24a8,8 0,0 0,0 -16H224a8,8 0,0 0,0 16Z"/>
    <path fill="#FF000000" d="M280,336h-8a8,8 0,0 0,0 16h8a8,8 0,0 0,0 -16Z"/>
    <path fill="#FF000000" d="M224,248h48a8,8 0,0 0,8 -8L280,192a8,8 0,0 0,-8 -8L224,184a8,8 0,0 0,-8 8v48A8,8 0,0 0,224 248ZM232,200h32v32L232,232Z"/>
    <path fill="#FF000000" d="M272,360L224,360a8,8 0,0 0,-8 8v48a8,8 0,0 0,8 8h48a8,8 0,0 0,8 -8L280,368A8,8 0,0 0,272 360ZM264,408L232,408L232,376h32Z"/>
</svg>
