<svg height="48dp" viewBox="0 0 24 24"
    width="48dp" xmlns="http://www.w3.org/2000/svg">
    <path fill="#cfd8dc" d="m21.25,20.25h-18.5c-1.105,0 -2,-0.895 -2,-2v-12.5c0,-1.105 0.895,-2 2,-2h18.5c1.105,0 2,0.895 2,2v12.5c0,1.105 -0.895,2 -2,2z"/>
    <path fill="#90a4ae" d="m7.25,15.25h-6.5v-6.5h6.5c1.105,0 2,0.895 2,2v2.5c0,1.105 -0.895,2 -2,2z"/>
    <path fill="#00bcd4" d="m23.25,18.5h-3v-5.25c0,-0.28 -0.22,-0.5 -0.5,-0.5h-2.5c-0.28,0 -0.5,0.22 -0.5,0.5v5.25h-3l4.75,4.75z"/>
    <path fill="#FF000000" d="m18.5,24c-0.192,0 -0.384,-0.073 -0.53,-0.22l-4.75,-4.75c-0.215,-0.215 -0.278,-0.537 -0.163,-0.817 0.116,-0.28 0.39,-0.463 0.693,-0.463h2.25v-4.5c0,-0.689 0.561,-1.25 1.25,-1.25h2.5c0.689,0 1.25,0.561 1.25,1.25v4.5h2.25c0.304,0 0.577,0.183 0.693,0.463 0.115,0.28 0.052,0.603 -0.163,0.817l-4.75,4.75c-0.146,0.147 -0.338,0.22 -0.53,0.22zM15.561,19.25 L18.5,22.189 21.439,19.25h-1.189c-0.414,0 -0.75,-0.336 -0.75,-0.75v-5h-2v5c0,0.414 -0.336,0.75 -0.75,0.75z"/>
    <path fill="#FF000000" d="m11.25,21h-8.5c-1.517,0 -2.75,-1.233 -2.75,-2.75v-12.5c0,-1.517 1.233,-2.75 2.75,-2.75h18.5c1.517,0 2.75,1.233 2.75,2.75v4.5c0,0.414 -0.336,0.75 -0.75,0.75s-0.75,-0.336 -0.75,-0.75v-4.5c0,-0.689 -0.561,-1.25 -1.25,-1.25h-18.5c-0.689,0 -1.25,0.561 -1.25,1.25v12.5c0,0.689 0.561,1.25 1.25,1.25h8.5c0.414,0 0.75,0.336 0.75,0.75s-0.336,0.75 -0.75,0.75z"/>
    <path fill="#FF000000" d="m7.25,16h-6.5c-0.414,0 -0.75,-0.336 -0.75,-0.75v-6.5c0,-0.414 0.336,-0.75 0.75,-0.75h6.5c1.517,0 2.75,1.233 2.75,2.75v2.5c0,1.517 -1.233,2.75 -2.75,2.75zM1.5,14.5h5.75c0.689,0 1.25,-0.561 1.25,-1.25v-2.5c0,-0.689 -0.561,-1.25 -1.25,-1.25h-5.75z"/>
    <path fill="#FF000000" d="M5,12m-1,0a1,1 0,1 1,2 0a1,1 0,1 1,-2 0"/>
</svg>
