<svg width="48" height="48" viewBox="0 0 48 48" fill="none" xmlns="http://www.w3.org/2000/svg">
<circle cx="24" cy="24" r="24" fill="#185ADB"/>
<g clip-path="url(#clip0_2103_2350)">
<path d="M33 16.5C33.3978 16.5 33.7794 16.658 34.0607 16.9393C34.342 17.2206 34.5 17.6022 34.5 18V30C34.5 30.3978 34.342 30.7794 34.0607 31.0607C33.7794 31.342 33.3978 31.5 33 31.5H15C14.6022 31.5 14.2206 31.342 13.9393 31.0607C13.658 30.7794 13.5 30.3978 13.5 30V18C13.5 17.6022 13.658 17.2206 13.9393 16.9393C14.2206 16.658 14.6022 16.5 15 16.5H33ZM15 15C14.2044 15 13.4413 15.3161 12.8787 15.8787C12.3161 16.4413 12 17.2044 12 18V30C12 30.7956 12.3161 31.5587 12.8787 32.1213C13.4413 32.6839 14.2044 33 15 33H33C33.7956 33 34.5587 32.6839 35.1213 32.1213C35.6839 31.5587 36 30.7956 36 30V18C36 17.2044 35.6839 16.4413 35.1213 15.8787C34.5587 15.3161 33.7956 15 33 15H15Z" fill="white"/>
<path d="M15 20.25C15 20.0511 15.079 19.8603 15.2197 19.7197C15.3603 19.579 15.5511 19.5 15.75 19.5H18.75C18.9489 19.5 19.1397 19.579 19.2803 19.7197C19.421 19.8603 19.5 20.0511 19.5 20.25V21.75C19.5 21.9489 19.421 22.1397 19.2803 22.2803C19.1397 22.421 18.9489 22.5 18.75 22.5H15.75C15.5511 22.5 15.3603 22.421 15.2197 22.2803C15.079 22.1397 15 21.9489 15 21.75V20.25ZM15 24.75C15 24.5511 15.079 24.3603 15.2197 24.2197C15.3603 24.079 15.5511 24 15.75 24H23.25C23.4489 24 23.6397 24.079 23.7803 24.2197C23.921 24.3603 24 24.5511 24 24.75C24 24.9489 23.921 25.1397 23.7803 25.2803C23.6397 25.421 23.4489 25.5 23.25 25.5H15.75C15.5511 25.5 15.3603 25.421 15.2197 25.2803C15.079 25.1397 15 24.9489 15 24.75ZM15 27.75C15 27.5511 15.079 27.3603 15.2197 27.2197C15.3603 27.079 15.5511 27 15.75 27H17.25C17.4489 27 17.6397 27.079 17.7803 27.2197C17.921 27.3603 18 27.5511 18 27.75C18 27.9489 17.921 28.1397 17.7803 28.2803C17.6397 28.421 17.4489 28.5 17.25 28.5H15.75C15.5511 28.5 15.3603 28.421 15.2197 28.2803C15.079 28.1397 15 27.9489 15 27.75ZM19.5 27.75C19.5 27.5511 19.579 27.3603 19.7197 27.2197C19.8603 27.079 20.0511 27 20.25 27H21.75C21.9489 27 22.1397 27.079 22.2803 27.2197C22.421 27.3603 22.5 27.5511 22.5 27.75C22.5 27.9489 22.421 28.1397 22.2803 28.2803C22.1397 28.421 21.9489 28.5 21.75 28.5H20.25C20.0511 28.5 19.8603 28.421 19.7197 28.2803C19.579 28.1397 19.5 27.9489 19.5 27.75ZM24 27.75C24 27.5511 24.079 27.3603 24.2197 27.2197C24.3603 27.079 24.5511 27 24.75 27H26.25C26.4489 27 26.6397 27.079 26.7803 27.2197C26.921 27.3603 27 27.5511 27 27.75C27 27.9489 26.921 28.1397 26.7803 28.2803C26.6397 28.421 26.4489 28.5 26.25 28.5H24.75C24.5511 28.5 24.3603 28.421 24.2197 28.2803C24.079 28.1397 24 27.9489 24 27.75ZM28.5 27.75C28.5 27.5511 28.579 27.3603 28.7197 27.2197C28.8603 27.079 29.0511 27 29.25 27H30.75C30.9489 27 31.1397 27.079 31.2803 27.2197C31.421 27.3603 31.5 27.5511 31.5 27.75C31.5 27.9489 31.421 28.1397 31.2803 28.2803C31.1397 28.421 30.9489 28.5 30.75 28.5H29.25C29.0511 28.5 28.8603 28.421 28.7197 28.2803C28.579 28.1397 28.5 27.9489 28.5 27.75Z" fill="white"/>
</g>
<defs>
<clipPath id="clip0_2103_2350">
<rect width="24" height="24" fill="white" transform="translate(12 12)"/>
</clipPath>
</defs>
</svg>
