<svg width="85" height="85" viewBox="0 0 85 85" fill="none" xmlns="http://www.w3.org/2000/svg">
<path d="M63.6858 58.9624C67.3813 54.5197 69.9516 49.253 71.1792 43.6079C72.4067 37.9628 72.2555 32.1053 70.7383 26.5309C69.221 20.9565 66.3824 15.8293 62.4626 11.5829C58.5427 7.33649 53.657 4.09588 48.2186 2.13519C42.7802 0.174508 36.9491 -0.448574 31.2188 0.318659C25.4884 1.08589 20.0273 3.22087 15.2973 6.54298C10.5674 9.86509 6.70786 14.2766 4.04516 19.4043C1.38246 24.5321 -0.00505027 30.2251 1.38124e-05 36.002C0.00195708 44.3998 2.96376 52.5288 8.3657 58.9624L8.31424 59.0061C8.49437 59.2221 8.70023 59.4072 8.8855 59.6206C9.1171 59.8854 9.3667 60.1348 9.60602 60.392C10.3265 61.1736 11.0676 61.9244 11.8448 62.6289C12.0815 62.8448 12.326 63.0454 12.5653 63.2511C13.3887 63.9607 14.2353 64.6344 15.1128 65.2617C15.226 65.3389 15.329 65.4391 15.4422 65.5188V65.488C21.469 69.7257 28.6587 72 36.0283 72C43.3979 72 50.5876 69.7257 56.6144 65.488V65.5188C56.7277 65.4391 56.828 65.3389 56.9438 65.2617C57.8187 64.6318 58.6679 63.9607 59.4914 63.2511C59.7307 63.0454 59.9751 62.8423 60.2119 62.6289C60.989 61.9218 61.7301 61.1736 62.4506 60.392C62.6899 60.1348 62.937 59.8854 63.1711 59.6206C63.3538 59.4072 63.5623 59.2221 63.7424 59.0035L63.6858 58.9624ZM36.0257 15.4327C38.316 15.4327 40.5548 16.1113 42.4591 17.3827C44.3634 18.654 45.8476 20.461 46.724 22.5752C47.6004 24.6894 47.8298 27.0158 47.3829 29.2602C46.9361 31.5046 45.8333 33.5662 44.2138 35.1843C42.5944 36.8024 40.5311 37.9044 38.2848 38.3508C36.0386 38.7973 33.7103 38.5681 31.5944 37.6924C29.4785 36.8167 27.67 35.3337 26.3976 33.431C25.1252 31.5283 24.446 29.2913 24.446 27.0029C24.446 23.9343 25.666 20.9914 27.8377 18.8216C30.0093 16.6517 32.9546 15.4327 36.0257 15.4327ZM15.4576 58.9624C15.5023 55.5864 16.8754 52.3637 19.2798 49.9915C21.6843 47.6193 24.9269 46.2883 28.3059 46.2866H43.7455C47.1246 46.2883 50.3672 47.6193 52.7716 49.9915C55.1761 52.3637 56.5492 55.5864 56.5939 58.9624C50.9503 64.0439 43.6227 66.856 36.0257 66.856C28.4288 66.856 21.1012 64.0439 15.4576 58.9624Z" fill="#185ADB"/>
<g filter="url(#filter0_d_2091_2664)">
<circle cx="65" cy="61" r="16" fill="white"/>
</g>
<path d="M71.1875 56.5703H68.7969L68.2273 54.9742C68.188 54.865 68.1159 54.7706 68.0209 54.7039C67.9259 54.6372 67.8126 54.6015 67.6965 54.6016H62.3035C62.0662 54.6016 61.8535 54.751 61.7744 54.9742L61.2031 56.5703H58.8125C58.0355 56.5703 57.4062 57.1996 57.4062 57.9766V65.9922C57.4062 66.7691 58.0355 67.3984 58.8125 67.3984H71.1875C71.9645 67.3984 72.5938 66.7691 72.5938 65.9922V57.9766C72.5938 57.1996 71.9645 56.5703 71.1875 56.5703ZM65 64.5859C63.4461 64.5859 62.1875 63.3273 62.1875 61.7734C62.1875 60.2195 63.4461 58.9609 65 58.9609C66.5539 58.9609 67.8125 60.2195 67.8125 61.7734C67.8125 63.3273 66.5539 64.5859 65 64.5859ZM63.3125 61.7734C63.3125 62.221 63.4903 62.6502 63.8068 62.9667C64.1232 63.2831 64.5524 63.4609 65 63.4609C65.4476 63.4609 65.8768 63.2831 66.1932 62.9667C66.5097 62.6502 66.6875 62.221 66.6875 61.7734C66.6875 61.3259 66.5097 60.8967 66.1932 60.5802C65.8768 60.2637 65.4476 60.0859 65 60.0859C64.5524 60.0859 64.1232 60.2637 63.8068 60.5802C63.4903 60.8967 63.3125 61.3259 63.3125 61.7734Z" fill="#185ADB"/>
<defs>
<filter id="filter0_d_2091_2664" x="45" y="45" width="40" height="40" filterUnits="userSpaceOnUse" color-interpolation-filters="sRGB">
<feFlood flood-opacity="0" result="BackgroundImageFix"/>
<feColorMatrix in="SourceAlpha" type="matrix" values="0 0 0 0 0 0 0 0 0 0 0 0 0 0 0 0 0 0 127 0" result="hardAlpha"/>
<feOffset dy="4"/>
<feGaussianBlur stdDeviation="2"/>
<feComposite in2="hardAlpha" operator="out"/>
<feColorMatrix type="matrix" values="0 0 0 0 0 0 0 0 0 0 0 0 0 0 0 0 0 0 0.25 0"/>
<feBlend mode="normal" in2="BackgroundImageFix" result="effect1_dropShadow_2091_2664"/>
<feBlend mode="normal" in="SourceGraphic" in2="effect1_dropShadow_2091_2664" result="shape"/>
</filter>
</defs>
</svg>
